<svg xmlns="http://www.w3.org/2000/svg" viewBox="0 0 647 125.11"><defs><style>.cls-1,.cls-2,.cls-3{fill:none;stroke-miterlimit:8;}.cls-1{stroke:#2ec4b6;stroke-width:2px;}.cls-2{stroke:#e71d36;stroke-width:2.28px;}.cls-3{stroke:#fff;}.cls-4{fill:#e71d36;}</style></defs><g id="Layer_2" data-name="Layer 2"><g id="base"><line class="cls-1" x1="51" y1="1" x2="593" y2="1"/><line class="cls-1" x1="592" x2="592" y2="11"/><line class="cls-1" x1="413.13" y1="0.38" x2="413.13" y2="11.38"/><line class="cls-1" x1="51.13" y1="0.38" x2="51.13" y2="11.38"/><line class="cls-2" x1="233" y1="11" x2="233" y2="1"/><line class="cls-2" x1="233" y1="100" x2="233" y2="90"/><line class="cls-3" y1="12" x2="647" y2="12"/></g><g id="example_3" data-name="example 3"><path d="M562.63,27.2V17.55l-2.91,1.07v-1.3l4.15-1.56h.22V27.2Z"/><path d="M567.52,28.18l4.75-12.35h1.24l-4.74,12.35Z"/><path d="M577.58,27.2h-1.53l4.7-10.2H574.6V15.83h7.69v.8Z"/><path d="M583.12,28.18l4.75-12.35h1.25l-4.75,12.35Z"/><path d="M590.54,27.2v-1L594.26,22a15.07,15.07,0,0,0,1.07-1.3,4.05,4.05,0,0,0,.53-.95,2.68,2.68,0,0,0,.15-.89,2.24,2.24,0,0,0-.23-1,1.84,1.84,0,0,0-.68-.73,2,2,0,0,0-1.06-.27,2.17,2.17,0,0,0-1.68.63,2.42,2.42,0,0,0-.58,1.7h-1.46a3.62,3.62,0,0,1,.43-1.77A3,3,0,0,1,592,16.13a4.13,4.13,0,0,1,2-.46,4,4,0,0,1,1.83.38,2.8,2.8,0,0,1,1.19,1.06,3,3,0,0,1,.41,1.6,3.88,3.88,0,0,1-.57,1.93,11.57,11.57,0,0,1-1.56,2.07L592.29,26H598V27.2Z"/><path d="M605.75,26.19a3.61,3.61,0,0,1-5.33,0,6.12,6.12,0,0,1-.94-3.83V20.61a6.07,6.07,0,0,1,.93-3.8,3.7,3.7,0,0,1,5.34,0,6.14,6.14,0,0,1,.92,3.8v1.74A6.3,6.3,0,0,1,605.75,26.19Zm-1.07-8.52a2,2,0,0,0-3.2,0,5.09,5.09,0,0,0-.54,2.69v2.22a5.32,5.32,0,0,0,.55,2.73,1.77,1.77,0,0,0,1.6.87,1.73,1.73,0,0,0,1.6-.86,5.57,5.57,0,0,0,.52-2.74V20.36A5.15,5.15,0,0,0,604.68,17.67Z"/><path d="M608.52,27.2v-1L612.25,22c.46-.52.82-.95,1.07-1.3a4.46,4.46,0,0,0,.53-.95,2.68,2.68,0,0,0,.15-.89,2.24,2.24,0,0,0-.24-1,1.77,1.77,0,0,0-.68-.73,2,2,0,0,0-1.05-.27,2.19,2.19,0,0,0-1.69.63,2.47,2.47,0,0,0-.58,1.7H608.3a3.74,3.74,0,0,1,.43-1.77A3.07,3.07,0,0,1,610,16.13a4.1,4.1,0,0,1,2-.46,4,4,0,0,1,1.83.38A2.77,2.77,0,0,1,615,17.11a3,3,0,0,1,.42,1.6,3.8,3.8,0,0,1-.58,1.93,12,12,0,0,1-1.55,2.07L610.28,26H616V27.2Z"/><path d="M620.81,27.2V17.55l-2.91,1.07v-1.3L622,15.76h.23V27.2Z"/><path d="M564.65,40.63a1.94,1.94,0,0,0-2.27-2.27H559V37.2h3.41a3.86,3.86,0,0,1,2.73.87,3.41,3.41,0,0,1,.93,2.6V46.4h-1.46Zm-5.59,2.63a4.67,4.67,0,0,1,.11-1.12,4.9,4.9,0,0,1,.3-.83h1.18a5.76,5.76,0,0,0-.14.8c0,.29,0,.64,0,1.06V46.4h-1.41Z"/><path d="M575.14,37.2v5.51a4.13,4.13,0,0,1-.51,2.12,3.29,3.29,0,0,1-1.44,1.32,4.86,4.86,0,0,1-2.15.45,9.27,9.27,0,0,1-3.27-.65l.35-1.08a8.17,8.17,0,0,0,2.45.59,3.46,3.46,0,0,1-.78-1.55l-1.52-6.71h1.45l1.5,6.79a5.38,5.38,0,0,0,.21.8,2.74,2.74,0,0,0,.27.6,2.49,2.49,0,0,0,1.47-.88,2.75,2.75,0,0,0,.52-1.74V37.2Z"/><path d="M582,42.16l2.43,3.51v.73h-6.81V45.23h4.94l-5.5-8h1.64l2.45,3.7,2-3.7h1.63Z"/><path d="M587.41,38.36h-1.69V37.2h3.15v5.13h-1.46Z"/><path d="M598.16,45.29V46.4H590.6V45.23h5v-4.6a2,2,0,0,0-2.27-2.27H591.1V37.2h2.3a3.84,3.84,0,0,1,2.73.87,3.44,3.44,0,0,1,.91,2.6v4.5Z"/><path d="M609.29,40.63a2.34,2.34,0,0,0-.54-1.73,2.39,2.39,0,0,0-1.74-.54h-3.33V37.2h3.4a3.83,3.83,0,0,1,2.73.87,3.41,3.41,0,0,1,.93,2.6V46.4h-1.45Zm-5.6,2.63a4.67,4.67,0,0,1,.11-1.12,4.9,4.9,0,0,1,.3-.83h1.19a4.58,4.58,0,0,0-.14.8,10.32,10.32,0,0,0,0,1.06V46.4h-1.41Z"/><path d="M612.4,46.38l0-1.13a5.56,5.56,0,0,0,1.14.1,1.24,1.24,0,0,0,1-.36,1.74,1.74,0,0,0,.32-1.14V38.36h-1.81V37.2h3.26V44a2.75,2.75,0,0,1-.62,1.93,2.37,2.37,0,0,1-1.8.66A6.52,6.52,0,0,1,612.4,46.38Z"/><path d="M625.56,37.2v1.16H624v8h-1.45v-8h-4.38V37.2Z"/><path d="M555.71,59.83a2,2,0,0,0-2.27-2.27H550.1V56.4h3.41a3.86,3.86,0,0,1,2.73.87,3.41,3.41,0,0,1,.93,2.6V65.6h-1.46Zm-5.59,2.63a4.75,4.75,0,0,1,.1-1.12,5,5,0,0,1,.31-.83h1.18a5.76,5.76,0,0,0-.14.8c0,.29,0,.65,0,1.06V65.6h-1.41Z"/><path d="M566,57.31l-3.37,8.29h-1.56l3.34-8H559v-4h1.45v2.8H566Z"/><path d="M574.61,64.49V65.6h-7.56V64.43h5v-4.6a2,2,0,0,0-2.27-2.27h-2.23V56.4h2.3a3.84,3.84,0,0,1,2.73.87,3.44,3.44,0,0,1,.91,2.6v4.5Z"/><path d="M577.12,57.56h-1.69V56.4h3.14v5.13h-1.45Z"/><path d="M584.34,64.46a3.06,3.06,0,0,0,1.35-.34,2.32,2.32,0,0,0,.9-.91,2.82,2.82,0,0,0,.32-1.38V57.56h-5.68V56.4h7.13v5.4a3.9,3.9,0,0,1-.49,2,3.37,3.37,0,0,1-1.41,1.31,4.87,4.87,0,0,1-2.12.49Zm-2.93-2.31a4.66,4.66,0,0,1,.1-1.11,4.52,4.52,0,0,1,.3-.82H583a4.19,4.19,0,0,0-.14.78,10.32,10.32,0,0,0-.05,1.06v6.79h-1.4Z"/><path d="M591.63,57.56h-1.07V56.4h2.52v9.2h-1.45Z"/><path d="M605.23,59.83a2.34,2.34,0,0,0-.54-1.73,2.38,2.38,0,0,0-1.73-.54h-3.34V56.4H603a3.86,3.86,0,0,1,2.73.87,3.45,3.45,0,0,1,.92,2.6V65.6h-1.45Zm-5.6,2.63a4.67,4.67,0,0,1,.11-1.12,4.9,4.9,0,0,1,.3-.83h1.19a5.76,5.76,0,0,0-.14.8,10.47,10.47,0,0,0-.05,1.06V65.6h-1.41Z"/><path d="M610,57.56H608.3V56.4h3.14v5.13H610Z"/><path d="M614.81,57.56h-1.68V56.4h3.14v5.13h-1.46Z"/><path d="M625.17,57.31l-3.38,8.29h-1.55l3.33-8h-5.4v-4h1.45v2.8h5.55Z"/><path d="M633.59,56.4v5.51a4.13,4.13,0,0,1-.51,2.12,3.29,3.29,0,0,1-1.44,1.32,4.86,4.86,0,0,1-2.15.45,9.27,9.27,0,0,1-3.27-.65l.35-1.08a8.17,8.17,0,0,0,2.45.59,3.46,3.46,0,0,1-.78-1.55l-1.52-6.71h1.45l1.5,6.79a5.38,5.38,0,0,0,.21.8,2.74,2.74,0,0,0,.27.6,2.49,2.49,0,0,0,1.47-.88,2.75,2.75,0,0,0,.52-1.74V56.4Z"/><path d="M554,76.76h-1.69V75.6h3.14v5.13H554Z"/><path d="M558.14,75.6h3.46a3.79,3.79,0,0,1,2.73.87,3.57,3.57,0,0,1,.9,2.65V84.8h-1.44V79a2.42,2.42,0,0,0-.52-1.73,2.18,2.18,0,0,0-1.65-.54h-2v8h-1.45Z"/><path d="M571.64,78.38a1.62,1.62,0,0,0-.44-1.19,1.7,1.7,0,0,0-1.21-.43H566.9V75.6H570a3.6,3.6,0,0,1,1.63.34,2.4,2.4,0,0,1,1.05,1,3.18,3.18,0,0,1,.36,1.56V84.8h-1.44Z"/><path d="M575.52,76.82l-.65-.11V75.6h4.47v1.16H577l1.3,8h-1.49Z"/><path d="M586.5,80.78l2.91,4h-1.62l-4.1-5.66a2,2,0,0,0-.83,1.8V84.8h-1.41V81.46a4.12,4.12,0,0,1,.41-1.95,2.64,2.64,0,0,1,1.26-1.16l-2-2.75h1.63l2.85,3.93,2.22-3.93h1.63Z"/><path d="M602,75.6v1.16h-1.54v8H599v-8h-4.37V75.6Z"/><path d="M604.54,79a3.87,3.87,0,0,1,.37-1.21,2.45,2.45,0,0,1,.67-.87l.15-.11v0c-.24,0-.53.11-.88.2s-.67.18-1,.28l-.33-1.09a12.79,12.79,0,0,1,2-.51,12.23,12.23,0,0,1,2.07-.2,3.82,3.82,0,0,1,2.84,1,4,4,0,0,1,1,2.91V84.8h-3.79V83.64H610V79.15a2.78,2.78,0,0,0-.55-1.87,2,2,0,0,0-1.61-.64,1.62,1.62,0,0,0-1.27.59,2.74,2.74,0,0,0-.62,1.58l-.7,6h-1.43Z"/><path d="M620.5,75.6v5.51a4.16,4.16,0,0,1-.51,2.12,3.29,3.29,0,0,1-1.44,1.32,4.86,4.86,0,0,1-2.15.45,9.27,9.27,0,0,1-3.27-.65l.35-1.08a8.17,8.17,0,0,0,2.45.59,3.46,3.46,0,0,1-.78-1.55l-1.52-6.71h1.45l1.5,6.79a5.38,5.38,0,0,0,.21.8,2.74,2.74,0,0,0,.27.6,2.49,2.49,0,0,0,1.47-.88,2.75,2.75,0,0,0,.52-1.74V75.6Z"/><path d="M624,79a3.61,3.61,0,0,1,.36-1.21,2.57,2.57,0,0,1,.67-.87l.16-.11,0,0c-.23,0-.52.11-.88.2s-.67.18-1,.28l-.34-1.09a13.07,13.07,0,0,1,2-.51,12.32,12.32,0,0,1,2.07-.2,3.82,3.82,0,0,1,2.84,1,3.94,3.94,0,0,1,1,2.91V84.8h-3.79V83.64h2.35V79.15a2.78,2.78,0,0,0-.56-1.87,2,2,0,0,0-1.61-.64,1.61,1.61,0,0,0-1.26.59,2.81,2.81,0,0,0-.63,1.58l-.69,6h-1.43Z"/><path d="M383.16,26.7V17.05l-2.91,1.07v-1.3l4.14-1.56h.23V26.7Z"/><path d="M388.05,27.68l4.75-12.35H394L389.3,27.68Z"/><path d="M398.76,26.7V17.05l-2.91,1.07v-1.3L400,15.26h.23V26.7Z"/><path d="M403.65,27.68l4.75-12.35h1.24L404.9,27.68Z"/><path d="M411.06,26.7v-1l3.73-4.15c.46-.52.82-.95,1.07-1.3a4.05,4.05,0,0,0,.53-.95,2.68,2.68,0,0,0,.15-.89,2.24,2.24,0,0,0-.24-1,1.81,1.81,0,0,0-.67-.73,2,2,0,0,0-1.06-.27,2.19,2.19,0,0,0-1.69.63,2.47,2.47,0,0,0-.58,1.7h-1.46a3.74,3.74,0,0,1,.43-1.77,3.07,3.07,0,0,1,1.28-1.27,4.1,4.1,0,0,1,2-.46,4,4,0,0,1,1.83.38,2.86,2.86,0,0,1,1.19,1.06,3.1,3.1,0,0,1,.41,1.6,3.88,3.88,0,0,1-.57,1.93,12.61,12.61,0,0,1-1.56,2.07l-3.05,3.32h5.7V26.7Z"/><path d="M426.28,25.69a3.61,3.61,0,0,1-5.33,0,6.12,6.12,0,0,1-.94-3.83V20.11a6.14,6.14,0,0,1,.92-3.8,3.7,3.7,0,0,1,5.34,0,6.07,6.07,0,0,1,.93,3.8v1.74A6.3,6.3,0,0,1,426.28,25.69Zm-1.07-8.52a2,2,0,0,0-3.21,0,5.2,5.2,0,0,0-.53,2.69v2.22a5.21,5.21,0,0,0,.55,2.73,1.76,1.76,0,0,0,1.6.87,1.73,1.73,0,0,0,1.59-.86,5.46,5.46,0,0,0,.52-2.74V19.86A5.17,5.17,0,0,0,425.21,17.17Z"/><path d="M429.05,26.7v-1l3.72-4.15a15.07,15.07,0,0,0,1.07-1.3,4.05,4.05,0,0,0,.53-.95,2.68,2.68,0,0,0,.15-.89,2.24,2.24,0,0,0-.23-1,1.84,1.84,0,0,0-.68-.73,2,2,0,0,0-1.06-.27,2.17,2.17,0,0,0-1.68.63,2.42,2.42,0,0,0-.58,1.7h-1.46a3.62,3.62,0,0,1,.43-1.77,3,3,0,0,1,1.27-1.27,4.13,4.13,0,0,1,2-.46,4,4,0,0,1,1.83.38,2.8,2.8,0,0,1,1.19,1.06,3,3,0,0,1,.41,1.6,3.88,3.88,0,0,1-.57,1.93,11.57,11.57,0,0,1-1.56,2.07l-3.05,3.32h5.71V26.7Z"/><path d="M438,26.7v-1l3.73-4.15c.46-.52.82-.95,1.07-1.3a4,4,0,0,0,.52-.95,2.69,2.69,0,0,0,.16-.89,2.24,2.24,0,0,0-.24-1,1.77,1.77,0,0,0-.68-.73,2,2,0,0,0-1.05-.27,2.19,2.19,0,0,0-1.69.63,2.42,2.42,0,0,0-.58,1.7h-1.46a3.62,3.62,0,0,1,.43-1.77,3.11,3.11,0,0,1,1.27-1.27,4.17,4.17,0,0,1,2-.46,4,4,0,0,1,1.83.38,2.77,2.77,0,0,1,1.18,1.06,3,3,0,0,1,.42,1.6,3.8,3.8,0,0,1-.58,1.93,11.57,11.57,0,0,1-1.56,2.07l-3,3.32h5.7V26.7Z"/><path d="M383.09,36.7v1.16h-1.54v8H380.1v-8h-4.37V36.7Z"/><path d="M391.44,36.7v5.51a4.13,4.13,0,0,1-.51,2.12,3.34,3.34,0,0,1-1.44,1.32,4.86,4.86,0,0,1-2.15.45,9.27,9.27,0,0,1-3.27-.65l.35-1.08a8.17,8.17,0,0,0,2.45.59,3.46,3.46,0,0,1-.78-1.55l-1.52-6.71H386l1.5,6.79a5.38,5.38,0,0,0,.21.8,2.74,2.74,0,0,0,.27.6,2.44,2.44,0,0,0,1.46-.88,2.7,2.7,0,0,0,.53-1.74V36.7Z"/><path d="M394.7,37.86h-1.07V36.7h2.53v9.2H394.7Z"/><path d="M399.61,40.05a3.61,3.61,0,0,1,.36-1.21,2.57,2.57,0,0,1,.67-.87l.16-.11,0,0c-.23,0-.53.11-.88.2s-.67.18-1,.28l-.34-1.09a13.07,13.07,0,0,1,2-.51,12.15,12.15,0,0,1,2.07-.19,3.81,3.81,0,0,1,2.84,1,3.94,3.94,0,0,1,1,2.91V45.9h-3.79V44.74h2.35V40.25a2.78,2.78,0,0,0-.56-1.87,2,2,0,0,0-1.61-.64,1.61,1.61,0,0,0-1.26.59,2.81,2.81,0,0,0-.63,1.58l-.69,6h-1.43Z"/><path d="M409.76,40.05a3.61,3.61,0,0,1,.36-1.21,2.45,2.45,0,0,1,.67-.87l.16-.11,0,0c-.23,0-.53.11-.88.2s-.67.18-1,.28l-.34-1.09a12.79,12.79,0,0,1,2-.51,12.15,12.15,0,0,1,2.07-.19,3.81,3.81,0,0,1,2.84,1,4,4,0,0,1,1,2.91V45.9h-3.79V44.74h2.34V40.25a2.78,2.78,0,0,0-.55-1.87,2,2,0,0,0-1.61-.64,1.63,1.63,0,0,0-1.27.59,2.88,2.88,0,0,0-.62,1.58l-.7,6h-1.43Z"/><path d="M428.6,40.13a2,2,0,0,0-2.27-2.27H423V36.7h3.41a3.86,3.86,0,0,1,2.73.87,3.41,3.41,0,0,1,.92,2.6V45.9H428.6ZM423,42.76a4.75,4.75,0,0,1,.1-1.12,4.9,4.9,0,0,1,.3-.83h1.19a5.76,5.76,0,0,0-.14.8,10.32,10.32,0,0,0,0,1.06V45.9H423Z"/><path d="M431.71,45.88l0-1.13a5.69,5.69,0,0,0,1.14.1,1.21,1.21,0,0,0,1-.36,1.69,1.69,0,0,0,.32-1.14V37.86h-1.8V36.7h3.26v6.77A2.7,2.7,0,0,1,435,45.4a2.37,2.37,0,0,1-1.8.66A6.58,6.58,0,0,1,431.71,45.88Z"/><path d="M439.86,44.27a9.09,9.09,0,0,0,1.58.5A7.44,7.44,0,0,0,443,45a5.67,5.67,0,0,0,2-.33,2.91,2.91,0,0,0,1.39-1,2.58,2.58,0,0,0,.51-1.63V36.7h1.41v5.44a3.46,3.46,0,0,1-.7,2.19,4.16,4.16,0,0,1-1.89,1.34,7.4,7.4,0,0,1-2.65.45,11,11,0,0,1-4.64-1.06V36.7h1.41Zm2.65-1.75a4.58,4.58,0,0,0,.15-1.24V36.7h1.41V41a4.69,4.69,0,0,1-.19,1.38,2.58,2.58,0,0,1-.61,1l-1.2,0A2,2,0,0,0,442.51,42.52Z"/><path d="M381.11,55.9v1.16h-1.54v8h-1.45v-8h-4.37V55.9Z"/><path d="M383.65,59.25A3.62,3.62,0,0,1,384,58a2.55,2.55,0,0,1,.66-.87l.16-.11,0,0c-.23,0-.52.11-.87.2s-.68.18-1,.28l-.34-1.09a13.21,13.21,0,0,1,2-.51,12.15,12.15,0,0,1,2.07-.19,3.83,3.83,0,0,1,2.84,1,4,4,0,0,1,1,2.91V65.1h-3.78V63.94h2.34V59.45a2.78,2.78,0,0,0-.56-1.87,2,2,0,0,0-1.61-.64,1.61,1.61,0,0,0-1.26.59,2.81,2.81,0,0,0-.63,1.58l-.69,6H383Z"/><path d="M399.61,55.9v5.51a4.14,4.14,0,0,1-.52,2.12,3.32,3.32,0,0,1-1.43,1.32,4.89,4.89,0,0,1-2.15.45,9.19,9.19,0,0,1-3.27-.65l.35-1.08a8.17,8.17,0,0,0,2.45.59,3.46,3.46,0,0,1-.78-1.55l-1.52-6.71h1.45l1.49,6.79c.07.31.14.58.21.8a3.32,3.32,0,0,0,.28.6,2.47,2.47,0,0,0,1.46-.88,2.75,2.75,0,0,0,.53-1.74V55.9Z"/><path d="M403.06,59.25a3.61,3.61,0,0,1,.36-1.21,2.45,2.45,0,0,1,.67-.87l.16-.11,0,0c-.23,0-.53.11-.88.2s-.67.18-1,.28l-.34-1.09a13.07,13.07,0,0,1,2-.51,12.15,12.15,0,0,1,2.07-.19,3.81,3.81,0,0,1,2.84,1,3.94,3.94,0,0,1,1,2.91V65.1h-3.79V63.94h2.35V59.45a2.78,2.78,0,0,0-.56-1.87,2,2,0,0,0-1.61-.64,1.6,1.6,0,0,0-1.26.59,2.81,2.81,0,0,0-.63,1.58l-.69,6h-1.43Z"/><path d="M423,56.77a3.53,3.53,0,0,1,.9,2.65V65.1H422.5V59.33A2.47,2.47,0,0,0,422,57.6a2.21,2.21,0,0,0-1.66-.54H419a3.64,3.64,0,0,0-.41,1.08,6.16,6.16,0,0,0-.15,1.36v3.1a2.76,2.76,0,0,1-.6,1.92,2.27,2.27,0,0,1-1.75.66,6.87,6.87,0,0,1-.9-.07V63.94a4.26,4.26,0,0,0,.54,0,1.21,1.21,0,0,0,1-.36,1.62,1.62,0,0,0,.31-1.11v-2.9a5.71,5.71,0,0,1,.19-1.42,3.21,3.21,0,0,1,.52-1.13H416V55.9h4.29A3.79,3.79,0,0,1,423,56.77Z"/><path d="M432.77,56.81l-3.38,8.29h-1.55l3.34-8h-5.4v-4h1.44v2.8h5.55Z"/><path d="M441.39,64V65.1h-7.57V63.93h5v-4.6a2.34,2.34,0,0,0-.53-1.73,2.39,2.39,0,0,0-1.74-.54h-2.23V55.9h2.31a3.81,3.81,0,0,1,2.72.87,3.45,3.45,0,0,1,.92,2.6v4.5Z"/><path d="M446.29,64a3.06,3.06,0,0,0,1.35-.34,2.38,2.38,0,0,0,.9-.91,2.82,2.82,0,0,0,.32-1.38V57.06h-5.68V55.9h7.13v5.4a3.91,3.91,0,0,1-.5,2,3.34,3.34,0,0,1-1.4,1.31,4.9,4.9,0,0,1-2.12.49Zm-2.93-2.31a4.66,4.66,0,0,1,.1-1.11,4.52,4.52,0,0,1,.3-.82H445a4.15,4.15,0,0,0-.15.78c0,.29,0,.64,0,1.06v6.79h-1.4Z"/><path d="M395.46,76.26h-1.69V75.1h3.14v5.13h-1.45Z"/><path d="M399.59,75.1h3.46a3.79,3.79,0,0,1,2.73.87,3.57,3.57,0,0,1,.91,2.65V84.3h-1.45V78.53a2.47,2.47,0,0,0-.51-1.73,2.22,2.22,0,0,0-1.66-.54h-2v8h-1.44Z"/><path d="M413.09,77.88a1.58,1.58,0,0,0-.44-1.19,1.66,1.66,0,0,0-1.2-.43h-3.1V75.1h3.14a3.64,3.64,0,0,1,1.64.34,2.51,2.51,0,0,1,1.05,1,3.18,3.18,0,0,1,.36,1.56V84.3h-1.45Z"/><path d="M417,76.32l-.65-.11V75.1h4.47v1.16h-2.38l1.31,8h-1.49Z"/><path d="M428,80.28l2.92,4h-1.62l-4.1-5.66a2,2,0,0,0-.84,1.8V84.3h-1.4V81a4.12,4.12,0,0,1,.4-1.95,2.64,2.64,0,0,1,1.26-1.16l-2-2.75h1.62L427.05,79l2.22-3.93h1.64Z"/><path d="M21.08,27.2V17.55l-2.9,1.07v-1.3l4.14-1.56h.23V27.2Z"/><path d="M26,28.18l4.75-12.35H32L27.23,28.18Z"/><path d="M36.69,27.2V17.55l-2.91,1.07v-1.3l4.14-1.56h.23V27.2Z"/><path d="M41.58,28.18l4.75-12.35h1.24L42.83,28.18Z"/><path d="M49,27.2v-1L52.72,22c.46-.52.82-.95,1.07-1.3a4,4,0,0,0,.52-.95,2.46,2.46,0,0,0,.16-.89,2.24,2.24,0,0,0-.24-1,1.77,1.77,0,0,0-.68-.73,2,2,0,0,0-1-.27,2.19,2.19,0,0,0-1.69.63,2.47,2.47,0,0,0-.58,1.7H48.77a3.74,3.74,0,0,1,.43-1.77,3.07,3.07,0,0,1,1.28-1.27,4.1,4.1,0,0,1,2-.46,4,4,0,0,1,1.83.38,2.77,2.77,0,0,1,1.18,1.06,3,3,0,0,1,.42,1.6,3.8,3.8,0,0,1-.58,1.93,12,12,0,0,1-1.55,2.07l-3,3.32h5.7V27.2Z"/><path d="M64.21,26.19a3.62,3.62,0,0,1-5.34,0,6.19,6.19,0,0,1-.93-3.83V20.61a6.07,6.07,0,0,1,.92-3.8,3.7,3.7,0,0,1,5.34,0,6.07,6.07,0,0,1,.92,3.8v1.74A6.3,6.3,0,0,1,64.21,26.19Zm-1.07-8.52a2,2,0,0,0-3.21,0,5.2,5.2,0,0,0-.53,2.69v2.22a5.33,5.33,0,0,0,.54,2.73,1.79,1.79,0,0,0,1.61.87,1.73,1.73,0,0,0,1.59-.86,5.46,5.46,0,0,0,.52-2.74V20.36A5.17,5.17,0,0,0,63.14,17.67Z"/><path d="M67,27.2v-1L70.7,22a15.07,15.07,0,0,0,1.07-1.3,4.05,4.05,0,0,0,.53-.95,2.68,2.68,0,0,0,.15-.89,2.37,2.37,0,0,0-.23-1,1.91,1.91,0,0,0-.68-.73,2,2,0,0,0-1.06-.27,2.15,2.15,0,0,0-1.68.63,2.42,2.42,0,0,0-.58,1.7H66.76a3.62,3.62,0,0,1,.43-1.77,3,3,0,0,1,1.27-1.27,4.13,4.13,0,0,1,2-.46,4,4,0,0,1,1.83.38,2.8,2.8,0,0,1,1.19,1.06,3.1,3.1,0,0,1,.41,1.6,3.88,3.88,0,0,1-.57,1.93,11.57,11.57,0,0,1-1.56,2.07l-3,3.32h5.71V27.2Z"/><path d="M83.65,24.55H82.08V27.2H80.62V24.55H75.44v-.84l5.08-7.88h1.56v7.55h1.57Zm-3-1.17V17.79l-.18.31-3.36,5.28Z"/><path d="M13.93,37.2h7.35v9.2H13.93Zm5.9,8V38.36H15.38v6.87Z"/><path d="M24.81,38.36H23.12V37.2h3.14v5.13H24.81Z"/><path d="M28,46.38l0-1.13a5.56,5.56,0,0,0,1.14.1,1.24,1.24,0,0,0,1-.36,1.74,1.74,0,0,0,.32-1.14V38.36H28.64V37.2H31.9V44a2.75,2.75,0,0,1-.62,1.93,2.37,2.37,0,0,1-1.8.66A6.52,6.52,0,0,1,28,46.38Z"/><path d="M36.14,44.77a9,9,0,0,0,1.57.5,7.51,7.51,0,0,0,1.58.18,5.73,5.73,0,0,0,2-.33,3,3,0,0,0,1.39-1,2.58,2.58,0,0,0,.51-1.63V37.2h1.4v5.44a3.4,3.4,0,0,1-.7,2.19A4.08,4.08,0,0,1,42,46.17a7.46,7.46,0,0,1-2.66.45A10.64,10.64,0,0,1,37,46.35a10.51,10.51,0,0,1-2.29-.79V37.2h1.41ZM38.78,43a4.58,4.58,0,0,0,.15-1.24V37.2h1.42v4.32a4.37,4.37,0,0,1-.2,1.38,2.57,2.57,0,0,1-.6,1l-1.2,0A1.85,1.85,0,0,0,38.78,43Z"/><path d="M52.81,44.77a8.83,8.83,0,0,0,1.58.5,7.35,7.35,0,0,0,1.57.18,5.73,5.73,0,0,0,2-.33,3,3,0,0,0,1.39-1,2.58,2.58,0,0,0,.51-1.63V37.2h1.41v5.44a3.46,3.46,0,0,1-.7,2.19,4.16,4.16,0,0,1-1.89,1.34,7.46,7.46,0,0,1-2.66.45,10.64,10.64,0,0,1-2.34-.27,10.51,10.51,0,0,1-2.29-.79V37.2h1.41ZM55.46,43a5,5,0,0,0,.14-1.24V37.2H57v4.32a4.37,4.37,0,0,1-.2,1.38,2.57,2.57,0,0,1-.6,1l-1.2,0A2,2,0,0,0,55.46,43Z"/><path d="M64.54,38.36H63.47V37.2H66v9.2H64.54Z"/><path d="M75.05,38.11,71.67,46.4H70.12l3.34-8h-5.4v-4H69.5v2.8h5.55Z"/><path d="M78.45,44.77a8.83,8.83,0,0,0,1.58.5,7.35,7.35,0,0,0,1.57.18,5.73,5.73,0,0,0,2-.33,3,3,0,0,0,1.39-1,2.58,2.58,0,0,0,.51-1.63V37.2h1.41v5.44a3.46,3.46,0,0,1-.7,2.19,4.16,4.16,0,0,1-1.89,1.34,7.46,7.46,0,0,1-2.66.45A11,11,0,0,1,77,45.56V37.2h1.41ZM81.1,43a5,5,0,0,0,.14-1.24V37.2h1.42v4.32a4.37,4.37,0,0,1-.2,1.38,2.57,2.57,0,0,1-.6,1l-1.2,0A2,2,0,0,0,81.1,43Z"/><path d="M16.75,57.27a3.53,3.53,0,0,1,.9,2.65V65.6H16.21V59.83a2.47,2.47,0,0,0-.51-1.73A2.21,2.21,0,0,0,14,57.56h-1.3a3.64,3.64,0,0,0-.41,1.08A6.16,6.16,0,0,0,12.17,60v3.1A2.72,2.72,0,0,1,11.56,65a2.24,2.24,0,0,1-1.75.66,6.87,6.87,0,0,1-.89-.07V64.44a4.26,4.26,0,0,0,.54,0,1.21,1.21,0,0,0,1-.36A1.62,1.62,0,0,0,10.75,63v-2.9a5.28,5.28,0,0,1,.19-1.42,3,3,0,0,1,.52-1.13H9.73V56.4H14A3.79,3.79,0,0,1,16.75,57.27Z"/><path d="M26.48,57.31,23.1,65.6H21.55l3.34-8h-5.4v-4h1.44v2.8h5.55Z"/><path d="M35.1,64.49V65.6H27.53V64.43h5v-4.6A2.39,2.39,0,0,0,32,58.1a2.39,2.39,0,0,0-1.74-.54H28V56.4h2.31a3.81,3.81,0,0,1,2.72.87,3.45,3.45,0,0,1,.92,2.6v4.5Z"/><path d="M40,64.46a3.07,3.07,0,0,0,1.36-.34,2.29,2.29,0,0,0,.89-.91,2.71,2.71,0,0,0,.32-1.38V57.56H36.89V56.4H44v5.4a3.91,3.91,0,0,1-.5,2,3.34,3.34,0,0,1-1.4,1.31A4.91,4.91,0,0,1,40,65.6Zm-2.93-2.31A4.58,4.58,0,0,1,37.17,61a4.52,4.52,0,0,1,.3-.82h1.19a4.15,4.15,0,0,0-.15.78c0,.29,0,.64,0,1.06v6.79H37.06Z"/><path d="M57.24,56.4v1.16H55.7v8H54.24v-8H49.87V56.4Z"/><path d="M65.58,56.4v5.51A4.13,4.13,0,0,1,65.07,64a3.29,3.29,0,0,1-1.44,1.32,4.85,4.85,0,0,1-2.14.45,9.28,9.28,0,0,1-3.28-.65l.35-1.08a8.24,8.24,0,0,0,2.45.59,3.44,3.44,0,0,1-.77-1.55L58.71,56.4h1.46l1.49,6.79c.07.31.14.58.21.8a2.74,2.74,0,0,0,.27.6,2.46,2.46,0,0,0,1.47-.88A2.75,2.75,0,0,0,64.14,62V56.4Z"/><path d="M68.85,57.56H67.78V56.4H70.3v9.2H68.85Z"/><path d="M73.75,59.75a3.62,3.62,0,0,1,.37-1.21,2.55,2.55,0,0,1,.66-.87l.16-.11,0,0c-.23,0-.52.11-.87.2s-.68.18-1,.28l-.34-1.09a13.21,13.21,0,0,1,2-.51,12.15,12.15,0,0,1,2.07-.19,3.83,3.83,0,0,1,2.84,1,4,4,0,0,1,1,2.91V65.6H76.89V64.44h2.34V60a2.78,2.78,0,0,0-.56-1.87,2,2,0,0,0-1.61-.64A1.61,1.61,0,0,0,75.8,58a2.81,2.81,0,0,0-.63,1.58l-.69,6H73.05Z"/><path d="M83.9,59.75a3.61,3.61,0,0,1,.36-1.21,2.57,2.57,0,0,1,.67-.87l.16-.11,0,0c-.23,0-.52.11-.88.2s-.67.18-1,.28l-.34-1.09a13.07,13.07,0,0,1,2-.51A12.15,12.15,0,0,1,87,56.23a3.81,3.81,0,0,1,2.84,1,3.94,3.94,0,0,1,1,2.91V65.6H87V64.44h2.35V60a2.78,2.78,0,0,0-.56-1.87,2,2,0,0,0-1.61-.64A1.61,1.61,0,0,0,86,58a2.81,2.81,0,0,0-.63,1.58l-.69,6H83.2Z"/><path d="M12.46,76.76H10.77V75.6h3.14v5.13H12.46Z"/><path d="M16.59,75.6h3.46a3.79,3.79,0,0,1,2.73.87,3.57,3.57,0,0,1,.91,2.65V84.8H22.24V79a2.47,2.47,0,0,0-.51-1.73,2.22,2.22,0,0,0-1.66-.54H18v8H16.58Z"/><path d="M30.09,78.38a1.62,1.62,0,0,0-.44-1.19,1.69,1.69,0,0,0-1.21-.43H25.35V75.6h3.14a3.57,3.57,0,0,1,1.63.34,2.4,2.4,0,0,1,1.05,1,3.08,3.08,0,0,1,.37,1.56V84.8H30.09Z"/><path d="M34,76.82l-.65-.11V75.6H37.8v1.16H35.41l1.31,8H35.23Z"/><path d="M45,80.78l2.92,4H46.25l-4.1-5.66a2,2,0,0,0-.84,1.8V84.8H39.9V81.46a4.12,4.12,0,0,1,.41-1.95,2.64,2.64,0,0,1,1.26-1.16l-2-2.75H41.2l2.85,3.93,2.22-3.93H47.9Z"/><path d="M60.46,75.6v1.16H58.92v8H57.47v-8H53.09V75.6Z"/><path d="M63,79a3.61,3.61,0,0,1,.36-1.21,2.45,2.45,0,0,1,.67-.87l.16-.11,0,0c-.23,0-.53.11-.88.2s-.67.18-1,.28L62,76.13a13.07,13.07,0,0,1,2-.51,12.23,12.23,0,0,1,2.07-.2,3.82,3.82,0,0,1,2.84,1,3.94,3.94,0,0,1,1,2.91V84.8H66.13V83.64h2.35V79.15a2.78,2.78,0,0,0-.56-1.87,2,2,0,0,0-1.61-.64,1.6,1.6,0,0,0-1.26.59,2.81,2.81,0,0,0-.63,1.58l-.69,6H62.3Z"/><path d="M79,75.6v5.51a4.16,4.16,0,0,1-.51,2.12A3.29,3.29,0,0,1,77,84.55a4.82,4.82,0,0,1-2.14.45,9.28,9.28,0,0,1-3.28-.65l.36-1.08a8.11,8.11,0,0,0,2.44.59,3.54,3.54,0,0,1-.77-1.55L72.08,75.6h1.46L75,82.39c.07.31.14.58.21.8a2.74,2.74,0,0,0,.27.6A2.46,2.46,0,0,0,77,82.91a2.75,2.75,0,0,0,.53-1.74V75.6Z"/><path d="M82.4,79a3.87,3.87,0,0,1,.37-1.21,2.45,2.45,0,0,1,.67-.87l.15-.11v0c-.24,0-.53.11-.88.2s-.68.18-1,.28l-.33-1.09a12.79,12.79,0,0,1,2-.51,12.23,12.23,0,0,1,2.07-.2,3.82,3.82,0,0,1,2.84,1,4,4,0,0,1,1,2.91V84.8H85.54V83.64h2.34V79.15a2.78,2.78,0,0,0-.55-1.87,2,2,0,0,0-1.61-.64,1.62,1.62,0,0,0-1.27.59,2.74,2.74,0,0,0-.62,1.58l-.7,6H81.7Z"/><path class="cls-4" d="M205,121.86v-1.62l3.68-3.89a9.71,9.71,0,0,0,1.12-1.46,2.29,2.29,0,0,0,.33-1.09,1.72,1.72,0,0,0-.37-1.16,1.33,1.33,0,0,0-1.05-.42,1.43,1.43,0,0,0-.84.24,1.53,1.53,0,0,0-.55.67,2.42,2.42,0,0,0-.18,1h-2.36a3.76,3.76,0,0,1,.49-1.9,3.62,3.62,0,0,1,1.4-1.37,4.27,4.27,0,0,1,2.08-.5,4.82,4.82,0,0,1,2,.39,2.77,2.77,0,0,1,1.27,1.11,3.5,3.5,0,0,1,.43,1.76,3.56,3.56,0,0,1-.3,1.43,6.26,6.26,0,0,1-.85,1.39,19.15,19.15,0,0,1-1.42,1.6l-1.87,2h4.78v1.9Z"/><path class="cls-4" d="M221.46,119.89a3.43,3.43,0,0,1-1.34,1.61,4.38,4.38,0,0,1-4.1,0,3.4,3.4,0,0,1-1.35-1.61,6.72,6.72,0,0,1-.49-2.72v-2a6.69,6.69,0,0,1,.48-2.72,3.42,3.42,0,0,1,1.35-1.6,4.38,4.38,0,0,1,4.1,0,3.46,3.46,0,0,1,1.34,1.6,6.69,6.69,0,0,1,.48,2.72v2A6.91,6.91,0,0,1,221.46,119.89Zm-2.27-7.06a1.36,1.36,0,0,0-2.26,0,3.86,3.86,0,0,0-.39,2v2.65a3.94,3.94,0,0,0,.39,2,1.28,1.28,0,0,0,1.14.61,1.26,1.26,0,0,0,1.13-.61,4.08,4.08,0,0,0,.37-2v-2.65A3.88,3.88,0,0,0,219.19,112.83Z"/><path class="cls-4" d="M235.4,125.11H233V114.4h-2.23a5.17,5.17,0,0,0-.34,1.9v.78a3,3,0,0,0,.84.08v1.64a4.77,4.77,0,0,1-.94.08,5.61,5.61,0,0,1-1.24-.14,3.55,3.55,0,0,1-1-.43v-1.19a6.94,6.94,0,0,1,.16-1.52,3.35,3.35,0,0,1,.45-1.2h-1v-1.91h7.72Z"/><path class="cls-4" d="M238.54,114.4h-1.47v-1.91H241v5.34h-2.46Z"/><path class="cls-4" d="M250.93,112.49v5.37a4.45,4.45,0,0,1-.57,2.31,3.64,3.64,0,0,1-1.6,1.43,5.65,5.65,0,0,1-2.4.48,10.44,10.44,0,0,1-3.71-.68l.5-1.79a9.4,9.4,0,0,0,2.14.58,2.68,2.68,0,0,1-.49-.61,2.5,2.5,0,0,1-.3-.72l-1.44-6.37h2.47l1.37,6.61a4.25,4.25,0,0,0,.32.94,2,2,0,0,0,.93-.77,2.47,2.47,0,0,0,.32-1.29v-5.49Z"/><path class="cls-4" d="M255.34,121.5a3.88,3.88,0,0,1-1.48-1.55,4.86,4.86,0,0,1-.55-2.3v-.57a3.93,3.93,0,0,1,.26-1.42,3.41,3.41,0,0,1,.65-1.15.62.62,0,0,1,.12-.12l0,0c-.19,0-.59.13-1.21.29l-.46-1.78a15.36,15.36,0,0,1,2.19-.44,18,18,0,0,1,2.34-.17,4.58,4.58,0,0,1,3.36,1.15,4.48,4.48,0,0,1,1.18,3.33v.92a4.85,4.85,0,0,1-.53,2.3,3.79,3.79,0,0,1-1.47,1.55,4.42,4.42,0,0,1-2.21.55A4.29,4.29,0,0,1,255.34,121.5Zm3.09-1.77a1.88,1.88,0,0,0,.61-.83,3.19,3.19,0,0,0,.22-1.24v-.88a3.31,3.31,0,0,0-.45-1.88,1.53,1.53,0,0,0-1.31-.65,1.45,1.45,0,0,0-1.29.69,3.67,3.67,0,0,0-.46,2v.75a3.39,3.39,0,0,0,.22,1.24,1.9,1.9,0,0,0,.62.83,1.54,1.54,0,0,0,.91.29A1.58,1.58,0,0,0,258.43,119.73Z"/><path d="M203.16,24.42V14.78l-2.91,1.07V14.54L204.39,13h.23V24.42Z"/><path d="M208.05,25.4l4.75-12.35H214L209.3,25.4Z"/><path d="M218.76,24.42V14.78l-2.91,1.07V14.54L220,13h.23V24.42Z"/><path d="M223.65,25.4l4.75-12.35h1.24L224.9,25.4Z"/><path d="M231.06,24.42v-1l3.73-4.15a15.44,15.44,0,0,0,1.07-1.3,4.05,4.05,0,0,0,.53-1,2.64,2.64,0,0,0,.15-.89,2.33,2.33,0,0,0-.23-1,1.87,1.87,0,0,0-.68-.74,2,2,0,0,0-1.06-.27,2.19,2.19,0,0,0-1.69.64,2.42,2.42,0,0,0-.57,1.69h-1.47a3.74,3.74,0,0,1,.43-1.77,3.11,3.11,0,0,1,1.28-1.26,4.1,4.1,0,0,1,2-.47,4.18,4.18,0,0,1,1.83.38,2.81,2.81,0,0,1,1.19,1.07,3.08,3.08,0,0,1,.41,1.59,3.91,3.91,0,0,1-.57,1.94,12.56,12.56,0,0,1-1.56,2.06l-3.05,3.32h5.7v1.17Z"/><path d="M246.28,23.41a3.18,3.18,0,0,1-2.66,1.17A3.21,3.21,0,0,1,241,23.41a6.15,6.15,0,0,1-.94-3.84V17.83a6.14,6.14,0,0,1,.92-3.8,3.7,3.7,0,0,1,5.34,0,6.07,6.07,0,0,1,.93,3.8v1.74A6.3,6.3,0,0,1,246.28,23.41Zm-1.07-8.52a2,2,0,0,0-3.21,0,5.22,5.22,0,0,0-.53,2.7V19.8a5.26,5.26,0,0,0,.55,2.74,1.76,1.76,0,0,0,1.6.87,1.73,1.73,0,0,0,1.59-.87,5.46,5.46,0,0,0,.52-2.74V17.59A5.24,5.24,0,0,0,245.21,14.89Z"/><path d="M249.05,24.42v-1l3.72-4.15a13.68,13.68,0,0,0,1.07-1.3,4.05,4.05,0,0,0,.53-1,2.64,2.64,0,0,0,.15-.89,2.2,2.2,0,0,0-.23-1,1.8,1.8,0,0,0-.68-.74,2,2,0,0,0-1.05-.27,2.18,2.18,0,0,0-1.69.64,2.38,2.38,0,0,0-.58,1.69h-1.46a3.62,3.62,0,0,1,.43-1.77,3.08,3.08,0,0,1,1.27-1.26,4.59,4.59,0,0,1,3.85-.09,2.75,2.75,0,0,1,1.19,1.07,3,3,0,0,1,.41,1.59,3.91,3.91,0,0,1-.57,1.94,11.52,11.52,0,0,1-1.56,2.06l-3,3.32h5.7v1.17Z"/><path d="M264.59,19.64a2.91,2.91,0,0,1,.46,1.61,3.34,3.34,0,0,1-.47,1.79,3.07,3.07,0,0,1-1.29,1.15,4.21,4.21,0,0,1-1.84.39,4.31,4.31,0,0,1-1.83-.37,3.09,3.09,0,0,1-1.3-1.09,3,3,0,0,1-.48-1.7h1.46a2,2,0,0,0,.26,1,1.7,1.7,0,0,0,.75.7,2.4,2.4,0,0,0,1.14.25,2.19,2.19,0,0,0,1.57-.54,2.09,2.09,0,0,0,.57-1.59,1.92,1.92,0,0,0-.64-1.56,2.76,2.76,0,0,0-1.77-.51h-1V18h1a2.73,2.73,0,0,0,1.23-.25,1.63,1.63,0,0,0,.75-.69,2,2,0,0,0,.25-1,2.06,2.06,0,0,0-.49-1.49,2,2,0,0,0-1.48-.52,2.28,2.28,0,0,0-1.07.25,1.75,1.75,0,0,0-.72.68,2,2,0,0,0-.26,1h-1.46a3,3,0,0,1,.44-1.59,3.08,3.08,0,0,1,1.24-1.13,3.86,3.86,0,0,1,1.83-.42,4.12,4.12,0,0,1,1.81.37,2.65,2.65,0,0,1,1.2,1.09,3.44,3.44,0,0,1,.43,1.75,2.47,2.47,0,0,1-.2.93,2.91,2.91,0,0,1-.6.89,3.18,3.18,0,0,1-1,.66A2.64,2.64,0,0,1,264.59,19.64Z"/><path d="M192.89,34.42v1.16h-1.54v8H189.9v-8h-4.38V34.42Z"/><path d="M201.23,34.42v5.52a4.12,4.12,0,0,1-.51,2.11,3.32,3.32,0,0,1-1.43,1.32,4.89,4.89,0,0,1-2.15.45,9.19,9.19,0,0,1-3.27-.65l.35-1.08a8.55,8.55,0,0,0,2.44.6,3.58,3.58,0,0,1-.77-1.56l-1.52-6.71h1.45l1.49,6.79a8.09,8.09,0,0,0,.21.8,3.78,3.78,0,0,0,.28.61,2.48,2.48,0,0,0,1.46-.89,2.71,2.71,0,0,0,.53-1.74V34.42Z"/><path d="M204.5,35.58h-1.07V34.42H206v9.2H204.5Z"/><path d="M209.41,37.77a3.55,3.55,0,0,1,.36-1.2,2.59,2.59,0,0,1,.67-.88l.15-.11v0c-.24,0-.53.11-.88.2s-.67.19-1,.29L208.4,35a12.79,12.79,0,0,1,2-.51,12.15,12.15,0,0,1,2.07-.19,3.82,3.82,0,0,1,2.84,1,4,4,0,0,1,1,2.9v5.48h-3.79V42.46h2.34V38a2.78,2.78,0,0,0-.55-1.87,2,2,0,0,0-1.61-.64,1.61,1.61,0,0,0-1.27.58,2.84,2.84,0,0,0-.62,1.58l-.7,6H208.7Z"/><path d="M219.56,37.77a3.55,3.55,0,0,1,.36-1.2,2.59,2.59,0,0,1,.67-.88l.15-.11v0c-.24,0-.53.11-.88.2s-.67.19-1,.29l-.33-1.1a12.79,12.79,0,0,1,2-.51,12.15,12.15,0,0,1,2.07-.19,3.82,3.82,0,0,1,2.84,1,4,4,0,0,1,1,2.9v5.48h-3.79V42.46H225V38a2.78,2.78,0,0,0-.55-1.87,2,2,0,0,0-1.61-.64,1.61,1.61,0,0,0-1.27.58,2.84,2.84,0,0,0-.62,1.58l-.7,6h-1.43Z"/><path d="M233,34.42h7.34v9.2H233Zm5.9,8V35.58h-4.46v6.87Z"/><path d="M243.91,35.58h-1.68V34.42h3.14v5.13h-1.46Z"/><path d="M248.74,35.58h-1.68V34.42h3.14v5.13h-1.46Z"/><path d="M259.36,35.29a3.54,3.54,0,0,1,.9,2.65v5.68h-1.45V37.86a2.48,2.48,0,0,0-.52-1.74,2.18,2.18,0,0,0-1.65-.54h-1.3a3.55,3.55,0,0,0-.41,1.09,5.54,5.54,0,0,0-.16,1.35v3.1a2.77,2.77,0,0,1-.6,1.93,2.27,2.27,0,0,1-1.75.65,7.13,7.13,0,0,1-.9-.07V42.47a4.63,4.63,0,0,0,.54,0,1.25,1.25,0,0,0,1-.35,1.65,1.65,0,0,0,.31-1.11V38.13a5.39,5.39,0,0,1,.19-1.42,3.12,3.12,0,0,1,.51-1.13h-1.72V34.42h4.29A3.83,3.83,0,0,1,259.36,35.29Z"/><path d="M261.91,43.61l0-1.13a6.54,6.54,0,0,0,1.14.1,1.22,1.22,0,0,0,1-.37,1.71,1.71,0,0,0,.32-1.13v-5.5h-1.81V34.42h3.26v6.77a2.69,2.69,0,0,1-.63,1.93,2.33,2.33,0,0,1-1.79.66A7.26,7.26,0,0,1,261.91,43.61Z"/><path d="M270.06,42a8.31,8.31,0,0,0,1.58.5,7.44,7.44,0,0,0,1.58.18,6,6,0,0,0,2-.32,3.05,3.05,0,0,0,1.39-1,2.58,2.58,0,0,0,.51-1.63V34.42h1.4v5.45a3.44,3.44,0,0,1-.7,2.19A4.23,4.23,0,0,1,276,43.4a7.73,7.73,0,0,1-2.66.44,10.64,10.64,0,0,1-2.34-.27,10.33,10.33,0,0,1-2.29-.79V34.42h1.4Zm2.65-1.74a4.71,4.71,0,0,0,.15-1.25V34.42h1.41v4.32a4.49,4.49,0,0,1-.19,1.39,2.53,2.53,0,0,1-.6,1l-1.21-.05A1.88,1.88,0,0,0,272.71,40.25Z"/><path d="M201.11,53.62v1.17h-1.54v8h-1.45v-8h-4.37V53.62Z"/><path d="M203.65,57a3.57,3.57,0,0,1,.37-1.2,2.7,2.7,0,0,1,.66-.88l.16-.1,0,0c-.23,0-.52.11-.87.2s-.68.19-1,.29l-.33-1.1a12.79,12.79,0,0,1,2-.51,12.15,12.15,0,0,1,2.07-.19,3.83,3.83,0,0,1,2.84,1,4,4,0,0,1,1,2.9v5.48h-3.78V61.66h2.34V57.18a2.78,2.78,0,0,0-.56-1.87,2,2,0,0,0-1.6-.64,1.61,1.61,0,0,0-1.27.58,2.88,2.88,0,0,0-.63,1.58l-.69,6H203Z"/><path d="M219.61,53.62v5.52a4,4,0,0,1-.52,2.11,3.32,3.32,0,0,1-1.43,1.32,4.89,4.89,0,0,1-2.15.45,9.23,9.23,0,0,1-3.27-.65l.35-1.08a8.53,8.53,0,0,0,2.45.6,3.49,3.49,0,0,1-.78-1.56l-1.52-6.71h1.45l1.49,6.79a5.87,5.87,0,0,0,.22.8,3.05,3.05,0,0,0,.27.61,2.48,2.48,0,0,0,1.46-.89,2.71,2.71,0,0,0,.53-1.74V53.62Z"/><path d="M223.06,57a3.55,3.55,0,0,1,.36-1.2,2.72,2.72,0,0,1,.67-.88l.16-.1,0,0c-.23,0-.53.11-.88.2s-.67.19-1,.29l-.34-1.1a13.07,13.07,0,0,1,2-.51,12.15,12.15,0,0,1,2.07-.19,3.82,3.82,0,0,1,2.84,1,3.92,3.92,0,0,1,1,2.9v5.48h-3.79V61.66h2.35V57.18a2.78,2.78,0,0,0-.56-1.87,2,2,0,0,0-1.61-.64,1.59,1.59,0,0,0-1.26.58,2.88,2.88,0,0,0-.63,1.58l-.69,6h-1.43Z"/><path d="M243,54.49a3.54,3.54,0,0,1,.9,2.65v5.68H242.5V57.06a2.48,2.48,0,0,0-.51-1.74,2.19,2.19,0,0,0-1.66-.53H239a3.64,3.64,0,0,0-.41,1.08,6.07,6.07,0,0,0-.15,1.35v3.1a2.77,2.77,0,0,1-.6,1.93,2.3,2.3,0,0,1-1.75.65,6.87,6.87,0,0,1-.9-.07V61.67a4.39,4.39,0,0,0,.54,0,1.24,1.24,0,0,0,1-.35,1.65,1.65,0,0,0,.31-1.11V57.33a5.84,5.84,0,0,1,.19-1.42,3.15,3.15,0,0,1,.52-1.12H236V53.62h4.29A3.79,3.79,0,0,1,243,54.49Z"/><path d="M252.77,54.54l-3.37,8.28h-1.56l3.34-8h-5.4v-4h1.44v2.8h5.55Z"/><path d="M261.39,61.71v1.11h-7.57V61.65h5v-4.6a2.36,2.36,0,0,0-.53-1.73,2.39,2.39,0,0,0-1.74-.53h-2.23V53.62h2.31a3.77,3.77,0,0,1,2.72.88,3.41,3.41,0,0,1,.92,2.59V61.6Z"/><path d="M266.29,61.68a2.93,2.93,0,0,0,1.35-.34,2.29,2.29,0,0,0,.9-.9,2.87,2.87,0,0,0,.32-1.38V54.79h-5.68V53.62h7.13V59a3.87,3.87,0,0,1-.5,2,3.37,3.37,0,0,1-1.4,1.32,4.76,4.76,0,0,1-2.12.48Zm-2.93-2.31a4.66,4.66,0,0,1,.1-1.11,4.81,4.81,0,0,1,.3-.82H265a3.73,3.73,0,0,0-.14.78,10.39,10.39,0,0,0-.05,1.07v6.78h-1.4Z"/><path d="M215.46,74h-1.69V72.82h3.14V78h-1.45Z"/><path d="M219.59,72.82h3.47a3.78,3.78,0,0,1,2.72.87,3.58,3.58,0,0,1,.91,2.65V82h-1.45V76.26a2.48,2.48,0,0,0-.51-1.74,2.22,2.22,0,0,0-1.66-.54h-2v8h-1.44Z"/><path d="M233.09,75.6a1.55,1.55,0,0,0-.44-1.18,1.62,1.62,0,0,0-1.2-.44h-3.1V72.82h3.14a3.64,3.64,0,0,1,1.64.34,2.47,2.47,0,0,1,1.05,1,3.14,3.14,0,0,1,.36,1.55V82h-1.45Z"/><path d="M237,74.05l-.65-.11V72.82h4.47V74h-2.38l1.31,8h-1.49Z"/><path d="M248,78l2.92,4h-1.62l-4.1-5.65a2,2,0,0,0-.84,1.79V82h-1.4V78.69a4.17,4.17,0,0,1,.4-2,2.58,2.58,0,0,1,1.26-1.15l-2-2.76h1.62l2.86,3.94,2.21-3.94h1.64Z"/></g></g></svg>