<svg id="Layer_1" data-name="Layer 1" xmlns="http://www.w3.org/2000/svg" xmlns:xlink="http://www.w3.org/1999/xlink" viewBox="0 0 1371.98 374.01"><defs><style>.cls-1,.cls-2,.cls-3,.cls-5,.cls-6,.cls-7{fill:none;}.cls-1{clip-rule:evenodd;}.cls-2,.cls-8{fill-rule:evenodd;}.cls-3,.cls-6{stroke:#2ec4b6;}.cls-3,.cls-5,.cls-6,.cls-7{stroke-miterlimit:8;}.cls-3,.cls-5{stroke-width:2.28px;}.cls-4{clip-path:url(#clip-path);}.cls-5,.cls-7{stroke:#e71d36;}.cls-6,.cls-7{stroke-width:0.96px;}.cls-8{fill:#e71d36;}</style><clipPath id="clip-path" transform="translate(-37.55 -41.22)"><polygon class="cls-1" points="81 354.53 1383 354.53 1383 91.95 81 91.95 81 354.53 81 354.53"/></clipPath></defs><line class="cls-3" x1="49.63" y1="202.85" x2="1342.54" y2="202.85"/><g class="cls-4"><line class="cls-3" x1="46.18" y1="177" x2="46.18" y2="228.71"/><g class="cls-4"><line class="cls-3" x1="1341.86" y1="177" x2="1341.86" y2="228.71"/><g class="cls-4"><line class="cls-5" x1="482.29" y1="95.98" x2="482.29" y2="227.83"/><g class="cls-4"><line class="cls-3" x1="912.93" y1="177" x2="912.93" y2="228.71"/><g class="cls-4"><line class="cls-5" x1="482.57" y1="286.45" x2="482.57" y2="310.59"/><g class="cls-4"><polygon class="cls-6" points="984.9 200.99 984.9 143.46 1133.29 96.7 1281.67 143.46 1281.67 200.99 984.9 200.99 984.9 200.99"/><g class="cls-4"><polygon class="cls-6" points="537.3 200.41 537.3 142.89 685.69 96.12 834.07 142.89 834.07 200.41 537.3 200.41 537.3 200.41"/><g class="cls-4"><polygon class="cls-6" points="124.75 200.41 124.75 142.73 273.14 95.84 421.52 142.73 421.52 200.41 124.75 200.41 124.75 200.41"/><g class="cls-4"><path class="cls-7" d="M145.07,218.93c-21.38-7.17-50.74-35.48-52.74-52.62-1.64-14,12.94-27.54,29.57-41.17" transform="translate(-37.55 -41.22)"/><polygon class="cls-8" points="84.37 83.91 69.39 80.64 95.53 74.86 84.47 99.24 84.37 83.91 84.37 83.91"/></g></g></g></g></g></g></g></g></g><path d="M1119.25,211.86V192l-6,2.21v-2.69l8.54-3.21h.47v23.59Z" transform="translate(-37.55 -41.22)"/><path d="M1151.18,200a4,4,0,0,0-4.68-4.67h-6.88v-2.4h7a7.92,7.92,0,0,1,5.63,1.8,7,7,0,0,1,1.91,5.35v11.83h-3Zm-11.53,5.43a9.36,9.36,0,0,1,.22-2.31,9.21,9.21,0,0,1,.62-1.7h2.44a13.5,13.5,0,0,0-.29,1.64c-.06.6-.09,1.33-.09,2.18v6.67h-2.9Z" transform="translate(-37.55 -41.22)"/><path d="M1163,211.91a18.4,18.4,0,0,1-3.19-.81l.58-2.24a18.9,18.9,0,0,0,2.87.65,17.42,17.42,0,0,0,2.62.22,6,6,0,0,0,4.08-1.33,4.84,4.84,0,0,0,1.43-3.74v-9.38h-7.6a7.92,7.92,0,0,0-.83,2.25,11.94,11.94,0,0,0-.32,2.71v1.45a3.39,3.39,0,0,0,.95.23c.4,0,.92.06,1.57.06v2.58a17.13,17.13,0,0,1-3.15-.23,8.46,8.46,0,0,1-2.28-.85l-.07-2.45a12.61,12.61,0,0,1,.41-3.18,8.26,8.26,0,0,1,1.12-2.57h-2.3v-2.4h15.48v11.21a8.93,8.93,0,0,1-1,4.49,6.62,6.62,0,0,1-2.91,2.71,10,10,0,0,1-4.33.89A19.29,19.29,0,0,1,1163,211.91Z" transform="translate(-37.55 -41.22)"/><path d="M1181.14,195.28h-2.21v-2.4h5.21v19h-3Z" transform="translate(-37.55 -41.22)"/><path d="M1196.35,209.51a6.19,6.19,0,0,0,2.79-.71,4.66,4.66,0,0,0,1.85-1.86,5.83,5.83,0,0,0,.66-2.85v-8.81h-11.71v-2.4h14.71V204a8,8,0,0,1-1,4.12,7,7,0,0,1-2.91,2.7,9.88,9.88,0,0,1-4.37,1Zm-6-4.77a9.24,9.24,0,0,1,.22-2.29,9.13,9.13,0,0,1,.62-1.69h2.44a10.09,10.09,0,0,0-.29,1.61q-.09.88-.09,2.19v14h-2.9Z" transform="translate(-37.55 -41.22)"/><path d="M1223.86,194.67q1.86,1.8,1.86,5.48v11.71h-3V200a5,5,0,0,0-1.06-3.58,4.52,4.52,0,0,0-3.41-1.11h-2.69a7.65,7.65,0,0,0-.84,2.23,12.39,12.39,0,0,0-.32,2.8v6.39a5.69,5.69,0,0,1-1.24,4,4.66,4.66,0,0,1-3.61,1.35,17,17,0,0,1-1.85-.14v-2.41a7.68,7.68,0,0,0,1.11.07,2.55,2.55,0,0,0,2-.73,3.41,3.41,0,0,0,.64-2.28v-6a11.64,11.64,0,0,1,.38-2.92,6.55,6.55,0,0,1,1.07-2.33h-3.57v-2.4h8.85C1220.75,192.88,1222.62,193.48,1223.86,194.67Z" transform="translate(-37.55 -41.22)"/><path d="M664.06,212.22v-2.13l7.69-8.55a31.7,31.7,0,0,0,2.2-2.69,8.23,8.23,0,0,0,1.09-2,5.41,5.41,0,0,0,.31-1.83,4.71,4.71,0,0,0-.48-2.14,3.64,3.64,0,0,0-1.4-1.51,4.13,4.13,0,0,0-2.18-.56,4.49,4.49,0,0,0-3.48,1.31,5,5,0,0,0-1.19,3.49h-3a7.55,7.55,0,0,1,.88-3.65,6.42,6.42,0,0,1,2.63-2.61,8.62,8.62,0,0,1,4.17-.95,8.49,8.49,0,0,1,3.77.78,5.65,5.65,0,0,1,2.45,2.2,6.22,6.22,0,0,1,.86,3.28,8,8,0,0,1-1.19,4A24.49,24.49,0,0,1,674,203l-6.29,6.85h11.77v2.42Z" transform="translate(-37.55 -41.22)"/><path d="M702.79,200.31a4,4,0,0,0-4.68-4.67h-6.88v-2.4h7a7.92,7.92,0,0,1,5.63,1.8,7,7,0,0,1,1.91,5.35v11.83h-3Zm-11.53,5.43a9.36,9.36,0,0,1,.22-2.31,9.21,9.21,0,0,1,.62-1.7h2.44a13.5,13.5,0,0,0-.29,1.64c-.06.6-.09,1.33-.09,2.18v6.67h-2.9Z" transform="translate(-37.55 -41.22)"/><path d="M714.64,212.27a19.35,19.35,0,0,1-3.19-.81l.58-2.24a18.9,18.9,0,0,0,2.87.65,17.42,17.42,0,0,0,2.62.22,6,6,0,0,0,4.08-1.34A4.8,4.8,0,0,0,723,205v-9.38h-7.6a7.92,7.92,0,0,0-.83,2.25,11.94,11.94,0,0,0-.32,2.71v1.45a3.39,3.39,0,0,0,1,.23c.4,0,.92.06,1.57.06v2.58a16.93,16.93,0,0,1-3.14-.23,8.4,8.4,0,0,1-2.29-.85l-.07-2.45a12.61,12.61,0,0,1,.41-3.18,8.16,8.16,0,0,1,1.12-2.57h-2.3v-2.4H726v11.21a8.83,8.83,0,0,1-1,4.49,6.62,6.62,0,0,1-2.91,2.71,10,10,0,0,1-4.33.89A19.29,19.29,0,0,1,714.64,212.27Z" transform="translate(-37.55 -41.22)"/><path d="M732.75,195.64h-2.21v-2.4h5.21v19h-3Z" transform="translate(-37.55 -41.22)"/><path d="M748,209.87a6.19,6.19,0,0,0,2.79-.71,4.66,4.66,0,0,0,1.85-1.86,5.83,5.83,0,0,0,.66-2.85v-8.81H741.55v-2.4h14.71v11.15a8,8,0,0,1-1,4.11,6.93,6.93,0,0,1-2.91,2.71,9.84,9.84,0,0,1-4.37,1Zm-6-4.77a9.24,9.24,0,0,1,.22-2.29,9.13,9.13,0,0,1,.62-1.69h2.45a9.05,9.05,0,0,0-.3,1.61q-.09.89-.09,2.19v14h-2.9Z" transform="translate(-37.55 -41.22)"/><path d="M775.47,195c1.24,1.2,1.86,3,1.86,5.47v11.72h-3V200.33a5,5,0,0,0-1.06-3.58,4.52,4.52,0,0,0-3.41-1.11h-2.69a7.65,7.65,0,0,0-.84,2.23,12.39,12.39,0,0,0-.32,2.8v6.39a5.69,5.69,0,0,1-1.24,4,4.65,4.65,0,0,1-3.61,1.35,15.15,15.15,0,0,1-1.85-.15v-2.4a7.68,7.68,0,0,0,1.11.07,2.55,2.55,0,0,0,2-.73,3.41,3.41,0,0,0,.64-2.28v-6a11.64,11.64,0,0,1,.38-2.92,6.47,6.47,0,0,1,1.07-2.33H761v-2.4h8.84C772.36,193.24,774.23,193.84,775.47,195Z" transform="translate(-37.55 -41.22)"/><path d="M262.57,202.35a6.07,6.07,0,0,1,.94,3.33,6.85,6.85,0,0,1-1,3.69,6.31,6.31,0,0,1-2.65,2.36,8.74,8.74,0,0,1-3.82.81,9.07,9.07,0,0,1-3.77-.77,6.42,6.42,0,0,1-2.68-2.25,6.12,6.12,0,0,1-1-3.5h3a4.21,4.21,0,0,0,.54,2.15,3.66,3.66,0,0,0,1.54,1.45,5.12,5.12,0,0,0,2.35.5,4.53,4.53,0,0,0,3.25-1.11,4.3,4.3,0,0,0,1.17-3.27,3.9,3.9,0,0,0-1.31-3.21,5.61,5.61,0,0,0-3.65-1.07h-2.13V199h2.13a5.54,5.54,0,0,0,2.53-.52,3.46,3.46,0,0,0,1.56-1.43,4.91,4.91,0,0,0-.51-5.18,4,4,0,0,0-3.05-1.06,4.71,4.71,0,0,0-2.21.5,3.72,3.72,0,0,0-1.48,1.41,4.12,4.12,0,0,0-.53,2.14h-3a6.15,6.15,0,0,1,.91-3.27,6.38,6.38,0,0,1,2.56-2.34,8,8,0,0,1,3.77-.85,8.73,8.73,0,0,1,3.74.75,5.67,5.67,0,0,1,2.47,2.25,7,7,0,0,1,.88,3.62,5.19,5.19,0,0,1-.4,1.9,5.8,5.8,0,0,1-1.24,1.84,6.25,6.25,0,0,1-2,1.37A5.47,5.47,0,0,1,262.57,202.35Z" transform="translate(-37.55 -41.22)"/><path d="M287.79,200.31a4,4,0,0,0-4.68-4.67h-6.88v-2.4h7a7.92,7.92,0,0,1,5.63,1.8,7,7,0,0,1,1.91,5.35v11.83h-3Zm-11.53,5.43a9.36,9.36,0,0,1,.22-2.31,9.21,9.21,0,0,1,.62-1.7h2.44a13.5,13.5,0,0,0-.29,1.64c-.06.6-.09,1.33-.09,2.18v6.67h-2.9Z" transform="translate(-37.55 -41.22)"/><path d="M299.64,212.27a19.35,19.35,0,0,1-3.19-.81l.58-2.24a18.9,18.9,0,0,0,2.87.65,17.42,17.42,0,0,0,2.62.22,6,6,0,0,0,4.08-1.34A4.8,4.8,0,0,0,308,205v-9.38h-7.6a7.92,7.92,0,0,0-.83,2.25,11.94,11.94,0,0,0-.32,2.71v1.45a3.39,3.39,0,0,0,1,.23c.4,0,.92.06,1.57.06v2.58a16.93,16.93,0,0,1-3.14-.23,8.4,8.4,0,0,1-2.29-.85l-.07-2.45a12.61,12.61,0,0,1,.41-3.18,8.16,8.16,0,0,1,1.12-2.57h-2.3v-2.4H311v11.21a8.83,8.83,0,0,1-1,4.49,6.62,6.62,0,0,1-2.91,2.71,10,10,0,0,1-4.33.89A19.29,19.29,0,0,1,299.64,212.27Z" transform="translate(-37.55 -41.22)"/><path d="M317.75,195.64h-2.21v-2.4h5.21v19h-3Z" transform="translate(-37.55 -41.22)"/><path d="M333,209.87a6.19,6.19,0,0,0,2.79-.71,4.66,4.66,0,0,0,1.85-1.86,5.83,5.83,0,0,0,.66-2.85v-8.81H326.55v-2.4h14.71v11.15a8,8,0,0,1-1,4.11,6.93,6.93,0,0,1-2.91,2.71,9.84,9.84,0,0,1-4.37,1Zm-6-4.77a9.24,9.24,0,0,1,.22-2.29,9.13,9.13,0,0,1,.62-1.69h2.45a9.05,9.05,0,0,0-.3,1.61q-.09.89-.09,2.19v14h-2.9Z" transform="translate(-37.55 -41.22)"/><path d="M360.47,195c1.24,1.2,1.86,3,1.86,5.47v11.72h-3V200.33a5,5,0,0,0-1.06-3.58,4.52,4.52,0,0,0-3.41-1.11h-2.69a7.65,7.65,0,0,0-.84,2.23,12.39,12.39,0,0,0-.32,2.8v6.39a5.69,5.69,0,0,1-1.24,4,4.65,4.65,0,0,1-3.61,1.35,15.15,15.15,0,0,1-1.85-.15v-2.4a7.68,7.68,0,0,0,1.11.07,2.55,2.55,0,0,0,2-.73,3.41,3.41,0,0,0,.64-2.28v-6a11.64,11.64,0,0,1,.38-2.92,6.47,6.47,0,0,1,1.07-2.33H346v-2.4h8.84C357.36,193.24,359.23,193.84,360.47,195Z" transform="translate(-37.55 -41.22)"/><path d="M193.7,62.55a7.49,7.49,0,0,1-2.08,2.68l-1.71-1.16a9.51,9.51,0,0,0,1.19-2.23,6.88,6.88,0,0,0,.41-2.38V57h2.94v2.39A7.4,7.4,0,0,1,193.7,62.55Z" transform="translate(-37.55 -41.22)"/><path d="M206.7,47.31a3.24,3.24,0,0,0-.91-2.44,3.4,3.4,0,0,0-2.49-.9h-6.38v-2.4h6.48a7.44,7.44,0,0,1,3.36.71,5,5,0,0,1,2.17,2,6.44,6.44,0,0,1,.75,3.2v13h-3Z" transform="translate(-37.55 -41.22)"/><path d="M223.28,51.8l5,7.24v1.51h-14V58.14h10.2L213.1,41.57h3.36l5.06,7.64,4.21-7.64h3.37Z" transform="translate(-37.55 -41.22)"/><path d="M239.47,58.2a6,6,0,0,0,2.79-.71,4.6,4.6,0,0,0,1.85-1.86,5.82,5.82,0,0,0,.67-2.84V44H233.06v-2.4h14.71V52.72a8,8,0,0,1-1,4.12,7,7,0,0,1-2.9,2.71,9.89,9.89,0,0,1-4.38,1Zm-6-4.77a9.24,9.24,0,0,1,.22-2.29,9.13,9.13,0,0,1,.62-1.69h2.45a9.05,9.05,0,0,0-.3,1.61q-.09.88-.09,2.19v14h-2.9Z" transform="translate(-37.55 -41.22)"/><path d="M267,43.37q1.86,1.8,1.86,5.47V60.55h-3l0-11.89a5.12,5.12,0,0,0-1.05-3.58A4.54,4.54,0,0,0,261.39,44H258.7a7.47,7.47,0,0,0-.85,2.23,12.39,12.39,0,0,0-.31,2.8v6.4a5.69,5.69,0,0,1-1.24,4,4.66,4.66,0,0,1-3.61,1.35,14.94,14.94,0,0,1-1.86-.14v-2.4a9.84,9.84,0,0,0,1.12.06,2.57,2.57,0,0,0,2-.72,3.4,3.4,0,0,0,.64-2.29v-6A11.29,11.29,0,0,1,255,46.3,6.38,6.38,0,0,1,256.07,44h-3.56v-2.4h8.85Q265.13,41.57,267,43.37Z" transform="translate(-37.55 -41.22)"/><path d="M275.5,48.48a7.65,7.65,0,0,1,.75-2.49,5.29,5.29,0,0,1,1.38-1.79L278,44l0,0c-.48.09-1.09.23-1.81.42s-1.39.38-2,.58l-.7-2.25a27.55,27.55,0,0,1,4.19-1.05,25,25,0,0,1,4.27-.4,7.89,7.89,0,0,1,5.86,2c1.35,1.35,2,3.35,2,6V60.55H282v-2.4h4.84V48.9a5.75,5.75,0,0,0-1.14-3.85,4.17,4.17,0,0,0-3.33-1.32,3.29,3.29,0,0,0-2.6,1.2,5.86,5.86,0,0,0-1.29,3.26L277,60.55h-2.95Z" transform="translate(-37.55 -41.22)"/><path d="M316.71,43.37c1.24,1.2,1.87,3,1.87,5.47V60.55h-3V48.66a5.07,5.07,0,0,0-1.06-3.58A4.52,4.52,0,0,0,311.11,44h-2.69a7.76,7.76,0,0,0-.84,2.23,12.39,12.39,0,0,0-.32,2.8v6.4a5.65,5.65,0,0,1-1.24,4,4.65,4.65,0,0,1-3.61,1.35,14.8,14.8,0,0,1-1.85-.14v-2.4a9.53,9.53,0,0,0,1.11.06,2.58,2.58,0,0,0,2-.72,3.46,3.46,0,0,0,.64-2.29v-6a11.72,11.72,0,0,1,.38-2.93A6.55,6.55,0,0,1,305.8,44h-3.56v-2.4h8.84C313.6,41.57,315.47,42.17,316.71,43.37Z" transform="translate(-37.55 -41.22)"/><path d="M324.84,44h-2.2v-2.4h5.2v19h-3Z" transform="translate(-37.55 -41.22)"/><path d="M341.5,47.31a3.24,3.24,0,0,0-.91-2.44,3.37,3.37,0,0,0-2.49-.9h-6.38v-2.4h6.48a7.51,7.51,0,0,1,3.37.71,5,5,0,0,1,2.17,2,6.44,6.44,0,0,1,.75,3.2v13h-3Z" transform="translate(-37.55 -41.22)"/><path d="M351.32,44h-3.48v-2.4h6.47V52.16h-3Z" transform="translate(-37.55 -41.22)"/><path d="M362.72,57.19a18.48,18.48,0,0,0,3.26,1,15.81,15.81,0,0,0,3.25.37,12.16,12.16,0,0,0,4.15-.67,6.18,6.18,0,0,0,2.86-2,5.35,5.35,0,0,0,1.05-3.36v-11h2.9V52.8a7.11,7.11,0,0,1-1.44,4.52,8.74,8.74,0,0,1-3.89,2.77,15.56,15.56,0,0,1-5.48.91,22.43,22.43,0,0,1-9.56-2.19V41.57h2.9Zm5.47-3.61a9.8,9.8,0,0,0,.3-2.57V41.57h2.92v8.91a9.06,9.06,0,0,1-.4,2.86,5.28,5.28,0,0,1-1.24,2.07l-2.48-.09A4.2,4.2,0,0,0,368.19,53.58Z" transform="translate(-37.55 -41.22)"/><path d="M397.06,48.65A4.86,4.86,0,0,0,396,45.08,4.9,4.9,0,0,0,392.37,44h-6.88v-2.4h7a7.87,7.87,0,0,1,5.63,1.81,7,7,0,0,1,1.91,5.35V60.55h-3Zm-11.53,5.43a10.12,10.12,0,0,1,.21-2.32,10,10,0,0,1,.62-1.7h2.45a12.24,12.24,0,0,0-.29,1.65c-.06.6-.09,1.32-.09,2.17v6.67h-2.9Z" transform="translate(-37.55 -41.22)"/><path d="M87.71,86.91a3.24,3.24,0,0,0-.91-2.44,3.4,3.4,0,0,0-2.49-.9H77.93v-2.4h6.48a7.51,7.51,0,0,1,3.37.71,5,5,0,0,1,2.16,2.05,6.44,6.44,0,0,1,.75,3.2v13h-3Z" transform="translate(-37.55 -41.22)"/><path d="M97,83.57H94.77v-2.4H100v19H97Z" transform="translate(-37.55 -41.22)"/><path d="M109.42,99.56a6.72,6.72,0,0,1-2.66-2.68,8.06,8.06,0,0,1-1-4V81.17h3V93.1a5.82,5.82,0,0,0,.57,2.63A4.17,4.17,0,0,0,111,97.49a4.56,4.56,0,0,0,2.41.63,4.51,4.51,0,0,0,2.39-.63,4.17,4.17,0,0,0,1.61-1.76A5.82,5.82,0,0,0,118,93.1V86.73a3.68,3.68,0,0,0-.69-2.39,2.34,2.34,0,0,0-1.94-.85,5.53,5.53,0,0,0-2.32.61l-.47-2a7.06,7.06,0,0,1,1.78-.82,6.4,6.4,0,0,1,1.88-.3,4.67,4.67,0,0,1,2.54.67,4.25,4.25,0,0,1,1.64,1.9,6.93,6.93,0,0,1,.57,2.93v6.4a8.17,8.17,0,0,1-.94,4,6.7,6.7,0,0,1-2.65,2.68,8.77,8.77,0,0,1-7.94,0Z" transform="translate(-37.55 -41.22)"/><path d="M129.64,100.2a19.33,19.33,0,0,1-3.19-.8l.58-2.24a20.19,20.19,0,0,0,2.87.65,18.85,18.85,0,0,0,2.62.22,6,6,0,0,0,4.08-1.34A4.82,4.82,0,0,0,138,93V83.57h-7.6a7.92,7.92,0,0,0-.83,2.25,12,12,0,0,0-.32,2.72V90a3.42,3.42,0,0,0,.95.22c.4,0,.92.07,1.57.07v2.57a16.1,16.1,0,0,1-3.14-.23,8.4,8.4,0,0,1-2.29-.85l-.07-2.44a12.63,12.63,0,0,1,.41-3.19,8.37,8.37,0,0,1,1.12-2.57h-2.3v-2.4H141V92.39a8.79,8.79,0,0,1-1,4.48,6.57,6.57,0,0,1-2.91,2.71,9.82,9.82,0,0,1-4.33.9A19.36,19.36,0,0,1,129.64,100.2Z" transform="translate(-37.55 -41.22)"/><path d="M166.07,88.25A4.86,4.86,0,0,0,165,84.68a4.92,4.92,0,0,0-3.58-1.11H154.5v-2.4h7A7.89,7.89,0,0,1,167.16,83a7,7,0,0,1,1.91,5.35v11.82h-3Zm-11.54,5.43a8.14,8.14,0,0,1,.84-4h2.45a10.85,10.85,0,0,0-.29,1.65c-.06.6-.1,1.32-.1,2.17v6.67h-2.9Z" transform="translate(-37.55 -41.22)"/><path d="M187.82,83q1.86,1.8,1.86,5.47v11.71h-3l0-11.89a5.07,5.07,0,0,0-1.06-3.58,4.51,4.51,0,0,0-3.4-1.11h-2.7a7.76,7.76,0,0,0-.84,2.23,12.39,12.39,0,0,0-.32,2.8V95a5.65,5.65,0,0,1-1.24,4,4.65,4.65,0,0,1-3.61,1.35,14.8,14.8,0,0,1-1.85-.14v-2.4a9.66,9.66,0,0,0,1.11.06,2.58,2.58,0,0,0,2-.72,3.4,3.4,0,0,0,.64-2.29v-6a11.72,11.72,0,0,1,.38-2.93,6.55,6.55,0,0,1,1.07-2.33h-3.56v-2.4h8.84C184.7,81.17,186.57,81.77,187.82,83Z" transform="translate(-37.55 -41.22)"/><path d="M195.94,83.57h-2.2v-2.4h5.2v19h-3Z" transform="translate(-37.55 -41.22)"/><path d="M218,81.17V92.55A8.51,8.51,0,0,1,217,96.91a6.84,6.84,0,0,1-3,2.72,10,10,0,0,1-4.43.93,19,19,0,0,1-6.75-1.34l.73-2.22a17.8,17.8,0,0,0,5,1.22A7.16,7.16,0,0,1,207,95l-3.14-13.84h3l3.08,14a15.61,15.61,0,0,0,.43,1.66,5.65,5.65,0,0,0,.57,1.24,5.1,5.1,0,0,0,3-1.82,5.67,5.67,0,0,0,1.09-3.59V81.17Z" transform="translate(-37.55 -41.22)"/><path d="M225.16,88.08a7.19,7.19,0,0,1,.75-2.49,5.4,5.4,0,0,1,1.37-1.79l.33-.23,0,0c-.49.09-1.09.23-1.82.42s-1.39.38-2,.58l-.69-2.25a27.25,27.25,0,0,1,4.19-1,25,25,0,0,1,4.27-.4,7.91,7.91,0,0,1,5.86,2,8.21,8.21,0,0,1,2,6v11.31h-7.81v-2.4h4.83V88.5a5.75,5.75,0,0,0-1.14-3.85A4.15,4.15,0,0,0,232,83.33a3.33,3.33,0,0,0-2.61,1.2,5.86,5.86,0,0,0-1.29,3.26l-1.43,12.36h-2.95Z" transform="translate(-37.55 -41.22)"/><path d="M247.7,96.79a18.22,18.22,0,0,0,3.26,1,15.73,15.73,0,0,0,3.25.37,12.06,12.06,0,0,0,4.14-.67,6.22,6.22,0,0,0,2.87-2,5.35,5.35,0,0,0,1-3.36v-11h2.9V92.4a7.11,7.11,0,0,1-1.44,4.52,8.77,8.77,0,0,1-3.9,2.77,15.5,15.5,0,0,1-5.47.91,22.18,22.18,0,0,1-4.84-.55,21.79,21.79,0,0,1-4.72-1.64V81.17h2.9Zm5.46-3.61a9.37,9.37,0,0,0,.31-2.57V81.17h2.92v8.91a9,9,0,0,1-.41,2.86A5.28,5.28,0,0,1,254.74,95l-2.48-.09A4,4,0,0,0,253.16,93.18Z" transform="translate(-37.55 -41.22)"/><path d="M272.29,88.08a7.65,7.65,0,0,1,.75-2.49,5.29,5.29,0,0,1,1.38-1.79l.32-.23,0,0c-.49.09-1.09.23-1.82.42s-1.39.38-2,.58l-.69-2.25a27.25,27.25,0,0,1,4.19-1,25,25,0,0,1,4.27-.4,7.89,7.89,0,0,1,5.86,2c1.35,1.35,2,3.35,2,6v11.31h-7.82v-2.4h4.83V88.5a5.75,5.75,0,0,0-1.14-3.85,4.15,4.15,0,0,0-3.32-1.32,3.33,3.33,0,0,0-2.61,1.2,5.86,5.86,0,0,0-1.29,3.26l-1.43,12.36h-3Z" transform="translate(-37.55 -41.22)"/><path d="M311.15,88.25a4,4,0,0,0-4.68-4.68h-6.89v-2.4h7A7.87,7.87,0,0,1,312.24,83a7,7,0,0,1,1.91,5.35v11.82h-3Zm-11.53,5.43a7.85,7.85,0,0,1,.84-4h2.44a14,14,0,0,0-.29,1.65c-.06.6-.09,1.32-.09,2.17v6.67h-2.9Z" transform="translate(-37.55 -41.22)"/><path d="M323,100.2a19.33,19.33,0,0,1-3.19-.8l.58-2.24a20.19,20.19,0,0,0,2.87.65,18.85,18.85,0,0,0,2.62.22A6,6,0,0,0,330,96.69,4.82,4.82,0,0,0,331.39,93V83.57h-7.6a7.92,7.92,0,0,0-.83,2.25,12,12,0,0,0-.32,2.72V90a3.42,3.42,0,0,0,.95.22c.4,0,.92.07,1.57.07v2.57a16.29,16.29,0,0,1-3.15-.23,8.46,8.46,0,0,1-2.28-.85l-.07-2.44a12.63,12.63,0,0,1,.41-3.19,8.37,8.37,0,0,1,1.12-2.57h-2.3v-2.4h15.48V92.39a8.89,8.89,0,0,1-1,4.48,6.57,6.57,0,0,1-2.91,2.71,9.82,9.82,0,0,1-4.33.9A19.26,19.26,0,0,1,323,100.2Z" transform="translate(-37.55 -41.22)"/><path d="M341.11,83.57H338.9v-2.4h5.21v19h-3Z" transform="translate(-37.55 -41.22)"/><path d="M356.32,97.8a6.06,6.06,0,0,0,2.79-.71A4.66,4.66,0,0,0,361,95.23a5.81,5.81,0,0,0,.66-2.84V83.57H349.91v-2.4h14.71V92.32a8,8,0,0,1-1,4.12,6.91,6.91,0,0,1-2.9,2.71,9.87,9.87,0,0,1-4.37,1Zm-6-4.77a9.24,9.24,0,0,1,.22-2.29,9.13,9.13,0,0,1,.62-1.69h2.44a9.08,9.08,0,0,0-.29,1.61q-.09.89-.09,2.19v14h-2.9Z" transform="translate(-37.55 -41.22)"/><path d="M383.83,83q1.86,1.8,1.86,5.47v11.71h-3V88.26a5.12,5.12,0,0,0-1.06-3.58,4.52,4.52,0,0,0-3.41-1.11h-2.69a7.76,7.76,0,0,0-.84,2.23,12.39,12.39,0,0,0-.32,2.8V95a5.65,5.65,0,0,1-1.24,4,4.66,4.66,0,0,1-3.61,1.35,14.8,14.8,0,0,1-1.85-.14v-2.4a9.53,9.53,0,0,0,1.11.06,2.58,2.58,0,0,0,2-.72,3.46,3.46,0,0,0,.64-2.29v-6a11.28,11.28,0,0,1,.38-2.93,6.39,6.39,0,0,1,1.07-2.33h-3.57v-2.4h8.85Q382,81.17,383.83,83Z" transform="translate(-37.55 -41.22)"/><path d="M402.1,88.25A4.86,4.86,0,0,0,401,84.68a4.92,4.92,0,0,0-3.58-1.11h-6.88v-2.4h7A7.9,7.9,0,0,1,403.19,83a7,7,0,0,1,1.9,5.35v11.82h-3Zm-11.54,5.43a9.51,9.51,0,0,1,.22-2.32,9.21,9.21,0,0,1,.62-1.7h2.45a10.85,10.85,0,0,0-.29,1.65,19.19,19.19,0,0,0-.1,2.17v6.67h-2.9Z" transform="translate(-37.55 -41.22)"/><path d="M411.75,88.08a7.65,7.65,0,0,1,.75-2.49,5.29,5.29,0,0,1,1.38-1.79l.32-.23,0,0c-.49.09-1.09.23-1.82.42s-1.39.38-2,.58l-.69-2.25a27.25,27.25,0,0,1,4.19-1,25,25,0,0,1,4.27-.4,7.89,7.89,0,0,1,5.86,2c1.35,1.35,2,3.35,2,6v11.31h-7.82v-2.4H423V88.5a5.75,5.75,0,0,0-1.14-3.85,4.15,4.15,0,0,0-3.32-1.32,3.33,3.33,0,0,0-2.61,1.2,5.86,5.86,0,0,0-1.29,3.26l-1.43,12.36H410.3Z" transform="translate(-37.55 -41.22)"/><path d="M450.62,88.25a4.82,4.82,0,0,0-1.12-3.57,4.89,4.89,0,0,0-3.57-1.11h-6.88v-2.4h7A7.87,7.87,0,0,1,451.7,83a7,7,0,0,1,1.91,5.35v11.82h-3Zm-11.54,5.43a9.51,9.51,0,0,1,.22-2.32,9.21,9.21,0,0,1,.62-1.7h2.45a10.85,10.85,0,0,0-.29,1.65,19.19,19.19,0,0,0-.1,2.17v6.67h-2.9Z" transform="translate(-37.55 -41.22)"/><path d="M456.38,100.23V97.48a7,7,0,0,0,.94.06,5.53,5.53,0,0,0,3.77-1.41,6.11,6.11,0,0,0,1.85-3.45V83.57h-4.28v-2.4h7.23V91a13.22,13.22,0,0,0,.31,2.9l1.32,6.28H464.7l-1.11-5.31h-.12a6.07,6.07,0,0,1-1.08,2.69,6.6,6.6,0,0,1-2.26,2,6.17,6.17,0,0,1-3,.75A3.63,3.63,0,0,1,456.38,100.23Z" transform="translate(-37.55 -41.22)"/><path d="M473.19,83.57h-3.48v-2.4h6.48V91.76h-3Z" transform="translate(-37.55 -41.22)"/><path d="M489.53,86.91a3.24,3.24,0,0,0-.91-2.44,3.4,3.4,0,0,0-2.49-.9h-6.38v-2.4h6.48a7.44,7.44,0,0,1,3.36.71,5,5,0,0,1,2.17,2.05,6.44,6.44,0,0,1,.75,3.2v13h-3Z" transform="translate(-37.55 -41.22)"/><path d="M497.91,81.17h7.14q3.76,0,5.62,1.8t1.87,5.47v11.71h-3V88.26a5.12,5.12,0,0,0-1.06-3.58,4.57,4.57,0,0,0-3.42-1.11h-4.19l0,16.58h-3Z" transform="translate(-37.55 -41.22)"/><path d="M1259.44,291.33H1256v-2.4h6.47v10.59h-3Z" transform="translate(-37.55 -41.22)"/><path d="M1275.78,294.67a3.28,3.28,0,0,0-.91-2.44,3.4,3.4,0,0,0-2.49-.9H1266v-2.4h6.47a7.51,7.51,0,0,1,3.37.71,4.89,4.89,0,0,1,2.17,2.05,6.44,6.44,0,0,1,.75,3.2v13h-3Z" transform="translate(-37.55 -41.22)"/><path d="M1297.8,305.62v2.29h-15.6v-2.42h10.32V296a4,4,0,0,0-4.69-4.67h-4.59v-2.4H1288a7.85,7.85,0,0,1,5.61,1.8,7,7,0,0,1,1.9,5.35v9.3Z" transform="translate(-37.55 -41.22)"/><path d="M1314.79,288.93v11.38a8.47,8.47,0,0,1-1.06,4.35,6.8,6.8,0,0,1-3,2.73,10,10,0,0,1-4.43.92,19,19,0,0,1-6.75-1.33l.73-2.23a17.51,17.51,0,0,0,5,1.23,7.22,7.22,0,0,1-1.6-3.21l-3.14-13.84h3l3.08,14a15.61,15.61,0,0,0,.43,1.66,5.87,5.87,0,0,0,.57,1.24,5.1,5.1,0,0,0,3-1.82,5.67,5.67,0,0,0,1.09-3.59V288.93Z" transform="translate(-37.55 -41.22)"/><path d="M1334.64,307.91V288l-6,2.21v-2.69l8.54-3.21h.47v23.59Z" transform="translate(-37.55 -41.22)"/><path d="M1360.1,298.13a5.76,5.76,0,0,1,1.08,3.43,6.51,6.51,0,0,1-1,3.6,6.15,6.15,0,0,1-2.67,2.29,9,9,0,0,1-3.81.78,9.07,9.07,0,0,1-3.83-.78,6.15,6.15,0,0,1-2.67-2.29,6.54,6.54,0,0,1-1-3.6,5.91,5.91,0,0,1,1-3.45,6.44,6.44,0,0,1,2.89-2.3,6.06,6.06,0,0,1-2.5-2.15,5.54,5.54,0,0,1-.9-3.1,6.54,6.54,0,0,1,.88-3.46,5.67,5.67,0,0,1,2.46-2.21,8.09,8.09,0,0,1,3.59-.76,8,8,0,0,1,3.57.76,5.79,5.79,0,0,1,2.45,2.22,6.51,6.51,0,0,1,.89,3.45,5.54,5.54,0,0,1-.92,3.11,6.24,6.24,0,0,1-2.51,2.16A6.65,6.65,0,0,1,1360.1,298.13Zm-3.12,6.54a4.19,4.19,0,0,0,1.18-3.17,4.76,4.76,0,0,0-.56-2.31,4,4,0,0,0-1.59-1.57,4.7,4.7,0,0,0-2.33-.57,4.6,4.6,0,0,0-2.33.57,3.82,3.82,0,0,0-1.54,1.57,4.8,4.8,0,0,0-.54,2.31,4.19,4.19,0,0,0,1.18,3.17,5.21,5.21,0,0,0,6.53,0ZM1351.67,287a3.56,3.56,0,0,0-1.38,1.42,4.49,4.49,0,0,0-.49,2.15,4.44,4.44,0,0,0,.48,2.11,3.51,3.51,0,0,0,1.38,1.4,4.19,4.19,0,0,0,2.06.5,4.11,4.11,0,0,0,2-.5,3.42,3.42,0,0,0,1.37-1.4,4.44,4.44,0,0,0,.49-2.11,4.36,4.36,0,0,0-.5-2.09,3.55,3.55,0,0,0-1.37-1.45,3.91,3.91,0,0,0-2-.52A4.12,4.12,0,0,0,1351.67,287Z" transform="translate(-37.55 -41.22)"/><path d="M1386.93,290.82l-7,17.09h-3.2l6.88-16.58H1372.5v-8.17h3v5.77h11.44Z" transform="translate(-37.55 -41.22)"/><path d="M1392.49,291.33H1389v-2.4h6.48v10.59h-3Z" transform="translate(-37.55 -41.22)"/><path d="M1398.4,308v-2.75a6.81,6.81,0,0,0,.93.06,5.51,5.51,0,0,0,3.77-1.41,6.16,6.16,0,0,0,1.86-3.45v-9.11h-4.29v-2.4h7.24v9.8a13.85,13.85,0,0,0,.3,2.9l1.32,6.28h-2.82l-1.11-5.32h-.11a6.06,6.06,0,0,1-1.08,2.7,6.64,6.64,0,0,1-2.27,2,6.11,6.11,0,0,1-3,.75A4.41,4.41,0,0,1,1398.4,308Z" transform="translate(-37.55 -41.22)"/><path d="M878,291.44h-3.48V289H881v10.59h-3Z" transform="translate(-37.55 -41.22)"/><path d="M894.37,294.77a3.26,3.26,0,0,0-.91-2.44,3.39,3.39,0,0,0-2.49-.89h-6.38V289h6.48a7.44,7.44,0,0,1,3.36.71,5,5,0,0,1,2.17,2.05,6.46,6.46,0,0,1,.75,3.21v13h-3Z" transform="translate(-37.55 -41.22)"/><path d="M916.4,305.73V308H900.8V305.6h10.31v-9.49a4,4,0,0,0-4.69-4.67h-4.59V289h4.75a7.88,7.88,0,0,1,5.62,1.81,7.06,7.06,0,0,1,1.89,5.35v9.3Z" transform="translate(-37.55 -41.22)"/><path d="M933.38,289v11.38a8.41,8.41,0,0,1-1.06,4.36,6.78,6.78,0,0,1-3,2.72,10,10,0,0,1-4.42.93,19.06,19.06,0,0,1-6.76-1.34l.73-2.22a17.14,17.14,0,0,0,5,1.22,7.27,7.27,0,0,1-1.59-3.2L919.22,289h3l3.08,14a16,16,0,0,0,.44,1.66,6.08,6.08,0,0,0,.56,1.24,5.12,5.12,0,0,0,3-1.82,5.66,5.66,0,0,0,1.09-3.6V289Z" transform="translate(-37.55 -41.22)"/><path d="M953.23,308v-19.9l-6,2.2v-2.69l8.54-3.2h.46V308Z" transform="translate(-37.55 -41.22)"/><path d="M976.17,285.56a7.72,7.72,0,0,1,2.46,3.47,13.37,13.37,0,0,1,.79,4.68v1.11a23.27,23.27,0,0,1-.84,6.52,9.15,9.15,0,0,1-3.31,4.8q-2.46,1.91-7,1.91h-.31v-2.52h.31q4.44,0,6.23-2.13a9.21,9.21,0,0,0,1.92-5.7,7.07,7.07,0,0,1-2.27,1.81,6.51,6.51,0,0,1-6.51-.46,6.75,6.75,0,0,1-2.25-2.91,10.39,10.39,0,0,1,.11-7.92A6.73,6.73,0,0,1,968,285.3a7.12,7.12,0,0,1,4-1.07A6.68,6.68,0,0,1,976.17,285.56Zm-1.61,11.25a5.65,5.65,0,0,0,1.86-2.31v-1.18a9.66,9.66,0,0,0-.61-3.57,5.31,5.31,0,0,0-1.65-2.29,3.63,3.63,0,0,0-2.24-.78,3.89,3.89,0,0,0-2.32.71,4.52,4.52,0,0,0-1.5,2,7.4,7.4,0,0,0-.51,2.83,7.8,7.8,0,0,0,.47,2.71,4.77,4.77,0,0,0,1.44,2.05,3.56,3.56,0,0,0,2.33.78A4.55,4.55,0,0,0,974.56,296.81Z" transform="translate(-37.55 -41.22)"/><path d="M1005.52,290.92l-7,17.1h-3.21l6.88-16.58H991.1v-8.17h3V289h11.44Z" transform="translate(-37.55 -41.22)"/><path d="M1011.08,291.44h-3.48V289h6.48v10.59h-3Z" transform="translate(-37.55 -41.22)"/><path d="M1017,308.1v-2.76a6.79,6.79,0,0,0,.94.07,5.65,5.65,0,0,0,3.77-1.41,6.2,6.2,0,0,0,1.85-3.46v-9.1h-4.29V289h7.24v9.8a13.78,13.78,0,0,0,.3,2.9l1.33,6.29h-2.82l-1.11-5.32h-.12a6.07,6.07,0,0,1-1.08,2.69,6.53,6.53,0,0,1-2.26,2,6.28,6.28,0,0,1-3,.74A4.75,4.75,0,0,1,1017,308.1Z" transform="translate(-37.55 -41.22)"/><path d="M439,291.44h-3.48V289H442v10.59h-3Z" transform="translate(-37.55 -41.22)"/><path d="M455.37,294.77a3.26,3.26,0,0,0-.91-2.44,3.39,3.39,0,0,0-2.49-.89h-6.38V289h6.48a7.44,7.44,0,0,1,3.36.71,5,5,0,0,1,2.17,2.05,6.46,6.46,0,0,1,.75,3.21v13h-3Z" transform="translate(-37.55 -41.22)"/><path d="M477.4,305.73V308H461.8V305.6h10.31v-9.49a4,4,0,0,0-4.69-4.67h-4.59V289h4.75a7.88,7.88,0,0,1,5.62,1.81,7.06,7.06,0,0,1,1.89,5.35v9.3Z" transform="translate(-37.55 -41.22)"/><path d="M494.38,289v11.38a8.41,8.41,0,0,1-1.06,4.36,6.78,6.78,0,0,1-3,2.72,10,10,0,0,1-4.42.93,19.06,19.06,0,0,1-6.76-1.34l.73-2.22a17.14,17.14,0,0,0,5,1.22,7.27,7.27,0,0,1-1.59-3.2L480.22,289h3l3.08,14a13.85,13.85,0,0,0,.44,1.66,6.08,6.08,0,0,0,.56,1.24,5.12,5.12,0,0,0,3-1.82,5.66,5.66,0,0,0,1.09-3.6V289Z" transform="translate(-37.55 -41.22)"/><path d="M507.43,308v-2.13l7.69-8.56a30.28,30.28,0,0,0,2.2-2.68,8.27,8.27,0,0,0,1.09-2,5.34,5.34,0,0,0,.32-1.83,4.7,4.7,0,0,0-.49-2.13,3.64,3.64,0,0,0-1.4-1.51,4,4,0,0,0-2.17-.56,4.46,4.46,0,0,0-3.48,1.3,5,5,0,0,0-1.2,3.5h-3a7.51,7.51,0,0,1,.89-3.66,6.43,6.43,0,0,1,2.62-2.6,9.54,9.54,0,0,1,8-.18,5.83,5.83,0,0,1,2.45,2.2,6.34,6.34,0,0,1,.85,3.29,8.07,8.07,0,0,1-1.18,4,24.59,24.59,0,0,1-3.22,4.26l-6.28,6.85h11.76V308Z" transform="translate(-37.55 -41.22)"/><path d="M538.81,305.93a6.55,6.55,0,0,1-5.49,2.41,6.66,6.66,0,0,1-5.51-2.42c-1.28-1.61-1.93-4.25-1.93-7.91v-3.59q0-5.49,1.91-7.84a7.62,7.62,0,0,1,11,0q1.91,2.35,1.91,7.84V298C540.71,301.68,540.07,304.32,538.81,305.93Zm-2.21-17.58a4,4,0,0,0-6.6,0q-1.11,1.71-1.11,5.56v4.56a10.91,10.91,0,0,0,1.13,5.64,3.66,3.66,0,0,0,3.3,1.8,3.57,3.57,0,0,0,3.29-1.78,11.31,11.31,0,0,0,1.08-5.66v-4.56Q537.69,290,536.6,288.35Z" transform="translate(-37.55 -41.22)"/><path d="M566.52,290.92l-7,17.1h-3.21l6.88-16.58H552.1v-8.17h3V289h11.44Z" transform="translate(-37.55 -41.22)"/><path d="M572.08,291.44H568.6V289h6.47v10.59h-3Z" transform="translate(-37.55 -41.22)"/><path d="M578,308.1v-2.76a6.79,6.79,0,0,0,.94.07A5.65,5.65,0,0,0,582.7,304a6.2,6.2,0,0,0,1.85-3.46v-9.1h-4.29V289h7.24v9.8a13.78,13.78,0,0,0,.3,2.9l1.33,6.29h-2.82l-1.12-5.32h-.11a6.07,6.07,0,0,1-1.08,2.69,6.53,6.53,0,0,1-2.26,2,6.28,6.28,0,0,1-3,.74A4.68,4.68,0,0,1,578,308.1Z" transform="translate(-37.55 -41.22)"/><path d="M41,291.44H37.55V289H44v10.59H41Z" transform="translate(-37.55 -41.22)"/><path d="M57.37,294.77a3.26,3.26,0,0,0-.91-2.44,3.39,3.39,0,0,0-2.49-.89H47.59V289h6.48a7.44,7.44,0,0,1,3.36.71,5,5,0,0,1,2.17,2.05,6.46,6.46,0,0,1,.75,3.21v13h-3Z" transform="translate(-37.55 -41.22)"/><path d="M79.4,305.73V308H63.8V305.6H74.11v-9.49a4,4,0,0,0-4.69-4.67H64.83V289h4.75a7.88,7.88,0,0,1,5.62,1.81,7.06,7.06,0,0,1,1.89,5.35v9.3Z" transform="translate(-37.55 -41.22)"/><path d="M96.38,289v11.38a8.41,8.41,0,0,1-1.06,4.36,6.78,6.78,0,0,1-3,2.72,10,10,0,0,1-4.42.93,19.06,19.06,0,0,1-6.76-1.34l.73-2.22a17.14,17.14,0,0,0,5,1.22,7.27,7.27,0,0,1-1.59-3.2L82.22,289h3l3.08,14a13.85,13.85,0,0,0,.44,1.66,6.08,6.08,0,0,0,.56,1.24,5.12,5.12,0,0,0,3-1.82,5.66,5.66,0,0,0,1.09-3.6V289Z" transform="translate(-37.55 -41.22)"/><path d="M109.43,308v-2.13l7.69-8.56a30.28,30.28,0,0,0,2.2-2.68,8.27,8.27,0,0,0,1.09-2,5.34,5.34,0,0,0,.32-1.83,4.7,4.7,0,0,0-.49-2.13,3.64,3.64,0,0,0-1.4-1.51,4,4,0,0,0-2.17-.56,4.46,4.46,0,0,0-3.48,1.3,5,5,0,0,0-1.2,3.5h-3a7.51,7.51,0,0,1,.89-3.66,6.43,6.43,0,0,1,2.62-2.6,9.54,9.54,0,0,1,8-.18,5.83,5.83,0,0,1,2.45,2.2,6.34,6.34,0,0,1,.85,3.29,8.07,8.07,0,0,1-1.18,4,24.59,24.59,0,0,1-3.22,4.26l-6.28,6.85h11.76V308Z" transform="translate(-37.55 -41.22)"/><path d="M134.78,308v-19.9l-6,2.2v-2.69l8.54-3.2h.47V308Z" transform="translate(-37.55 -41.22)"/><path d="M168.52,290.92l-7,17.1h-3.21l6.88-16.58H154.1v-8.17h3V289h11.44Z" transform="translate(-37.55 -41.22)"/><path d="M174.08,291.44H170.6V289h6.47v10.59h-3Z" transform="translate(-37.55 -41.22)"/><path d="M180,308.1v-2.76a6.79,6.79,0,0,0,.94.07A5.65,5.65,0,0,0,184.7,304a6.2,6.2,0,0,0,1.85-3.46v-9.1h-4.29V289h7.24v9.8a13.78,13.78,0,0,0,.3,2.9l1.33,6.29h-2.82l-1.12-5.32h-.11a6.07,6.07,0,0,1-1.08,2.69,6.53,6.53,0,0,1-2.26,2,6.28,6.28,0,0,1-3,.74A4.68,4.68,0,0,1,180,308.1Z" transform="translate(-37.55 -41.22)"/><path d="M457.26,408.52v-2.13l7.69-8.55a34.26,34.26,0,0,0,2.21-2.69,8.52,8.52,0,0,0,1.08-2,5.42,5.42,0,0,0,.32-1.83,4.62,4.62,0,0,0-.49-2.14,3.7,3.7,0,0,0-1.4-1.51,4.12,4.12,0,0,0-2.17-.56,4.47,4.47,0,0,0-3.48,1.31,5,5,0,0,0-1.2,3.5h-3a7.57,7.57,0,0,1,.89-3.66,6.37,6.37,0,0,1,2.62-2.6,9.54,9.54,0,0,1,7.95-.18,5.7,5.7,0,0,1,2.45,2.2,6.23,6.23,0,0,1,.85,3.29,8.07,8.07,0,0,1-1.18,4,25,25,0,0,1-3.22,4.27l-6.28,6.84h11.76v2.42Z" transform="translate(-37.55 -41.22)"/><path d="M488.64,406.43a6.55,6.55,0,0,1-5.49,2.41,6.65,6.65,0,0,1-5.51-2.41c-1.28-1.62-1.93-4.25-1.93-7.92v-3.59q0-5.48,1.91-7.83a7.62,7.62,0,0,1,11,0q1.9,2.36,1.91,7.83v3.59C490.54,402.19,489.9,404.83,488.64,406.43Zm-2.21-17.58a4,4,0,0,0-6.6,0q-1.11,1.71-1.11,5.56V399a11,11,0,0,0,1.13,5.65,3.66,3.66,0,0,0,3.3,1.8,3.59,3.59,0,0,0,3.29-1.78,11.35,11.35,0,0,0,1.08-5.67v-4.56C487.52,391.84,487.16,390,486.43,388.85Z" transform="translate(-37.55 -41.22)"/><path d="M517.25,415.22h-3V391.94h-6.51a8.17,8.17,0,0,0-.83,2.29,11.92,11.92,0,0,0-.33,2.74v2.19a3.24,3.24,0,0,0,1,.22,13.23,13.23,0,0,0,1.56.07V402a16,16,0,0,1-3.14-.24,8.34,8.34,0,0,1-2.3-.84l-.05-3.18a11.63,11.63,0,0,1,.38-3.2,8,8,0,0,1,1.15-2.63h-2.31v-2.4h14.36Z" transform="translate(-37.55 -41.22)"/><path d="M524.54,391.94h-3.49v-2.4h6.48v10.59h-3Z" transform="translate(-37.55 -41.22)"/><path d="M546.3,389.54v11.38a8.47,8.47,0,0,1-1,4.35,6.83,6.83,0,0,1-3,2.73,10.09,10.09,0,0,1-4.42.92,19,19,0,0,1-6.75-1.33l.72-2.23a17.5,17.5,0,0,0,5,1.23,7.27,7.27,0,0,1-1.6-3.21l-3.14-13.84h3l3.07,14a15.38,15.38,0,0,0,.44,1.66,6.39,6.39,0,0,0,.56,1.24,5.18,5.18,0,0,0,3-1.82,5.66,5.66,0,0,0,1.08-3.59V389.54Z" transform="translate(-37.55 -41.22)"/><path d="M555.82,407.79a7.54,7.54,0,0,1-2.83-3.06,10,10,0,0,1-1-4.57v-1.94a9.08,9.08,0,0,1,.35-2.46,8.28,8.28,0,0,1,1-2.2,4.65,4.65,0,0,1,1.38-1.49.69.69,0,0,1,.23-.13l0-.05a30.61,30.61,0,0,0-3.4.79l-.58-2.25a29.44,29.44,0,0,1,4.25-.91,32,32,0,0,1,4.37-.34,9.41,9.41,0,0,1,4.55,1,7.15,7.15,0,0,1,2.94,3,10,10,0,0,1,1,4.67v2.27a10,10,0,0,1-1,4.57,7.45,7.45,0,0,1-2.82,3.06,8.1,8.1,0,0,1-4.21,1.09A8,8,0,0,1,555.82,407.79Zm6.81-2.21a5,5,0,0,0,1.79-2.17,8,8,0,0,0,.62-3.24v-2.25a8,8,0,0,0-.63-3.31,4.86,4.86,0,0,0-1.82-2.16,5.1,5.1,0,0,0-2.78-.75,4.24,4.24,0,0,0-2.52.76,5,5,0,0,0-1.7,2.21,9.15,9.15,0,0,0-.63,3.39v2.11a7.8,7.8,0,0,0,.63,3.24,4.89,4.89,0,0,0,1.76,2.17,4.91,4.91,0,0,0,5.28,0Z" transform="translate(-37.55 -41.22)"/></svg>