<svg xmlns="http://www.w3.org/2000/svg" viewBox="0 0 647 90.11"><defs><style>.cls-1,.cls-2,.cls-3{fill:none;stroke-miterlimit:8;}.cls-1{stroke:#2ec4b6;stroke-width:2px;}.cls-2{stroke:#e71d36;stroke-width:2.28px;}.cls-3{stroke:#fff;}.cls-4{fill:#e71d36;}</style></defs><g id="Layer_2" data-name="Layer 2"><g id="base"><line class="cls-1" x1="51" y1="1" x2="593" y2="1"/><line class="cls-1" x1="592" x2="592" y2="11"/><line class="cls-1" x1="413.13" y1="0.38" x2="413.13" y2="11.38"/><line class="cls-1" x1="51.13" y1="0.38" x2="51.13" y2="11.38"/><line class="cls-2" x1="233" y1="11" x2="233" y2="1"/><line class="cls-2" x1="233" y1="64" x2="233" y2="54"/><line class="cls-3" y1="12" x2="647" y2="12"/></g><g id="example_2" data-name="example 2"><path d="M563.06,27.4V17.75l-2.91,1.07v-1.3L564.29,16h.23V27.4Z"/><path d="M568,28.38,572.7,16h1.24L569.2,28.38Z"/><path d="M578.66,27.4V17.75l-2.91,1.07v-1.3L579.89,16h.23V27.4Z"/><path d="M583.55,28.38,588.3,16h1.24L584.8,28.38Z"/><path d="M591,27.4v-1l3.73-4.15a13.68,13.68,0,0,0,1.07-1.3,4.05,4.05,0,0,0,.53-1,2.68,2.68,0,0,0,.15-.89,2.37,2.37,0,0,0-.23-1,1.91,1.91,0,0,0-.68-.73,2,2,0,0,0-1.06-.27,2.15,2.15,0,0,0-1.68.63,2.42,2.42,0,0,0-.58,1.7h-1.46a3.62,3.62,0,0,1,.43-1.77,3,3,0,0,1,1.27-1.27,4.63,4.63,0,0,1,3.85-.08,2.8,2.8,0,0,1,1.19,1.06,3.1,3.1,0,0,1,.41,1.6,3.88,3.88,0,0,1-.57,1.93,11.57,11.57,0,0,1-1.56,2.07l-3,3.32h5.71V27.4Z"/><path d="M606.18,26.39a3.61,3.61,0,0,1-5.33,0,6.12,6.12,0,0,1-.94-3.83V20.81a6.07,6.07,0,0,1,.93-3.8,3.21,3.21,0,0,1,2.66-1.14A3.25,3.25,0,0,1,606.18,17a6.14,6.14,0,0,1,.92,3.8v1.74A6.3,6.3,0,0,1,606.18,26.39Zm-1.07-8.52a2,2,0,0,0-3.2,0,5.09,5.09,0,0,0-.54,2.69v2.22a5.21,5.21,0,0,0,.55,2.73,1.77,1.77,0,0,0,1.6.87,1.73,1.73,0,0,0,1.59-.86,5.44,5.44,0,0,0,.53-2.74V20.56A5.18,5.18,0,0,0,605.11,17.87Z"/><path d="M609,27.4v-1l3.73-4.15a15.44,15.44,0,0,0,1.07-1.3,4,4,0,0,0,.52-1,2.46,2.46,0,0,0,.16-.89,2.24,2.24,0,0,0-.24-1,1.77,1.77,0,0,0-.68-.73,2,2,0,0,0-1-.27,2.19,2.19,0,0,0-1.69.63,2.42,2.42,0,0,0-.58,1.7h-1.46a3.62,3.62,0,0,1,.43-1.77,3.11,3.11,0,0,1,1.27-1.27,4.66,4.66,0,0,1,3.86-.08,2.77,2.77,0,0,1,1.18,1.06,3,3,0,0,1,.42,1.6,3.8,3.8,0,0,1-.58,1.93,11.57,11.57,0,0,1-1.56,2.07l-3,3.32h5.7V27.4Z"/><path d="M621.24,27.4V17.75l-2.91,1.07v-1.3L622.47,16h.23V27.4Z"/><path d="M556.76,38.56h-1.69V37.4h3.14v5.13h-1.45Z"/><path d="M564.68,40.18a1.58,1.58,0,0,0-.44-1.18,1.66,1.66,0,0,0-1.21-.44h-3.09V37.4h3.14a3.6,3.6,0,0,1,1.63.34,2.4,2.4,0,0,1,1,1,3.18,3.18,0,0,1,.37,1.56V46.6h-1.45Z"/><path d="M575.36,45.49V46.6H567.8V45.43h5v-4.6a2,2,0,0,0-2.28-2.27H568.3V37.4h2.3a3.81,3.81,0,0,1,2.72.87,3.41,3.41,0,0,1,.92,2.6v4.5Z"/><path d="M583.59,37.4v5.51a4.13,4.13,0,0,1-.51,2.12,3.29,3.29,0,0,1-1.44,1.32,4.82,4.82,0,0,1-2.14.45,9.19,9.19,0,0,1-3.27-.65l.35-1.08a8.11,8.11,0,0,0,2.44.59,3.54,3.54,0,0,1-.77-1.55l-1.52-6.71h1.45l1.49,6.79c.07.31.14.58.21.8a3.32,3.32,0,0,0,.28.6,2.47,2.47,0,0,0,1.46-.88,2.75,2.75,0,0,0,.53-1.74V37.4Z"/><path d="M593.22,46.6V37L590.31,38v-1.3l4.14-1.56h.23V46.6Z"/><path d="M605.57,41.86a2.84,2.84,0,0,1,.52,1.66,3.09,3.09,0,0,1-.48,1.74,2.94,2.94,0,0,1-1.29,1.12,4.4,4.4,0,0,1-1.85.38,4.45,4.45,0,0,1-1.86-.38,2.92,2.92,0,0,1-1.29-1.11,3.2,3.2,0,0,1-.47-1.75,2.87,2.87,0,0,1,.51-1.67,3.06,3.06,0,0,1,1.4-1.12,2.87,2.87,0,0,1-1.21-1,2.61,2.61,0,0,1-.44-1.5,3.13,3.13,0,0,1,.43-1.68,2.74,2.74,0,0,1,1.19-1.07,3.9,3.9,0,0,1,1.74-.37,3.83,3.83,0,0,1,1.73.37,2.87,2.87,0,0,1,1.19,1.07,3.13,3.13,0,0,1,.43,1.68,2.69,2.69,0,0,1-.44,1.5,3,3,0,0,1-1.22,1.05A3.34,3.34,0,0,1,605.57,41.86ZM604.05,45a2.05,2.05,0,0,0,.58-1.54,2.3,2.3,0,0,0-.28-1.12,1.94,1.94,0,0,0-.77-.76,2.31,2.31,0,0,0-1.13-.28,2.28,2.28,0,0,0-1.13.28,1.89,1.89,0,0,0-.75.76,2.4,2.4,0,0,0-.26,1.12,2,2,0,0,0,.58,1.54,2.54,2.54,0,0,0,3.16,0Zm-2.57-8.55a1.65,1.65,0,0,0-.67.69,2.16,2.16,0,0,0-.24,1,2.19,2.19,0,0,0,.23,1,1.63,1.63,0,0,0,.67.68,2.11,2.11,0,0,0,2,0,1.63,1.63,0,0,0,.67-.68,2.19,2.19,0,0,0,.23-1,2.09,2.09,0,0,0-.24-1,1.68,1.68,0,0,0-.67-.7,1.86,1.86,0,0,0-1-.26A2,2,0,0,0,601.48,36.48Z"/><path d="M618.57,38.31,615.2,46.6h-1.56l3.34-8h-5.4v-4H613v2.8h5.55Z"/><path d="M621.27,38.56h-1.69V37.4h3.14v5.13h-1.45Z"/><path d="M624.13,46.64V45.3a3.23,3.23,0,0,0,.46,0,2.63,2.63,0,0,0,1.82-.68,3,3,0,0,0,.9-1.67V38.56h-2.08V37.4h3.51v4.75a6.46,6.46,0,0,0,.15,1.4l.64,3.05h-1.37L627.63,44h-.06a3,3,0,0,1-.52,1.31,3.31,3.31,0,0,1-1.1,1,3,3,0,0,1-1.45.36A1.79,1.79,0,0,1,624.13,46.64Z"/><path d="M384.06,27.4V17.75l-2.91,1.07v-1.3L385.29,16h.23V27.4Z"/><path d="M389,28.38,393.7,16h1.24L390.2,28.38Z"/><path d="M399.66,27.4V17.75l-2.91,1.07v-1.3L400.89,16h.23V27.4Z"/><path d="M404.55,28.38,409.3,16h1.24L405.8,28.38Z"/><path d="M412,27.4v-1l3.73-4.15a13.68,13.68,0,0,0,1.07-1.3,4.05,4.05,0,0,0,.53-1,2.68,2.68,0,0,0,.15-.89,2.37,2.37,0,0,0-.23-1,1.91,1.91,0,0,0-.68-.73,2,2,0,0,0-1.06-.27,2.15,2.15,0,0,0-1.68.63,2.42,2.42,0,0,0-.58,1.7h-1.46a3.62,3.62,0,0,1,.43-1.77,3,3,0,0,1,1.27-1.27,4.63,4.63,0,0,1,3.85-.08,2.8,2.8,0,0,1,1.19,1.06,3.1,3.1,0,0,1,.41,1.6,3.88,3.88,0,0,1-.57,1.93,11.57,11.57,0,0,1-1.56,2.07l-3,3.32h5.71V27.4Z"/><path d="M427.18,26.39a3.61,3.61,0,0,1-5.33,0,6.12,6.12,0,0,1-.94-3.83V20.81a6.07,6.07,0,0,1,.93-3.8,3.21,3.21,0,0,1,2.66-1.14A3.25,3.25,0,0,1,427.18,17a6.14,6.14,0,0,1,.92,3.8v1.74A6.3,6.3,0,0,1,427.18,26.39Zm-1.07-8.52a2,2,0,0,0-3.2,0,5.09,5.09,0,0,0-.54,2.69v2.22a5.21,5.21,0,0,0,.55,2.73,1.77,1.77,0,0,0,1.6.87,1.73,1.73,0,0,0,1.59-.86,5.44,5.44,0,0,0,.53-2.74V20.56A5.18,5.18,0,0,0,426.11,17.87Z"/><path d="M430,27.4v-1l3.73-4.15a15.44,15.44,0,0,0,1.07-1.3,4,4,0,0,0,.52-1,2.46,2.46,0,0,0,.16-.89,2.24,2.24,0,0,0-.24-1,1.77,1.77,0,0,0-.68-.73,2,2,0,0,0-1.05-.27,2.19,2.19,0,0,0-1.69.63,2.42,2.42,0,0,0-.58,1.7h-1.46a3.62,3.62,0,0,1,.43-1.77,3.11,3.11,0,0,1,1.27-1.27,4.66,4.66,0,0,1,3.86-.08,2.77,2.77,0,0,1,1.18,1.06,3,3,0,0,1,.42,1.6,3.8,3.8,0,0,1-.58,1.93,11.57,11.57,0,0,1-1.56,2.07l-3,3.32h5.7V27.4Z"/><path d="M438.94,27.4v-1l3.73-4.15a15.44,15.44,0,0,0,1.07-1.3,4.46,4.46,0,0,0,.53-1,2.68,2.68,0,0,0,.15-.89,2.24,2.24,0,0,0-.24-1,1.77,1.77,0,0,0-.68-.73,2,2,0,0,0-1.05-.27,2.19,2.19,0,0,0-1.69.63,2.47,2.47,0,0,0-.58,1.7h-1.46a3.74,3.74,0,0,1,.43-1.77,3.07,3.07,0,0,1,1.28-1.27,4.1,4.1,0,0,1,2-.46,4.18,4.18,0,0,1,1.83.38,2.77,2.77,0,0,1,1.18,1.06,3,3,0,0,1,.42,1.6,3.8,3.8,0,0,1-.58,1.93,12,12,0,0,1-1.55,2.07l-3.05,3.32h5.7V27.4Z"/><path d="M377.76,38.56h-1.69V37.4h3.14v5.13h-1.45Z"/><path d="M385.68,40.18a1.58,1.58,0,0,0-.44-1.18,1.66,1.66,0,0,0-1.21-.44h-3.09V37.4h3.14a3.6,3.6,0,0,1,1.63.34,2.4,2.4,0,0,1,1.05,1,3.18,3.18,0,0,1,.37,1.56V46.6h-1.45Z"/><path d="M396.36,45.49V46.6H388.8V45.43h5v-4.6a2,2,0,0,0-2.28-2.27H389.3V37.4h2.3a3.81,3.81,0,0,1,2.72.87,3.41,3.41,0,0,1,.92,2.6v4.5Z"/><path d="M404.59,37.4v5.51a4.13,4.13,0,0,1-.51,2.12,3.29,3.29,0,0,1-1.44,1.32,4.82,4.82,0,0,1-2.14.45,9.19,9.19,0,0,1-3.27-.65l.35-1.08a8.11,8.11,0,0,0,2.44.59,3.54,3.54,0,0,1-.77-1.55l-1.52-6.71h1.45l1.49,6.79c.07.31.14.58.21.8a3.32,3.32,0,0,0,.28.6,2.47,2.47,0,0,0,1.46-.88,2.75,2.75,0,0,0,.53-1.74V37.4Z"/><path d="M414.22,46.6V37L411.31,38v-1.3l4.14-1.56h.23V46.6Z"/><path d="M425.34,35.71a3.85,3.85,0,0,1,1.2,1.69,6.62,6.62,0,0,1,.37,2.26v.54a11.45,11.45,0,0,1-.4,3.17,4.5,4.5,0,0,1-1.6,2.32,5.47,5.47,0,0,1-3.41.93h-.15V45.4h.15a3.76,3.76,0,0,0,3-1,4.46,4.46,0,0,0,.93-2.76,3.59,3.59,0,0,1-1.1.88,3,3,0,0,1-1.35.32,2.88,2.88,0,0,1-1.8-.55,3.18,3.18,0,0,1-1.09-1.41,5,5,0,0,1,.05-3.84,3.3,3.3,0,0,1,1.2-1.41,3.4,3.4,0,0,1,1.92-.52A3.21,3.21,0,0,1,425.34,35.71Zm-.78,5.46a2.8,2.8,0,0,0,.9-1.12v-.57a4.5,4.5,0,0,0-.3-1.73,2.48,2.48,0,0,0-.79-1.11,1.74,1.74,0,0,0-1.09-.38,1.84,1.84,0,0,0-1.12.34,2.19,2.19,0,0,0-.73.95,3.49,3.49,0,0,0-.25,1.37,3.81,3.81,0,0,0,.23,1.32,2.24,2.24,0,0,0,.7,1,1.73,1.73,0,0,0,1.12.38A2.23,2.23,0,0,0,424.56,41.17Z"/><path d="M439.57,38.31,436.2,46.6h-1.56l3.34-8h-5.4v-4H434v2.8h5.55Z"/><path d="M442.27,38.56h-1.69V37.4h3.14v5.13h-1.45Z"/><path d="M445.13,46.64V45.3a3.23,3.23,0,0,0,.46,0,2.63,2.63,0,0,0,1.82-.68,3,3,0,0,0,.9-1.67V38.56h-2.08V37.4h3.51v4.75a6.46,6.46,0,0,0,.15,1.4l.64,3.05h-1.37L448.63,44h-.06a3,3,0,0,1-.52,1.31,3.31,3.31,0,0,1-1.1,1,3,3,0,0,1-1.45.36A1.79,1.79,0,0,1,445.13,46.64Z"/><path d="M204.06,27.4V17.75l-2.91,1.07v-1.3L205.29,16h.23V27.4Z"/><path d="M209,28.38,213.7,16h1.24L210.2,28.38Z"/><path d="M219.66,27.4V17.75l-2.91,1.07v-1.3L220.9,16h.22V27.4Z"/><path d="M224.55,28.38,229.3,16h1.24L225.8,28.38Z"/><path d="M232,27.4v-1l3.72-4.15a13.68,13.68,0,0,0,1.07-1.3,4.05,4.05,0,0,0,.53-1,2.68,2.68,0,0,0,.15-.89,2.37,2.37,0,0,0-.23-1,1.91,1.91,0,0,0-.68-.73,2,2,0,0,0-1.06-.27,2.15,2.15,0,0,0-1.68.63,2.42,2.42,0,0,0-.58,1.7h-1.46a3.62,3.62,0,0,1,.43-1.77,3,3,0,0,1,1.27-1.27,4.63,4.63,0,0,1,3.85-.08,2.8,2.8,0,0,1,1.19,1.06,3,3,0,0,1,.41,1.6,3.88,3.88,0,0,1-.57,1.93,11.57,11.57,0,0,1-1.56,2.07l-3.05,3.32h5.71V27.4Z"/><path d="M247.18,26.39a3.61,3.61,0,0,1-5.33,0,6.12,6.12,0,0,1-.94-3.83V20.81a6.07,6.07,0,0,1,.93-3.8,3.21,3.21,0,0,1,2.66-1.14A3.25,3.25,0,0,1,247.18,17a6.14,6.14,0,0,1,.92,3.8v1.74A6.3,6.3,0,0,1,247.18,26.39Zm-1.07-8.52a2,2,0,0,0-3.2,0,5.09,5.09,0,0,0-.54,2.69v2.22a5.21,5.21,0,0,0,.55,2.73,1.77,1.77,0,0,0,1.6.87,1.72,1.72,0,0,0,1.59-.86,5.44,5.44,0,0,0,.53-2.74V20.56A5.18,5.18,0,0,0,246.11,17.87Z"/><path d="M250,27.4v-1l3.73-4.15a15.44,15.44,0,0,0,1.07-1.3,4,4,0,0,0,.52-1,2.46,2.46,0,0,0,.16-.89,2.24,2.24,0,0,0-.24-1,1.77,1.77,0,0,0-.68-.73,2,2,0,0,0-1-.27,2.19,2.19,0,0,0-1.69.63,2.42,2.42,0,0,0-.58,1.7h-1.46a3.62,3.62,0,0,1,.43-1.77,3.11,3.11,0,0,1,1.27-1.27,4.66,4.66,0,0,1,3.86-.08,2.77,2.77,0,0,1,1.18,1.06,3,3,0,0,1,.42,1.6,3.8,3.8,0,0,1-.58,1.93,11.57,11.57,0,0,1-1.56,2.07l-3,3.32h5.7V27.4Z"/><path d="M265.49,22.62a2.88,2.88,0,0,1,.46,1.61,3.34,3.34,0,0,1-.47,1.79,3,3,0,0,1-1.28,1.14,4.26,4.26,0,0,1-1.85.4,4.37,4.37,0,0,1-1.83-.38,3,3,0,0,1-1.3-1.09,3,3,0,0,1-.48-1.7h1.46a2.1,2.1,0,0,0,.26,1.05,1.81,1.81,0,0,0,.75.7,2.52,2.52,0,0,0,1.14.24,2.18,2.18,0,0,0,1.57-.53,2.09,2.09,0,0,0,.57-1.59,1.89,1.89,0,0,0-.64-1.56,2.69,2.69,0,0,0-1.77-.52h-1V21h1a2.67,2.67,0,0,0,1.23-.25,1.73,1.73,0,0,0,.76-.7,2.36,2.36,0,0,0-.25-2.51,2,2,0,0,0-1.48-.51,2.28,2.28,0,0,0-1.07.24,1.71,1.71,0,0,0-.72.69,2,2,0,0,0-.26,1h-1.46a3,3,0,0,1,.44-1.58,3.18,3.18,0,0,1,1.24-1.14,4,4,0,0,1,1.83-.41,4.09,4.09,0,0,1,1.81.37,2.59,2.59,0,0,1,1.2,1.09,3.32,3.32,0,0,1,.43,1.75,2.43,2.43,0,0,1-.2.92,2.69,2.69,0,0,1-.6.89,2.93,2.93,0,0,1-1,.67A2.56,2.56,0,0,1,265.49,22.62Z"/><path d="M197.76,38.56h-1.69V37.4h3.14v5.13h-1.45Z"/><path d="M205.68,40.18a1.58,1.58,0,0,0-.44-1.18,1.66,1.66,0,0,0-1.21-.44h-3.09V37.4h3.14a3.6,3.6,0,0,1,1.63.34,2.4,2.4,0,0,1,1,1,3.18,3.18,0,0,1,.37,1.56V46.6h-1.45Z"/><path d="M216.36,45.49V46.6H208.8V45.43h5v-4.6a2,2,0,0,0-2.28-2.27H209.3V37.4h2.3a3.8,3.8,0,0,1,2.72.87,3.41,3.41,0,0,1,.92,2.6v4.5Z"/><path d="M224.59,37.4v5.51a4.13,4.13,0,0,1-.51,2.12,3.32,3.32,0,0,1-1.43,1.32,4.89,4.89,0,0,1-2.15.45,9.19,9.19,0,0,1-3.27-.65l.35-1.08a8.11,8.11,0,0,0,2.44.59,3.54,3.54,0,0,1-.77-1.55l-1.52-6.71h1.45l1.49,6.79c.07.31.14.58.21.8a3.32,3.32,0,0,0,.28.6,2.47,2.47,0,0,0,1.46-.88,2.75,2.75,0,0,0,.53-1.74V37.4Z"/><path d="M230.92,46.6v-1l3.73-4.15a15.44,15.44,0,0,0,1.07-1.3,4.05,4.05,0,0,0,.53-.95,2.68,2.68,0,0,0,.15-.89,2.17,2.17,0,0,0-.24-1,1.73,1.73,0,0,0-.68-.74,2,2,0,0,0-1-.27,2.19,2.19,0,0,0-1.69.63,2.47,2.47,0,0,0-.58,1.7H230.7a3.74,3.74,0,0,1,.43-1.77,3.07,3.07,0,0,1,1.28-1.27,4.1,4.1,0,0,1,2-.46,4.18,4.18,0,0,1,1.83.38,2.86,2.86,0,0,1,1.19,1.06,3.1,3.1,0,0,1,.41,1.6,3.88,3.88,0,0,1-.57,1.93,12.61,12.61,0,0,1-1.56,2.07l-3,3.32h5.7V46.6Z"/><path d="M246.14,45.59a3.61,3.61,0,0,1-5.33,0,6.12,6.12,0,0,1-.94-3.83V40a6.14,6.14,0,0,1,.92-3.8,3.7,3.7,0,0,1,5.34,0,6.07,6.07,0,0,1,.93,3.8v1.74A6.3,6.3,0,0,1,246.14,45.59Zm-1.07-8.52a2,2,0,0,0-3.21,0,5.2,5.2,0,0,0-.53,2.69V42a5.21,5.21,0,0,0,.55,2.73,1.76,1.76,0,0,0,1.6.87,1.73,1.73,0,0,0,1.59-.86,5.46,5.46,0,0,0,.52-2.74V39.76A5.19,5.19,0,0,0,245.07,37.07Z"/><path d="M259.57,38.31,256.2,46.6h-1.56l3.34-8h-5.4v-4H254v2.8h5.55Z"/><path d="M262.27,38.56h-1.69V37.4h3.14v5.13h-1.45Z"/><path d="M265.13,46.64V45.3a3.33,3.33,0,0,0,.46,0,2.63,2.63,0,0,0,1.82-.68,3,3,0,0,0,.9-1.67V38.56h-2.08V37.4h3.51v4.75a6.46,6.46,0,0,0,.15,1.4l.64,3.05h-1.37L268.63,44h-.06a3,3,0,0,1-.52,1.31,3.22,3.22,0,0,1-1.1,1,3,3,0,0,1-1.45.36A1.79,1.79,0,0,1,265.13,46.64Z"/><path d="M22.06,27.4V17.75l-2.91,1.07v-1.3L23.29,16h.23V27.4Z"/><path d="M27,28.38,31.7,16h1.24L28.2,28.38Z"/><path d="M37.66,27.4V17.75l-2.91,1.07v-1.3L38.9,16h.22V27.4Z"/><path d="M42.55,28.38,47.3,16h1.24L43.8,28.38Z"/><path d="M50,27.4v-1l3.72-4.15a13.68,13.68,0,0,0,1.07-1.3,4.05,4.05,0,0,0,.53-1,2.68,2.68,0,0,0,.15-.89,2.37,2.37,0,0,0-.23-1,1.91,1.91,0,0,0-.68-.73A2,2,0,0,0,53.47,17a2.15,2.15,0,0,0-1.68.63,2.42,2.42,0,0,0-.58,1.7H49.75a3.62,3.62,0,0,1,.43-1.77,3,3,0,0,1,1.27-1.27,4.63,4.63,0,0,1,3.85-.08,2.8,2.8,0,0,1,1.19,1.06,3,3,0,0,1,.41,1.6,3.88,3.88,0,0,1-.57,1.93,11.57,11.57,0,0,1-1.56,2.07l-3.05,3.32h5.71V27.4Z"/><path d="M65.18,26.39a3.61,3.61,0,0,1-5.33,0,6.12,6.12,0,0,1-.94-3.83V20.81a6.07,6.07,0,0,1,.93-3.8,3.21,3.21,0,0,1,2.66-1.14A3.25,3.25,0,0,1,65.18,17a6.14,6.14,0,0,1,.92,3.8v1.74A6.3,6.3,0,0,1,65.18,26.39Zm-1.07-8.52a2,2,0,0,0-3.2,0,5.09,5.09,0,0,0-.54,2.69v2.22a5.21,5.21,0,0,0,.55,2.73,1.77,1.77,0,0,0,1.6.87,1.72,1.72,0,0,0,1.59-.86,5.44,5.44,0,0,0,.53-2.74V20.56A5.18,5.18,0,0,0,64.11,17.87Z"/><path d="M68,27.4v-1l3.73-4.15a15.44,15.44,0,0,0,1.07-1.3,4,4,0,0,0,.52-1,2.46,2.46,0,0,0,.16-.89,2.24,2.24,0,0,0-.24-1,1.77,1.77,0,0,0-.68-.73A2,2,0,0,0,71.46,17a2.19,2.19,0,0,0-1.69.63,2.42,2.42,0,0,0-.58,1.7H67.73a3.62,3.62,0,0,1,.43-1.77,3.11,3.11,0,0,1,1.27-1.27,4.66,4.66,0,0,1,3.86-.08,2.77,2.77,0,0,1,1.18,1.06,3,3,0,0,1,.42,1.6,3.8,3.8,0,0,1-.58,1.93,11.57,11.57,0,0,1-1.56,2.07l-3,3.32h5.7V27.4Z"/><path d="M84.63,24.75H83.05V27.4H81.59V24.75H76.41v-.84L81.5,16h1.55v7.55h1.58Zm-3-1.17V18l-.17.31-3.36,5.28Z"/><path d="M15.76,38.56H14.07V37.4h3.14v5.13H15.76Z"/><path d="M23.68,40.18A1.58,1.58,0,0,0,23.24,39,1.66,1.66,0,0,0,22,38.56H18.94V37.4h3.14a3.6,3.6,0,0,1,1.63.34,2.4,2.4,0,0,1,1.05,1,3.18,3.18,0,0,1,.37,1.56V46.6H23.68Z"/><path d="M34.36,45.49V46.6H26.8V45.43h5v-4.6a2,2,0,0,0-2.28-2.27H27.3V37.4h2.3a3.8,3.8,0,0,1,2.72.87,3.41,3.41,0,0,1,.92,2.6v4.5Z"/><path d="M42.59,37.4v5.51A4.13,4.13,0,0,1,42.08,45a3.32,3.32,0,0,1-1.43,1.32,4.89,4.89,0,0,1-2.15.45,9.19,9.19,0,0,1-3.27-.65l.35-1.08a8.11,8.11,0,0,0,2.44.59,3.54,3.54,0,0,1-.77-1.55L35.73,37.4h1.45l1.49,6.79c.07.31.14.58.21.8a3.32,3.32,0,0,0,.28.6,2.47,2.47,0,0,0,1.46-.88A2.75,2.75,0,0,0,41.15,43V37.4Z"/><path d="M48.92,46.6v-1l3.73-4.15a15.44,15.44,0,0,0,1.07-1.3,4.05,4.05,0,0,0,.53-.95,2.68,2.68,0,0,0,.15-.89,2.17,2.17,0,0,0-.24-1,1.73,1.73,0,0,0-.68-.74,2,2,0,0,0-1-.27,2.19,2.19,0,0,0-1.69.63,2.47,2.47,0,0,0-.58,1.7H48.7a3.74,3.74,0,0,1,.43-1.77,3.07,3.07,0,0,1,1.28-1.27,4.1,4.1,0,0,1,2-.46,4.18,4.18,0,0,1,1.83.38,2.86,2.86,0,0,1,1.19,1.06,3.1,3.1,0,0,1,.41,1.6A3.88,3.88,0,0,1,55.29,40a12.61,12.61,0,0,1-1.56,2.07l-3,3.32h5.7V46.6Z"/><path d="M61.21,46.6V37L58.31,38v-1.3l4.14-1.56h.22V46.6Z"/><path d="M77.57,38.31,74.2,46.6H72.64l3.34-8h-5.4v-4H72v2.8h5.55Z"/><path d="M80.27,38.56H78.58V37.4h3.14v5.13H80.27Z"/><path d="M83.13,46.64V45.3a3.33,3.33,0,0,0,.46,0,2.63,2.63,0,0,0,1.82-.68,3,3,0,0,0,.9-1.67V38.56H84.23V37.4h3.51v4.75a6.46,6.46,0,0,0,.15,1.4l.64,3.05H87.16L86.63,44h-.06a3,3,0,0,1-.52,1.31,3.22,3.22,0,0,1-1.1,1,3,3,0,0,1-1.45.36A1.79,1.79,0,0,1,83.13,46.64Z"/><path class="cls-4" d="M205,86.86V85.24l3.68-3.89a9.71,9.71,0,0,0,1.12-1.46,2.29,2.29,0,0,0,.33-1.09,1.72,1.72,0,0,0-.37-1.16,1.33,1.33,0,0,0-1.05-.42,1.43,1.43,0,0,0-.84.24,1.53,1.53,0,0,0-.55.67,2.42,2.42,0,0,0-.18,1h-2.36a3.76,3.76,0,0,1,.49-1.9,3.62,3.62,0,0,1,1.4-1.37,4.27,4.27,0,0,1,2.08-.5,4.82,4.82,0,0,1,2,.39,2.77,2.77,0,0,1,1.27,1.11,3.5,3.5,0,0,1,.43,1.76,3.56,3.56,0,0,1-.3,1.43,6.26,6.26,0,0,1-.85,1.39,19.15,19.15,0,0,1-1.42,1.6l-1.87,2h4.78v1.9Z"/><path class="cls-4" d="M221.46,84.89a3.43,3.43,0,0,1-1.34,1.61,4.38,4.38,0,0,1-4.1,0,3.4,3.4,0,0,1-1.35-1.61,6.72,6.72,0,0,1-.49-2.72v-2a6.69,6.69,0,0,1,.48-2.72,3.42,3.42,0,0,1,1.35-1.6,4.38,4.38,0,0,1,4.1,0,3.46,3.46,0,0,1,1.34,1.6,6.69,6.69,0,0,1,.48,2.72v2A6.91,6.91,0,0,1,221.46,84.89Zm-2.27-7.06a1.36,1.36,0,0,0-2.26,0,3.86,3.86,0,0,0-.39,2v2.65a3.94,3.94,0,0,0,.39,2,1.28,1.28,0,0,0,1.14.61,1.26,1.26,0,0,0,1.13-.61,4.08,4.08,0,0,0,.37-2V79.83A3.88,3.88,0,0,0,219.19,77.83Z"/><path class="cls-4" d="M235.4,90.11H233V79.4h-2.23a5.17,5.17,0,0,0-.34,1.9v.78a3,3,0,0,0,.84.08V83.8a4.77,4.77,0,0,1-.94.08,5.61,5.61,0,0,1-1.24-.14,3.55,3.55,0,0,1-1-.43V82.12a6.94,6.94,0,0,1,.16-1.52,3.35,3.35,0,0,1,.45-1.2h-1V77.49h7.72Z"/><path class="cls-4" d="M238.54,79.4h-1.47V77.49H241v5.34h-2.46Z"/><path class="cls-4" d="M250.93,77.49v5.37a4.45,4.45,0,0,1-.57,2.31,3.64,3.64,0,0,1-1.6,1.43,5.65,5.65,0,0,1-2.4.48,10.44,10.44,0,0,1-3.71-.68l.5-1.79a9.4,9.4,0,0,0,2.14.58,2.68,2.68,0,0,1-.49-.61,2.5,2.5,0,0,1-.3-.72l-1.44-6.37h2.47l1.37,6.61a4.25,4.25,0,0,0,.32.94,2,2,0,0,0,.93-.77,2.47,2.47,0,0,0,.32-1.29V77.49Z"/><path class="cls-4" d="M255.34,86.5A3.88,3.88,0,0,1,253.86,85a4.86,4.86,0,0,1-.55-2.3v-.57a3.93,3.93,0,0,1,.26-1.42,3.41,3.41,0,0,1,.65-1.15.62.62,0,0,1,.12-.12l0,0c-.19,0-.59.13-1.21.29l-.46-1.78a15.36,15.36,0,0,1,2.19-.44,18,18,0,0,1,2.34-.17,4.58,4.58,0,0,1,3.36,1.15,4.48,4.48,0,0,1,1.18,3.33v.92a4.85,4.85,0,0,1-.53,2.3,3.79,3.79,0,0,1-1.47,1.55,4.42,4.42,0,0,1-2.21.55A4.29,4.29,0,0,1,255.34,86.5Zm3.09-1.77a1.88,1.88,0,0,0,.61-.83,3.19,3.19,0,0,0,.22-1.24v-.88a3.31,3.31,0,0,0-.45-1.88,1.53,1.53,0,0,0-1.31-.65,1.45,1.45,0,0,0-1.29.69,3.67,3.67,0,0,0-.46,2v.75A3.39,3.39,0,0,0,256,83.9a1.9,1.9,0,0,0,.62.83,1.54,1.54,0,0,0,.91.29A1.58,1.58,0,0,0,258.43,84.73Z"/></g></g></svg>