<svg xmlns="http://www.w3.org/2000/svg" viewBox="0 0 647 96.68"><defs><style>.cls-1,.cls-2,.cls-3,.cls-4,.cls-6{fill:none;stroke-miterlimit:8;}.cls-1,.cls-2{stroke:#2ec4b6;}.cls-1{stroke-width:2px;}.cls-3,.cls-4{stroke:#e71d36;}.cls-3{stroke-width:2.28px;}.cls-4{stroke-width:0.96px;}.cls-5{fill:#e71d36;fill-rule:evenodd;}.cls-6{stroke:#fff;}</style></defs><g id="Layer_2" data-name="Layer 2"><g id="base"><line class="cls-1" x1="51" y1="95.68" x2="593" y2="95.68"/><line class="cls-1" x1="592" y1="84.68" x2="592" y2="95.68"/><line class="cls-1" x1="413.13" y1="85.06" x2="413.13" y2="96.06"/><line class="cls-1" x1="51.13" y1="85.06" x2="51.13" y2="96.06"/><line class="cls-2" x1="83.5" y1="70.18" x2="83.5" y2="96.18"/><line class="cls-2" x1="145.5" y1="51.18" x2="83.5" y2="70.18"/><line class="cls-2" x1="207.5" y1="70.18" x2="145.5" y2="51.18"/><line class="cls-2" x1="207.5" y1="95.18" x2="207.5" y2="70.18"/><line class="cls-2" x1="256.76" y1="70.67" x2="256.76" y2="96.67"/><line class="cls-2" x1="318.76" y1="51.67" x2="256.76" y2="70.67"/><line class="cls-2" x1="380.76" y1="70.67" x2="318.76" y2="51.67"/><line class="cls-2" x1="380.76" y1="95.67" x2="380.76" y2="70.67"/><line class="cls-2" x1="443.76" y1="70.67" x2="443.76" y2="96.67"/><line class="cls-2" x1="505.76" y1="51.67" x2="443.76" y2="70.67"/><line class="cls-2" x1="567.76" y1="70.67" x2="505.76" y2="51.67"/><line class="cls-2" x1="567.76" y1="95.67" x2="567.76" y2="70.67"/><line class="cls-3" x1="233" y1="50.68" x2="233" y2="95.68"/><path class="cls-4" d="M75.63,91.93c-8.88-3-21.08-14.82-21.91-22C53,64.09,59.08,58.46,66,52.77" transform="translate(0 -13.32)"/><polygon class="cls-5" points="66 39.43 59.74 38.09 70.65 35.64 66.06 45.84 66 39.43 66 39.43"/><line class="cls-6" y1="31.68" x2="647" y2="31.68"/></g><g id="example_1" data-name="example 1"><path d="M481,98.26V88.61l-2.91,1.08V88.38l4.14-1.55h.23V98.26Z" transform="translate(0 -13.32)"/><path d="M496.46,92.49a2,2,0,0,0-2.27-2.27h-3.34V89.06h3.41a3.81,3.81,0,0,1,2.73.88,3.37,3.37,0,0,1,.93,2.59v5.73h-1.46Zm-5.59,2.63A4.75,4.75,0,0,1,491,94a4.57,4.57,0,0,1,.31-.82h1.18a5.61,5.61,0,0,0-.14.79c0,.3,0,.65,0,1.06v3.23h-1.41Z" transform="translate(0 -13.32)"/><path d="M502.21,98.29a9.5,9.5,0,0,1-1.55-.39l.28-1.09a9.64,9.64,0,0,0,1.39.32,8.82,8.82,0,0,0,1.27.1,2.84,2.84,0,0,0,2-.65,2.33,2.33,0,0,0,.7-1.81V90.22h-3.69a3.83,3.83,0,0,0-.4,1.09,5.42,5.42,0,0,0-.16,1.32v.7a1.35,1.35,0,0,0,.46.11c.2,0,.45,0,.76,0v1.25a7.69,7.69,0,0,1-1.52-.11,3.85,3.85,0,0,1-1.11-.41l0-1.19a5.71,5.71,0,0,1,.2-1.54,3.9,3.9,0,0,1,.54-1.25h-1.12V89.06h7.51V94.5a4.25,4.25,0,0,1-.51,2.17A3.21,3.21,0,0,1,505.8,98a4.9,4.9,0,0,1-2.09.43A9,9,0,0,1,502.21,98.29Z" transform="translate(0 -13.32)"/><path d="M511,90.22h-1.07V89.06h2.52v9.2H511Z" transform="translate(0 -13.32)"/><path d="M518.36,97.12a2.87,2.87,0,0,0,1.35-.34,2.23,2.23,0,0,0,.9-.9,2.76,2.76,0,0,0,.32-1.38V90.22h-5.68V89.06h7.13v5.41a3.86,3.86,0,0,1-.49,2,3.25,3.25,0,0,1-1.41,1.31,4.7,4.7,0,0,1-2.12.49Zm-2.93-2.31a4.58,4.58,0,0,1,.11-1.11,4.81,4.81,0,0,1,.3-.82H517a4.32,4.32,0,0,0-.15.78c0,.29,0,.64,0,1.06v6.79h-1.41Z" transform="translate(0 -13.32)"/><path d="M531.7,89.93a3.54,3.54,0,0,1,.9,2.65v5.68h-1.44V92.5a2.48,2.48,0,0,0-.51-1.74,2.18,2.18,0,0,0-1.65-.54h-1.31a3.82,3.82,0,0,0-.41,1.09,6.07,6.07,0,0,0-.15,1.35v3.1a2.77,2.77,0,0,1-.6,1.93,2.29,2.29,0,0,1-1.75.65,6.87,6.87,0,0,1-.9-.07V97.11a4.63,4.63,0,0,0,.54,0,1.28,1.28,0,0,0,1-.35,1.71,1.71,0,0,0,.31-1.11V92.77a5.76,5.76,0,0,1,.18-1.42,3.3,3.3,0,0,1,.52-1.13h-1.73V89.06H529A3.79,3.79,0,0,1,531.7,89.93Z" transform="translate(0 -13.32)"/><path d="M290.82,97.86v-1l3.73-4.15c.46-.52.82-1,1.07-1.3a4.27,4.27,0,0,0,.53-1,2.58,2.58,0,0,0,.15-.88,2.24,2.24,0,0,0-.24-1,1.71,1.71,0,0,0-.68-.73,2,2,0,0,0-1.05-.27,2.19,2.19,0,0,0-1.69.63,2.45,2.45,0,0,0-.58,1.7H290.6a3.78,3.78,0,0,1,.43-1.78,3.11,3.11,0,0,1,1.28-1.26,4.1,4.1,0,0,1,2-.46,4,4,0,0,1,1.83.38,2.71,2.71,0,0,1,1.18,1.06,3,3,0,0,1,.42,1.6,3.8,3.8,0,0,1-.58,1.93,12.36,12.36,0,0,1-1.55,2.07l-3.05,3.32h5.7v1.17Z" transform="translate(0 -13.32)"/><path d="M309.6,92.08a2.38,2.38,0,0,0-.54-1.73,2.4,2.4,0,0,0-1.73-.53H304V88.66h3.41a3.86,3.86,0,0,1,2.73.87,3.39,3.39,0,0,1,.93,2.59v5.74H309.6ZM304,94.72a4.7,4.7,0,0,1,.1-1.12,4.61,4.61,0,0,1,.3-.83h1.19a5.76,5.76,0,0,0-.14.8,10.26,10.26,0,0,0,0,1.05v3.24H304Z" transform="translate(0 -13.32)"/><path d="M315.34,97.88a9.64,9.64,0,0,1-1.54-.39l.28-1.08a9.6,9.6,0,0,0,1.39.31,8.84,8.84,0,0,0,1.27.11,2.89,2.89,0,0,0,2-.65,2.34,2.34,0,0,0,.69-1.81V89.82h-3.68a4.14,4.14,0,0,0-.41,1.09,5.94,5.94,0,0,0-.15,1.32v.7a1.63,1.63,0,0,0,.46.11c.2,0,.45,0,.76,0v1.25a8.54,8.54,0,0,1-1.52-.11,4.54,4.54,0,0,1-1.11-.41l0-1.19a5.66,5.66,0,0,1,.2-1.54,3.8,3.8,0,0,1,.54-1.25h-1.12V88.66h7.51v5.43a4.29,4.29,0,0,1-.51,2.18,3.24,3.24,0,0,1-1.41,1.31,4.77,4.77,0,0,1-2.1.43A9.13,9.13,0,0,1,315.34,97.88Z" transform="translate(0 -13.32)"/><path d="M324.13,89.82h-1.08V88.66h2.53v9.2h-1.45Z" transform="translate(0 -13.32)"/><path d="M331.5,96.72a2.87,2.87,0,0,0,1.35-.35,2.17,2.17,0,0,0,.9-.9,2.87,2.87,0,0,0,.32-1.38V89.82h-5.68V88.66h7.13v5.4a3.9,3.9,0,0,1-.49,2,3.37,3.37,0,0,1-1.41,1.31,4.87,4.87,0,0,1-2.12.49Zm-2.93-2.31a4.58,4.58,0,0,1,.11-1.11,4.52,4.52,0,0,1,.3-.82h1.18a5.21,5.21,0,0,0-.14.78,10.54,10.54,0,0,0,0,1.06v6.79h-1.41Z" transform="translate(0 -13.32)"/><path d="M344.84,89.53a3.53,3.53,0,0,1,.9,2.65v5.68H344.3V92.09a2.47,2.47,0,0,0-.51-1.73,2.18,2.18,0,0,0-1.65-.54h-1.31a3.64,3.64,0,0,0-.41,1.08,6.1,6.1,0,0,0-.15,1.36v3.1a2.76,2.76,0,0,1-.6,1.92,2.27,2.27,0,0,1-1.75.66c-.23,0-.53,0-.9-.07V96.7a4.39,4.39,0,0,0,.54,0,1.25,1.25,0,0,0,1-.35,1.67,1.67,0,0,0,.3-1.11v-2.9A5.71,5.71,0,0,1,339,91a3.21,3.21,0,0,1,.52-1.13h-1.73V88.66h4.29A3.79,3.79,0,0,1,344.84,89.53Z" transform="translate(0 -13.32)"/><path d="M121.37,93.07a2.94,2.94,0,0,1,.46,1.62,3.34,3.34,0,0,1-.47,1.79,3,3,0,0,1-1.29,1.14,4.21,4.21,0,0,1-1.84.39,4.37,4.37,0,0,1-1.83-.37,3,3,0,0,1-1.3-1.09,3,3,0,0,1-.48-1.7h1.46a2.1,2.1,0,0,0,.26,1.05,1.81,1.81,0,0,0,.75.7,2.52,2.52,0,0,0,1.14.24,2.19,2.19,0,0,0,1.57-.54,2.06,2.06,0,0,0,.57-1.58,1.89,1.89,0,0,0-.64-1.56,2.69,2.69,0,0,0-1.77-.52h-1V91.47h1a2.8,2.8,0,0,0,1.23-.25,1.73,1.73,0,0,0,.76-.7A2.36,2.36,0,0,0,119.7,88a2,2,0,0,0-1.48-.51,2.28,2.28,0,0,0-1.07.24,1.75,1.75,0,0,0-.72.68,2.06,2.06,0,0,0-.26,1h-1.46a3,3,0,0,1,.44-1.59,3.23,3.23,0,0,1,1.24-1.13,4,4,0,0,1,1.83-.41,4.24,4.24,0,0,1,1.81.36,2.7,2.7,0,0,1,1.2,1.09,3.38,3.38,0,0,1,.43,1.76,2.47,2.47,0,0,1-.2.92A2.92,2.92,0,0,1,119.87,92,2.65,2.65,0,0,1,121.37,93.07Z" transform="translate(0 -13.32)"/><path d="M133.6,92.08a2.38,2.38,0,0,0-.54-1.73,2.4,2.4,0,0,0-1.73-.53H128V88.66h3.41a3.86,3.86,0,0,1,2.73.87,3.39,3.39,0,0,1,.93,2.59v5.74H133.6ZM128,94.72a4.7,4.7,0,0,1,.1-1.12,4.61,4.61,0,0,1,.3-.83h1.19a5.76,5.76,0,0,0-.14.8,10.26,10.26,0,0,0-.05,1.05v3.24H128Z" transform="translate(0 -13.32)"/><path d="M139.34,97.88a9.64,9.64,0,0,1-1.54-.39l.28-1.08a9.6,9.6,0,0,0,1.39.31,8.84,8.84,0,0,0,1.27.11,2.89,2.89,0,0,0,2-.65,2.34,2.34,0,0,0,.69-1.81V89.82h-3.68a4.14,4.14,0,0,0-.41,1.09,5.94,5.94,0,0,0-.15,1.32v.7a1.63,1.63,0,0,0,.46.11c.2,0,.45,0,.76,0v1.25a8.54,8.54,0,0,1-1.52-.11,4.54,4.54,0,0,1-1.11-.41l0-1.19a5.66,5.66,0,0,1,.2-1.54,3.8,3.8,0,0,1,.54-1.25h-1.12V88.66h7.51v5.43a4.29,4.29,0,0,1-.51,2.18,3.24,3.24,0,0,1-1.41,1.31,4.77,4.77,0,0,1-2.1.43A9.13,9.13,0,0,1,139.34,97.88Z" transform="translate(0 -13.32)"/><path d="M148.13,89.82h-1.07V88.66h2.52v9.2h-1.45Z" transform="translate(0 -13.32)"/><path d="M155.5,96.72a2.87,2.87,0,0,0,1.35-.35,2.17,2.17,0,0,0,.9-.9,2.87,2.87,0,0,0,.32-1.38V89.82h-5.68V88.66h7.13v5.4a3.9,3.9,0,0,1-.49,2,3.37,3.37,0,0,1-1.41,1.31,4.84,4.84,0,0,1-2.12.49Zm-2.93-2.31a4.58,4.58,0,0,1,.11-1.11,4.52,4.52,0,0,1,.3-.82h1.18a5.21,5.21,0,0,0-.14.78,10.54,10.54,0,0,0,0,1.06v6.79h-1.41Z" transform="translate(0 -13.32)"/><path d="M168.84,89.53a3.53,3.53,0,0,1,.9,2.65v5.68H168.3V92.09a2.47,2.47,0,0,0-.51-1.73,2.18,2.18,0,0,0-1.65-.54h-1.31a3.64,3.64,0,0,0-.41,1.08,6.1,6.1,0,0,0-.15,1.36v3.1a2.76,2.76,0,0,1-.6,1.92,2.25,2.25,0,0,1-1.75.66c-.23,0-.53,0-.9-.07V96.7a4.5,4.5,0,0,0,.54,0,1.25,1.25,0,0,0,1-.35,1.67,1.67,0,0,0,.3-1.11v-2.9A5.71,5.71,0,0,1,163,91a3.21,3.21,0,0,1,.52-1.13h-1.73V88.66h4.29A3.79,3.79,0,0,1,168.84,89.53Z" transform="translate(0 -13.32)"/><path d="M97.83,23.67a3.56,3.56,0,0,1-1,1.29L96,24.4a4.75,4.75,0,0,0,.58-1.08,3.34,3.34,0,0,0,.19-1.15V21H98.2v1.15A3.51,3.51,0,0,1,97.83,23.67Z" transform="translate(0 -13.32)"/><path d="M104.14,16.28a1.62,1.62,0,0,0-.44-1.19,1.66,1.66,0,0,0-1.21-.43H99.4V13.49h3.14a3.59,3.59,0,0,1,1.63.35,2.4,2.4,0,0,1,1,1,3.16,3.16,0,0,1,.36,1.56V22.7h-1.44Z" transform="translate(0 -13.32)"/><path d="M112.18,18.46l2.43,3.5v.74H107.8V21.53h4.94l-5.5-8h1.63l2.46,3.71,2-3.71H115Z" transform="translate(0 -13.32)"/><path d="M120,21.56a2.87,2.87,0,0,0,1.35-.35,2.17,2.17,0,0,0,.9-.9,2.87,2.87,0,0,0,.32-1.38V14.66h-5.68V13.49h7.13V18.9a3.9,3.9,0,0,1-.49,2,3.37,3.37,0,0,1-1.41,1.31,4.87,4.87,0,0,1-2.12.49Zm-2.93-2.32a4.55,4.55,0,0,1,.11-1.1,4.61,4.61,0,0,1,.3-.83h1.18a5.61,5.61,0,0,0-.14.79,10.54,10.54,0,0,0,0,1.06V26H117.1Z" transform="translate(0 -13.32)"/><path d="M133.37,14.37a3.53,3.53,0,0,1,.9,2.65V22.7h-1.44V16.93a2.47,2.47,0,0,0-.51-1.73,2.19,2.19,0,0,0-1.66-.54h-1.3a3.64,3.64,0,0,0-.41,1.08,6.1,6.1,0,0,0-.15,1.36v3.1a2.76,2.76,0,0,1-.6,1.92,2.27,2.27,0,0,1-1.75.66c-.23,0-.53,0-.9-.07V21.54a4.39,4.39,0,0,0,.54,0,1.21,1.21,0,0,0,1-.35,1.62,1.62,0,0,0,.31-1.11v-2.9a5.71,5.71,0,0,1,.19-1.42,3.21,3.21,0,0,1,.52-1.13h-1.73V13.49h4.29A3.79,3.79,0,0,1,133.37,14.37Z" transform="translate(0 -13.32)"/><path d="M137.5,16.85a3.61,3.61,0,0,1,.36-1.21,2.45,2.45,0,0,1,.67-.87l.16-.11,0,0c-.23,0-.53.1-.88.19s-.67.19-1,.29L136.49,14a13.07,13.07,0,0,1,2-.51,12.23,12.23,0,0,1,2.07-.2,3.82,3.82,0,0,1,2.84,1,3.94,3.94,0,0,1,1,2.9V22.7h-3.79V21.53H143V17.05a2.78,2.78,0,0,0-.56-1.87,2,2,0,0,0-1.61-.64,1.62,1.62,0,0,0-1.26.58,2.88,2.88,0,0,0-.63,1.59l-.69,6H136.8Z" transform="translate(0 -13.32)"/><path d="M157.48,14.37a3.53,3.53,0,0,1,.9,2.65V22.7h-1.44V16.93a2.47,2.47,0,0,0-.51-1.73,2.21,2.21,0,0,0-1.66-.54h-1.3a3.64,3.64,0,0,0-.41,1.08,6.1,6.1,0,0,0-.15,1.36v3.1a2.76,2.76,0,0,1-.6,1.92,2.27,2.27,0,0,1-1.75.66c-.23,0-.53,0-.9-.07V21.54a4.39,4.39,0,0,0,.54,0,1.21,1.21,0,0,0,1-.35,1.62,1.62,0,0,0,.31-1.11v-2.9a5.71,5.71,0,0,1,.19-1.42,3.21,3.21,0,0,1,.52-1.13h-1.73V13.49h4.29A3.79,3.79,0,0,1,157.48,14.37Z" transform="translate(0 -13.32)"/><path d="M161.42,14.66h-1.07V13.49h2.52V22.7h-1.45Z" transform="translate(0 -13.32)"/><path d="M169.5,16.28a1.62,1.62,0,0,0-.44-1.19,1.66,1.66,0,0,0-1.21-.43h-3.09V13.49h3.14a3.59,3.59,0,0,1,1.63.35,2.4,2.4,0,0,1,1.05,1,3.16,3.16,0,0,1,.36,1.56V22.7H169.5Z" transform="translate(0 -13.32)"/><path d="M174.26,14.66h-1.69V13.49h3.14v5.14h-1.45Z" transform="translate(0 -13.32)"/><path d="M179.79,21.06a7.47,7.47,0,0,0,1.58.5,6.76,6.76,0,0,0,1.57.18,5.73,5.73,0,0,0,2-.32,3,3,0,0,0,1.39-1,2.6,2.6,0,0,0,.51-1.63V13.49h1.41v5.45a3.48,3.48,0,0,1-.7,2.19,4.24,4.24,0,0,1-1.89,1.34,7.46,7.46,0,0,1-2.66.45,10.64,10.64,0,0,1-2.34-.27,10.53,10.53,0,0,1-2.29-.8V13.49h1.41Zm2.65-1.74a5.13,5.13,0,0,0,.14-1.25V13.49H184v4.32a4.39,4.39,0,0,1-.2,1.39,2.57,2.57,0,0,1-.6,1l-1.2-.05A2,2,0,0,0,182.44,19.32Z" transform="translate(0 -13.32)"/><path d="M196.44,16.92a2.38,2.38,0,0,0-.54-1.73,2.43,2.43,0,0,0-1.74-.53h-3.33V13.49h3.4a3.83,3.83,0,0,1,2.73.88,3.39,3.39,0,0,1,.93,2.59V22.7h-1.45Zm-5.6,2.64a4,4,0,0,1,.41-1.95h1.19a4.58,4.58,0,0,0-.14.8,8,8,0,0,0-.05,1.05V22.7h-1.41Z" transform="translate(0 -13.32)"/><path d="M46.45,35.48A1.62,1.62,0,0,0,46,34.29a1.66,1.66,0,0,0-1.21-.43H41.71V32.69h3.14a3.59,3.59,0,0,1,1.63.35,2.4,2.4,0,0,1,1.05,1,3.14,3.14,0,0,1,.36,1.55V41.9H46.45Z" transform="translate(0 -13.32)"/><path d="M50.94,33.86H49.87V32.69h2.52V41.9H50.94Z" transform="translate(0 -13.32)"/><path d="M57,41.61a3.25,3.25,0,0,1-1.3-1.3,3.92,3.92,0,0,1-.46-1.94V32.69h1.45v5.79a2.83,2.83,0,0,0,.27,1.27,2.06,2.06,0,0,0,.79.86,2.39,2.39,0,0,0,2.32,0,2,2,0,0,0,.78-.86,2.7,2.7,0,0,0,.28-1.27V35.39a1.8,1.8,0,0,0-.33-1.16,1.16,1.16,0,0,0-.94-.41,2.62,2.62,0,0,0-1.13.3l-.22-1a3.32,3.32,0,0,1,1.77-.54,2.35,2.35,0,0,1,1.23.32,2.06,2.06,0,0,1,.8.92,3.46,3.46,0,0,1,.27,1.42v3.1a4,4,0,0,1-.45,1.94,3.29,3.29,0,0,1-1.29,1.3,4.24,4.24,0,0,1-3.84,0Z" transform="translate(0 -13.32)"/><path d="M66.78,41.92a9.5,9.5,0,0,1-1.55-.39l.28-1.09a9.64,9.64,0,0,0,1.39.32,9,9,0,0,0,1.27.11,2.89,2.89,0,0,0,2-.65,2.34,2.34,0,0,0,.7-1.81V33.86H67.16a3.83,3.83,0,0,0-.4,1.09,5.4,5.4,0,0,0-.16,1.31V37a1.63,1.63,0,0,0,.46.11c.2,0,.45,0,.76,0v1.25a8.54,8.54,0,0,1-1.52-.11,4.2,4.2,0,0,1-1.11-.42l0-1.18a6.22,6.22,0,0,1,.2-1.55,3.84,3.84,0,0,1,.54-1.24H64.78V32.69h7.51v5.44a4.29,4.29,0,0,1-.51,2.18,3.19,3.19,0,0,1-1.41,1.31,4.76,4.76,0,0,1-2.09.43A9,9,0,0,1,66.78,41.92Z" transform="translate(0 -13.32)"/><path d="M84.44,36.12a2.38,2.38,0,0,0-.54-1.73,2.42,2.42,0,0,0-1.73-.53H78.83V32.69h3.41a3.86,3.86,0,0,1,2.73.88,3.42,3.42,0,0,1,.92,2.59V41.9H84.44Zm-5.59,2.64a4.7,4.7,0,0,1,.1-1.12,4.61,4.61,0,0,1,.3-.83h1.19a5.76,5.76,0,0,0-.14.8,10.26,10.26,0,0,0,0,1V41.9h-1.4Z" transform="translate(0 -13.32)"/><path d="M95,33.57a3.53,3.53,0,0,1,.91,2.65V41.9H94.44V36.13a2.45,2.45,0,0,0-.51-1.73,2.18,2.18,0,0,0-1.65-.54H91a3.64,3.64,0,0,0-.41,1.08,6.1,6.1,0,0,0-.15,1.36v3.1a2.76,2.76,0,0,1-.6,1.92,2.25,2.25,0,0,1-1.75.66c-.22,0-.52,0-.9-.07V40.74a4.63,4.63,0,0,0,.54,0,1.25,1.25,0,0,0,1-.35A1.67,1.67,0,0,0,89,39.31v-2.9A5.7,5.7,0,0,1,89.17,35a3.21,3.21,0,0,1,.52-1.13H88V32.69h4.29A3.75,3.75,0,0,1,95,33.57Z" transform="translate(0 -13.32)"/><path d="M98.92,33.86H97.85V32.69h2.53V41.9H98.92Z" transform="translate(0 -13.32)"/><path d="M109.64,32.69v5.52a4.1,4.1,0,0,1-.52,2.11,3.32,3.32,0,0,1-1.43,1.32,4.89,4.89,0,0,1-2.15.45,9,9,0,0,1-3.27-.65l.35-1.07a8.5,8.5,0,0,0,2.44.59,3.6,3.6,0,0,1-.77-1.55l-1.52-6.72h1.45l1.49,6.79q.11.48.21.81a3.32,3.32,0,0,0,.28.6,2.47,2.47,0,0,0,1.46-.88,2.76,2.76,0,0,0,.53-1.75V32.69Z" transform="translate(0 -13.32)"/><path d="M113.09,36.05a3.61,3.61,0,0,1,.36-1.21,2.45,2.45,0,0,1,.67-.87l.16-.11,0,0c-.23.05-.53.11-.88.2s-.67.19-1,.29l-.34-1.09a13.07,13.07,0,0,1,2-.51,12.23,12.23,0,0,1,2.07-.2,3.82,3.82,0,0,1,2.84,1,3.94,3.94,0,0,1,1,2.9V41.9h-3.79V40.73h2.34V36.25a2.78,2.78,0,0,0-.55-1.87,2,2,0,0,0-1.61-.64,1.62,1.62,0,0,0-1.26.58,2.88,2.88,0,0,0-.63,1.59l-.7,6h-1.42Z" transform="translate(0 -13.32)"/><path d="M124,40.26a7.47,7.47,0,0,0,1.58.5,7.35,7.35,0,0,0,1.57.18,5.73,5.73,0,0,0,2-.32,3,3,0,0,0,1.39-1,2.6,2.6,0,0,0,.51-1.63V32.69h1.41v5.45a3.5,3.5,0,0,1-.7,2.19,4.24,4.24,0,0,1-1.89,1.34,7.46,7.46,0,0,1-2.66.45,10.83,10.83,0,0,1-4.63-1.07V32.69H124Zm2.65-1.74a4.68,4.68,0,0,0,.14-1.25V32.69h1.42V37a4.39,4.39,0,0,1-.2,1.39,2.64,2.64,0,0,1-.6,1l-1.2,0A2,2,0,0,0,126.67,38.52Z" transform="translate(0 -13.32)"/><path d="M135.94,36.05a3.61,3.61,0,0,1,.36-1.21A2.57,2.57,0,0,1,137,34l.16-.11,0,0c-.23.05-.53.11-.88.2s-.67.19-1,.29l-.34-1.09a13.07,13.07,0,0,1,2-.51,12.23,12.23,0,0,1,2.07-.2,3.82,3.82,0,0,1,2.84,1,3.94,3.94,0,0,1,1,2.9V41.9h-3.79V40.73h2.35V36.25a2.78,2.78,0,0,0-.56-1.87,2,2,0,0,0-1.61-.64,1.63,1.63,0,0,0-1.26.58,2.88,2.88,0,0,0-.63,1.59l-.69,6h-1.43Z" transform="translate(0 -13.32)"/><path d="M154.78,36.12a1.94,1.94,0,0,0-2.27-2.26h-3.34V32.69h3.41a3.86,3.86,0,0,1,2.73.88,3.39,3.39,0,0,1,.93,2.59V41.9h-1.46Zm-5.59,2.64a4,4,0,0,1,.41-1.95h1.18a5.76,5.76,0,0,0-.14.8c0,.29,0,.64,0,1V41.9h-1.41Z" transform="translate(0 -13.32)"/><path d="M160.53,41.92a9.5,9.5,0,0,1-1.55-.39l.28-1.09a9.64,9.64,0,0,0,1.39.32,9,9,0,0,0,1.27.11,2.89,2.89,0,0,0,2-.65,2.34,2.34,0,0,0,.7-1.81V33.86h-3.69a3.83,3.83,0,0,0-.4,1.09,5.4,5.4,0,0,0-.16,1.31V37a1.63,1.63,0,0,0,.46.11c.2,0,.45,0,.76,0v1.25a8.54,8.54,0,0,1-1.52-.11,4.2,4.2,0,0,1-1.11-.42l0-1.18a6.22,6.22,0,0,1,.2-1.55,3.84,3.84,0,0,1,.54-1.24h-1.12V32.69H166v5.44a4.29,4.29,0,0,1-.51,2.18,3.19,3.19,0,0,1-1.41,1.31,4.76,4.76,0,0,1-2.09.43A9,9,0,0,1,160.53,41.92Z" transform="translate(0 -13.32)"/><path d="M169.31,33.86h-1.07V32.69h2.52V41.9h-1.45Z" transform="translate(0 -13.32)"/><path d="M176.68,40.76a2.87,2.87,0,0,0,1.35-.35,2.17,2.17,0,0,0,.9-.9,2.76,2.76,0,0,0,.32-1.38V33.86h-5.68V32.69h7.14V38.1a3.91,3.91,0,0,1-.5,2,3.37,3.37,0,0,1-1.41,1.31,4.84,4.84,0,0,1-2.12.49Zm-2.93-2.32a4.7,4.7,0,0,1,.11-1.11,4.81,4.81,0,0,1,.3-.82h1.19a4.44,4.44,0,0,0-.15.79,10.54,10.54,0,0,0,0,1.06v6.79h-1.41Z" transform="translate(0 -13.32)"/><path d="M190,33.57a3.53,3.53,0,0,1,.9,2.65V41.9h-1.44V36.13A2.45,2.45,0,0,0,189,34.4a2.18,2.18,0,0,0-1.65-.54H186a3.64,3.64,0,0,0-.41,1.08,6.1,6.1,0,0,0-.15,1.36v3.1a2.76,2.76,0,0,1-.6,1.92,2.25,2.25,0,0,1-1.75.66c-.23,0-.53,0-.9-.07V40.74a4.63,4.63,0,0,0,.54,0,1.25,1.25,0,0,0,1-.35,1.67,1.67,0,0,0,.31-1.11v-2.9a5.7,5.7,0,0,1,.18-1.42,3.21,3.21,0,0,1,.52-1.13H183V32.69h4.29A3.75,3.75,0,0,1,190,33.57Z" transform="translate(0 -13.32)"/><path d="M198.88,36.12a2.38,2.38,0,0,0-.54-1.73,2.43,2.43,0,0,0-1.74-.53h-3.33V32.69h3.4a3.83,3.83,0,0,1,2.73.88,3.39,3.39,0,0,1,.93,2.59V41.9h-1.45Zm-5.6,2.64a4,4,0,0,1,.41-1.95h1.19a4.58,4.58,0,0,0-.14.8,10.26,10.26,0,0,0-.05,1V41.9h-1.41Z" transform="translate(0 -13.32)"/><path d="M203.56,36.05a3.61,3.61,0,0,1,.36-1.21,2.45,2.45,0,0,1,.67-.87l.15-.11v0c-.24.05-.53.11-.88.2s-.67.19-1,.29l-.34-1.09a12.79,12.79,0,0,1,2-.51,12.23,12.23,0,0,1,2.07-.2,3.82,3.82,0,0,1,2.84,1,4,4,0,0,1,1,2.9V41.9h-3.79V40.73H209V36.25a2.78,2.78,0,0,0-.55-1.87,2,2,0,0,0-1.61-.64,1.64,1.64,0,0,0-1.27.58,3,3,0,0,0-.62,1.59l-.7,6h-1.43Z" transform="translate(0 -13.32)"/><path d="M222.4,36.12a2.38,2.38,0,0,0-.54-1.73,2.42,2.42,0,0,0-1.73-.53h-3.34V32.69h3.41a3.86,3.86,0,0,1,2.73.88,3.39,3.39,0,0,1,.92,2.59V41.9H222.4Zm-5.59,2.64a4.7,4.7,0,0,1,.1-1.12,4.61,4.61,0,0,1,.3-.83h1.19a5.76,5.76,0,0,0-.14.8,10.26,10.26,0,0,0,0,1V41.9h-1.4Z" transform="translate(0 -13.32)"/><path d="M225.2,41.94V40.6a3.19,3.19,0,0,0,.45,0,2.72,2.72,0,0,0,1.83-.68,3,3,0,0,0,.9-1.68V33.86H226.3V32.69h3.51v4.75a6.48,6.48,0,0,0,.15,1.41l.64,3h-1.37l-.54-2.58h-.05a2.94,2.94,0,0,1-.53,1.3,3.15,3.15,0,0,1-1.1,1,3,3,0,0,1-1.45.36Z" transform="translate(0 -13.32)"/><path d="M233.35,33.86h-1.69V32.69h3.14v5.14h-1.45Z" transform="translate(0 -13.32)"/><path d="M241.27,35.48a1.62,1.62,0,0,0-.44-1.19,1.66,1.66,0,0,0-1.21-.43h-3.09V32.69h3.14a3.59,3.59,0,0,1,1.63.35,2.4,2.4,0,0,1,1,1,3.14,3.14,0,0,1,.36,1.55V41.9h-1.44Z" transform="translate(0 -13.32)"/><path d="M245.33,32.69h3.46a3.75,3.75,0,0,1,2.73.88,3.53,3.53,0,0,1,.9,2.65V41.9H251V36.13a2.4,2.4,0,0,0-.52-1.73,2.18,2.18,0,0,0-1.65-.54h-2v8h-1.45Z" transform="translate(0 -13.32)"/></g></g></svg>