<svg xmlns="http://www.w3.org/2000/svg" viewBox="0 0 647 90.11"><defs><style>.cls-1,.cls-2,.cls-3{fill:none;stroke-miterlimit:8;}.cls-1{stroke:#2ec4b6;stroke-width:2px;}.cls-2{stroke:#e71d36;stroke-width:2.28px;}.cls-3{stroke:#fff;}.cls-4{fill:#e71d36;}</style></defs><g id="Layer_2" data-name="Layer 2"><g id="base"><line class="cls-1" x1="51" y1="1" x2="593" y2="1"/><line class="cls-1" x1="592" x2="592" y2="11"/><line class="cls-1" x1="413.13" y1="0.38" x2="413.13" y2="11.38"/><line class="cls-1" x1="51.13" y1="0.38" x2="51.13" y2="11.38"/><line class="cls-2" x1="233" y1="64" x2="233" y2="54"/><line class="cls-3" y1="12" x2="647" y2="12"/></g><g id="example_1" data-name="example 1"><path d="M556.76,28.82h-1.69V27.66h3.14v5.13h-1.45Z"/><path d="M564.68,30.44a1.62,1.62,0,0,0-.44-1.19,1.66,1.66,0,0,0-1.21-.43h-3.09V27.66h3.14a3.6,3.6,0,0,1,1.63.34,2.4,2.4,0,0,1,1,1,3.16,3.16,0,0,1,.37,1.56v6.31h-1.45Z"/><path d="M575.36,35.75v1.11H567.8V35.69h5V31.08a2.38,2.38,0,0,0-.54-1.73,2.4,2.4,0,0,0-1.74-.53H568.3V27.66h2.3a3.81,3.81,0,0,1,2.72.87,3.39,3.39,0,0,1,.92,2.59v4.51Z"/><path d="M583.59,27.66v5.51a4.1,4.1,0,0,1-.51,2.11,3.18,3.18,0,0,1-1.44,1.32,4.82,4.82,0,0,1-2.14.45,9.17,9.17,0,0,1-3.27-.64l.35-1.08a8.43,8.43,0,0,0,2.44.59,3.54,3.54,0,0,1-.77-1.55l-1.52-6.71h1.45l1.49,6.78q.11.48.21.81a3.32,3.32,0,0,0,.28.6,2.47,2.47,0,0,0,1.46-.88,2.75,2.75,0,0,0,.53-1.74V27.66Z"/><path d="M593.22,36.86V27.21l-2.91,1.07V27l4.14-1.56h.23V36.86Z"/><path d="M605.57,32.12a2.84,2.84,0,0,1,.52,1.66,3.11,3.11,0,0,1-.48,1.74,3,3,0,0,1-1.29,1.12,4.4,4.4,0,0,1-1.85.37,4.45,4.45,0,0,1-1.86-.37,3,3,0,0,1-1.29-1.11,3.2,3.2,0,0,1-.47-1.75,2.92,2.92,0,0,1,.51-1.68,3.11,3.11,0,0,1,1.4-1.11,2.94,2.94,0,0,1-1.21-1,2.65,2.65,0,0,1-.44-1.51,3.12,3.12,0,0,1,.43-1.67,2.83,2.83,0,0,1,1.19-1.08,4,4,0,0,1,1.74-.36,3.83,3.83,0,0,1,1.73.37,2.81,2.81,0,0,1,1.19,1.07,3.12,3.12,0,0,1,.43,1.67,2.72,2.72,0,0,1-.44,1.51A3,3,0,0,1,604.16,31,3.27,3.27,0,0,1,605.57,32.12Zm-1.52,3.17a2.05,2.05,0,0,0,.58-1.54,2.3,2.3,0,0,0-.28-1.12,1.88,1.88,0,0,0-.77-.76,2.2,2.2,0,0,0-1.13-.28,2.18,2.18,0,0,0-1.13.28,1.89,1.89,0,0,0-.75.76,2.37,2.37,0,0,0-.26,1.12,2,2,0,0,0,.58,1.54,2.54,2.54,0,0,0,3.16,0Zm-2.57-8.55a1.65,1.65,0,0,0-.67.69,2.16,2.16,0,0,0-.24,1,2.19,2.19,0,0,0,.23,1,1.69,1.69,0,0,0,.67.68,2.18,2.18,0,0,0,2,0,1.69,1.69,0,0,0,.67-.68,2.19,2.19,0,0,0,.23-1,2.09,2.09,0,0,0-.24-1,1.76,1.76,0,0,0-.67-.71,1.86,1.86,0,0,0-1-.25A2,2,0,0,0,601.48,26.74Z"/><path d="M618.57,28.57l-3.37,8.29h-1.56l3.34-8h-5.4v-4H613v2.8h5.55Z"/><path d="M621.27,28.82h-1.69V27.66h3.14v5.13h-1.45Z"/><path d="M624.13,36.9V35.56a3.23,3.23,0,0,0,.46,0,2.68,2.68,0,0,0,1.82-.68,3,3,0,0,0,.9-1.68V28.82h-2.08V27.66h3.51v4.75a6.46,6.46,0,0,0,.15,1.4l.64,3h-1.37l-.53-2.58h-.06a2.93,2.93,0,0,1-.52,1.3,3.23,3.23,0,0,1-1.1,1,3,3,0,0,1-1.45.36Z"/><path d="M377.76,28.82h-1.69V27.66h3.14v5.13h-1.45Z"/><path d="M385.68,30.44a1.62,1.62,0,0,0-.44-1.19,1.66,1.66,0,0,0-1.21-.43h-3.09V27.66h3.14a3.6,3.6,0,0,1,1.63.34,2.4,2.4,0,0,1,1.05,1,3.16,3.16,0,0,1,.37,1.56v6.31h-1.45Z"/><path d="M396.36,35.75v1.11H388.8V35.69h5V31.08a2.38,2.38,0,0,0-.54-1.73,2.4,2.4,0,0,0-1.74-.53H389.3V27.66h2.3a3.81,3.81,0,0,1,2.72.87,3.39,3.39,0,0,1,.92,2.59v4.51Z"/><path d="M404.59,27.66v5.51a4.1,4.1,0,0,1-.51,2.11,3.18,3.18,0,0,1-1.44,1.32,4.82,4.82,0,0,1-2.14.45,9.17,9.17,0,0,1-3.27-.64l.35-1.08a8.43,8.43,0,0,0,2.44.59,3.54,3.54,0,0,1-.77-1.55l-1.52-6.71h1.45l1.49,6.78q.1.48.21.81a3.32,3.32,0,0,0,.28.6,2.47,2.47,0,0,0,1.46-.88,2.75,2.75,0,0,0,.53-1.74V27.66Z"/><path d="M414.22,36.86V27.21l-2.91,1.07V27l4.14-1.56h.23V36.86Z"/><path d="M425.34,26a3.79,3.79,0,0,1,1.2,1.69,6.57,6.57,0,0,1,.37,2.26v.54a11.33,11.33,0,0,1-.4,3.16,4.48,4.48,0,0,1-1.6,2.33,5.47,5.47,0,0,1-3.41.92h-.15V35.66h.15a3.76,3.76,0,0,0,3-1,4.46,4.46,0,0,0,.93-2.76,3.42,3.42,0,0,1-1.1.87,2.86,2.86,0,0,1-1.35.32,2.94,2.94,0,0,1-1.8-.54,3.18,3.18,0,0,1-1.09-1.41,5,5,0,0,1,.05-3.84,3.24,3.24,0,0,1,1.2-1.41,3.4,3.4,0,0,1,1.92-.52A3.21,3.21,0,0,1,425.34,26Zm-.78,5.45a2.67,2.67,0,0,0,.9-1.12v-.57a4.57,4.57,0,0,0-.3-1.73,2.6,2.6,0,0,0-.79-1.11,1.81,1.81,0,0,0-1.09-.38,1.84,1.84,0,0,0-1.12.35,2.13,2.13,0,0,0-.73.95,3.49,3.49,0,0,0-.25,1.37,3.81,3.81,0,0,0,.23,1.32,2.3,2.3,0,0,0,.7,1,1.73,1.73,0,0,0,1.12.38A2.18,2.18,0,0,0,424.56,31.42Z"/><path d="M439.57,28.57l-3.37,8.29h-1.56l3.34-8h-5.4v-4H434v2.8h5.55Z"/><path d="M442.27,28.82h-1.69V27.66h3.14v5.13h-1.45Z"/><path d="M445.13,36.9V35.56a3.23,3.23,0,0,0,.46,0,2.68,2.68,0,0,0,1.82-.68,3,3,0,0,0,.9-1.68V28.82h-2.08V27.66h3.51v4.75a6.46,6.46,0,0,0,.15,1.4l.64,3h-1.37l-.53-2.58h-.06a2.93,2.93,0,0,1-.52,1.3,3.23,3.23,0,0,1-1.1,1,3,3,0,0,1-1.45.36Z"/><path d="M197.76,28.82h-1.69V27.66h3.14v5.13h-1.45Z"/><path d="M205.68,30.44a1.62,1.62,0,0,0-.44-1.19,1.66,1.66,0,0,0-1.21-.43h-3.09V27.66h3.14a3.6,3.6,0,0,1,1.63.34,2.4,2.4,0,0,1,1,1,3.16,3.16,0,0,1,.37,1.56v6.31h-1.45Z"/><path d="M216.36,35.75v1.11H208.8V35.69h5V31.08a2.38,2.38,0,0,0-.54-1.73,2.4,2.4,0,0,0-1.74-.53H209.3V27.66h2.3a3.8,3.8,0,0,1,2.72.87,3.39,3.39,0,0,1,.92,2.59v4.51Z"/><path d="M224.59,27.66v5.51a4.1,4.1,0,0,1-.51,2.11,3.2,3.2,0,0,1-1.43,1.32,4.89,4.89,0,0,1-2.15.45,9.17,9.17,0,0,1-3.27-.64l.35-1.08a8.43,8.43,0,0,0,2.44.59,3.54,3.54,0,0,1-.77-1.55l-1.52-6.71h1.45l1.49,6.78q.11.48.21.81a3.32,3.32,0,0,0,.28.6,2.47,2.47,0,0,0,1.46-.88,2.75,2.75,0,0,0,.53-1.74V27.66Z"/><path d="M230.92,36.86v-1l3.73-4.15c.46-.52.82-.95,1.07-1.3a3.91,3.91,0,0,0,.53-1,2.58,2.58,0,0,0,.15-.88,2.24,2.24,0,0,0-.24-1,1.71,1.71,0,0,0-.68-.73,2,2,0,0,0-1-.27,2.19,2.19,0,0,0-1.69.63,2.45,2.45,0,0,0-.58,1.7H230.7a3.78,3.78,0,0,1,.43-1.78,3.11,3.11,0,0,1,1.28-1.26,4.1,4.1,0,0,1,2-.46,4,4,0,0,1,1.83.38,2.79,2.79,0,0,1,1.19,1.06,3.1,3.1,0,0,1,.41,1.6,3.88,3.88,0,0,1-.57,1.93,13,13,0,0,1-1.56,2.07l-3,3.32h5.7v1.17Z"/><path d="M246.14,35.85a3.63,3.63,0,0,1-5.33,0,6.14,6.14,0,0,1-.94-3.83V30.26a6.11,6.11,0,0,1,.92-3.79,3.7,3.7,0,0,1,5.34,0,6,6,0,0,1,.93,3.79V32A6.3,6.3,0,0,1,246.14,35.85Zm-1.07-8.53a2,2,0,0,0-3.21,0,5.2,5.2,0,0,0-.53,2.69v2.21a5.23,5.23,0,0,0,.55,2.74,1.76,1.76,0,0,0,1.6.87,1.73,1.73,0,0,0,1.59-.86,5.5,5.5,0,0,0,.52-2.75V30A5.24,5.24,0,0,0,245.07,27.32Z"/><path d="M259.57,28.57l-3.37,8.29h-1.56l3.34-8h-5.4v-4H254v2.8h5.55Z"/><path d="M262.27,28.82h-1.69V27.66h3.14v5.13h-1.45Z"/><path d="M265.13,36.9V35.56a3.33,3.33,0,0,0,.46,0,2.68,2.68,0,0,0,1.82-.68,3,3,0,0,0,.9-1.68V28.82h-2.08V27.66h3.51v4.75a6.46,6.46,0,0,0,.15,1.4l.64,3h-1.37l-.53-2.58h-.06a2.93,2.93,0,0,1-.52,1.3,3.14,3.14,0,0,1-1.1,1,3,3,0,0,1-1.45.36Z"/><path d="M15.76,28.82H14.07V27.66h3.14v5.13H15.76Z"/><path d="M23.68,30.44a1.62,1.62,0,0,0-.44-1.19A1.66,1.66,0,0,0,22,28.82H18.94V27.66h3.14a3.6,3.6,0,0,1,1.63.34,2.4,2.4,0,0,1,1.05,1,3.16,3.16,0,0,1,.37,1.56v6.31H23.68Z"/><path d="M34.36,35.75v1.11H26.8V35.69h5V31.08a2.38,2.38,0,0,0-.54-1.73,2.4,2.4,0,0,0-1.74-.53H27.3V27.66h2.3a3.8,3.8,0,0,1,2.72.87,3.39,3.39,0,0,1,.92,2.59v4.51Z"/><path d="M42.59,27.66v5.51a4.1,4.1,0,0,1-.51,2.11,3.2,3.2,0,0,1-1.43,1.32,4.89,4.89,0,0,1-2.15.45,9.17,9.17,0,0,1-3.27-.64l.35-1.08a8.43,8.43,0,0,0,2.44.59,3.54,3.54,0,0,1-.77-1.55l-1.52-6.71h1.45l1.49,6.78q.11.48.21.81a3.32,3.32,0,0,0,.28.6A2.47,2.47,0,0,0,40.62,35a2.75,2.75,0,0,0,.53-1.74V27.66Z"/><path d="M48.92,36.86v-1l3.73-4.15c.46-.52.82-.95,1.07-1.3a3.91,3.91,0,0,0,.53-1,2.58,2.58,0,0,0,.15-.88,2.24,2.24,0,0,0-.24-1,1.71,1.71,0,0,0-.68-.73,2,2,0,0,0-1-.27,2.19,2.19,0,0,0-1.69.63,2.45,2.45,0,0,0-.58,1.7H48.7a3.78,3.78,0,0,1,.43-1.78,3.11,3.11,0,0,1,1.28-1.26,4.1,4.1,0,0,1,2-.46,4,4,0,0,1,1.83.38,2.79,2.79,0,0,1,1.19,1.06,3.1,3.1,0,0,1,.41,1.6,3.88,3.88,0,0,1-.57,1.93,13,13,0,0,1-1.56,2.07l-3,3.32h5.7v1.17Z"/><path d="M61.21,36.86V27.21l-2.9,1.07V27l4.14-1.56h.22V36.86Z"/><path d="M77.57,28.57,74.2,36.86H72.64l3.34-8h-5.4v-4H72v2.8h5.55Z"/><path d="M80.27,28.82H78.58V27.66h3.14v5.13H80.27Z"/><path d="M83.13,36.9V35.56a3.33,3.33,0,0,0,.46,0,2.68,2.68,0,0,0,1.82-.68,3,3,0,0,0,.9-1.68V28.82H84.23V27.66h3.51v4.75a6.46,6.46,0,0,0,.15,1.4l.64,3H87.16l-.53-2.58h-.06a2.93,2.93,0,0,1-.52,1.3,3.14,3.14,0,0,1-1.1,1,3,3,0,0,1-1.45.36Z"/><path class="cls-4" d="M205,86.86V85.24l3.68-3.89a9.71,9.71,0,0,0,1.12-1.46,2.29,2.29,0,0,0,.33-1.09,1.72,1.72,0,0,0-.37-1.16,1.33,1.33,0,0,0-1.05-.42,1.43,1.43,0,0,0-.84.24,1.53,1.53,0,0,0-.55.67,2.42,2.42,0,0,0-.18,1h-2.36a3.76,3.76,0,0,1,.49-1.9,3.62,3.62,0,0,1,1.4-1.37,4.27,4.27,0,0,1,2.08-.5,4.82,4.82,0,0,1,2,.39,2.77,2.77,0,0,1,1.27,1.11,3.5,3.5,0,0,1,.43,1.76,3.56,3.56,0,0,1-.3,1.43,6.26,6.26,0,0,1-.85,1.39,19.15,19.15,0,0,1-1.42,1.6l-1.87,2h4.78v1.9Z"/><path class="cls-4" d="M221.46,84.89a3.43,3.43,0,0,1-1.34,1.61,4.38,4.38,0,0,1-4.1,0,3.4,3.4,0,0,1-1.35-1.61,6.72,6.72,0,0,1-.49-2.72v-2a6.69,6.69,0,0,1,.48-2.72,3.42,3.42,0,0,1,1.35-1.6,4.38,4.38,0,0,1,4.1,0,3.46,3.46,0,0,1,1.34,1.6,6.69,6.69,0,0,1,.48,2.72v2A6.91,6.91,0,0,1,221.46,84.89Zm-2.27-7.06a1.36,1.36,0,0,0-2.26,0,3.86,3.86,0,0,0-.39,2v2.65a3.94,3.94,0,0,0,.39,2,1.28,1.28,0,0,0,1.14.61,1.26,1.26,0,0,0,1.13-.61,4.08,4.08,0,0,0,.37-2V79.83A3.88,3.88,0,0,0,219.19,77.83Z"/><path class="cls-4" d="M235.4,90.11H233V79.4h-2.23a5.17,5.17,0,0,0-.34,1.9v.78a3,3,0,0,0,.84.08V83.8a4.77,4.77,0,0,1-.94.08,5.61,5.61,0,0,1-1.24-.14,3.55,3.55,0,0,1-1-.43V82.12a6.94,6.94,0,0,1,.16-1.52,3.35,3.35,0,0,1,.45-1.2h-1V77.49h7.72Z"/><path class="cls-4" d="M238.54,79.4h-1.47V77.49H241v5.34h-2.46Z"/><path class="cls-4" d="M250.93,77.49v5.37a4.45,4.45,0,0,1-.57,2.31,3.64,3.64,0,0,1-1.6,1.43,5.65,5.65,0,0,1-2.4.48,10.44,10.44,0,0,1-3.71-.68l.5-1.79a9.4,9.4,0,0,0,2.14.58,2.68,2.68,0,0,1-.49-.61,2.5,2.5,0,0,1-.3-.72l-1.44-6.37h2.47l1.37,6.61a4.25,4.25,0,0,0,.32.94,2,2,0,0,0,.93-.77,2.47,2.47,0,0,0,.32-1.29V77.49Z"/><path class="cls-4" d="M255.34,86.5A3.88,3.88,0,0,1,253.86,85a4.86,4.86,0,0,1-.55-2.3v-.57a3.93,3.93,0,0,1,.26-1.42,3.41,3.41,0,0,1,.65-1.15.62.62,0,0,1,.12-.12l0,0c-.19,0-.59.13-1.21.29l-.46-1.78a15.36,15.36,0,0,1,2.19-.44,18,18,0,0,1,2.34-.17,4.58,4.58,0,0,1,3.36,1.15,4.48,4.48,0,0,1,1.18,3.33v.92a4.85,4.85,0,0,1-.53,2.3,3.79,3.79,0,0,1-1.47,1.55,4.42,4.42,0,0,1-2.21.55A4.29,4.29,0,0,1,255.34,86.5Zm3.09-1.77a1.88,1.88,0,0,0,.61-.83,3.19,3.19,0,0,0,.22-1.24v-.88a3.31,3.31,0,0,0-.45-1.88,1.53,1.53,0,0,0-1.31-.65,1.45,1.45,0,0,0-1.29.69,3.67,3.67,0,0,0-.46,2v.75A3.39,3.39,0,0,0,256,83.9a1.9,1.9,0,0,0,.62.83,1.54,1.54,0,0,0,.91.29A1.58,1.58,0,0,0,258.43,84.73Z"/></g></g></svg>