<?xml version="1.0" encoding="utf-8"?>
<!-- Generator: Adobe Illustrator 25.2.1, SVG Export Plug-In . SVG Version: 6.00 Build 0)  -->
<svg version="1.1" id="Layer_1" xmlns="http://www.w3.org/2000/svg" xmlns:xlink="http://www.w3.org/1999/xlink" x="0px" y="0px"
	 viewBox="0 0 1440 455" style="enable-background:new 0 0 1440 455;" xml:space="preserve">
<style type="text/css">
	.st0{fill:none;stroke:#2EC4B6;stroke-width:2.28;stroke-miterlimit:8;}
	.st1{clip-path:url(#SVGID_2_);fill:none;stroke:#2EC4B6;stroke-width:2.28;stroke-miterlimit:8;}
	.st2{clip-path:url(#SVGID_2_);}
	.st3{clip-path:url(#SVGID_4_);fill:none;stroke:#2EC4B6;stroke-width:2.28;stroke-miterlimit:8;}
	.st4{clip-path:url(#SVGID_4_);}
	.st5{clip-path:url(#SVGID_6_);fill:none;stroke:#E71D36;stroke-width:2.28;stroke-miterlimit:8;}
	.st6{clip-path:url(#SVGID_6_);}
	.st7{clip-path:url(#SVGID_8_);fill:none;stroke:#2EC4B6;stroke-width:2.28;stroke-miterlimit:8;}
	.st8{clip-path:url(#SVGID_8_);}
	.st9{clip-path:url(#SVGID_10_);fill:none;stroke:#E71D36;stroke-width:2.28;stroke-miterlimit:8;}
	.st10{clip-path:url(#SVGID_10_);}
	.st11{clip-path:url(#SVGID_12_);fill:none;stroke:#2EC4B6;stroke-width:0.96;stroke-miterlimit:8;}
	.st12{clip-path:url(#SVGID_12_);}
	.st13{clip-path:url(#SVGID_14_);fill:none;stroke:#2EC4B6;stroke-width:0.96;stroke-miterlimit:8;}
	.st14{clip-path:url(#SVGID_14_);}
	.st15{clip-path:url(#SVGID_16_);fill:none;stroke:#2EC4B6;stroke-width:0.96;stroke-miterlimit:8;}
	.st16{clip-path:url(#SVGID_16_);}
	.st17{clip-path:url(#SVGID_18_);fill:none;stroke:#E71D36;stroke-width:0.96;stroke-miterlimit:8;}
	.st18{clip-path:url(#SVGID_18_);fill-rule:evenodd;clip-rule:evenodd;fill:#E71D36;}
	.st19{fill:none;}
	.st20{font-family:'Heebo-Regular';}
	.st21{font-size:33px;}
</style>
<g>
	<line class="st0" x1="87.2" y1="244.1" x2="1380.1" y2="244.1"/>
	<g>
		<defs>
			<polygon id="SVGID_1_" points="81,354.5 1383,354.5 1383,91.9 81,91.9 81,354.5 			"/>
		</defs>
		<clipPath id="SVGID_2_">
			<use xlink:href="#SVGID_1_"  style="overflow:visible;"/>
		</clipPath>
		<line class="st1" x1="83.7" y1="218.2" x2="83.7" y2="269.9"/>
		<g class="st2">
			<defs>
				<polygon id="SVGID_3_" points="81,354.5 1383,354.5 1383,91.9 81,91.9 81,354.5 				"/>
			</defs>
			<clipPath id="SVGID_4_">
				<use xlink:href="#SVGID_3_"  style="overflow:visible;"/>
			</clipPath>
			<line class="st3" x1="1379.4" y1="218.2" x2="1379.4" y2="269.9"/>
			<g class="st4">
				<defs>
					<polygon id="SVGID_5_" points="81,354.5 1383,354.5 1383,91.9 81,91.9 81,354.5 					"/>
				</defs>
				<clipPath id="SVGID_6_">
					<use xlink:href="#SVGID_5_"  style="overflow:visible;"/>
				</clipPath>
				<line class="st5" x1="519.8" y1="137.2" x2="519.8" y2="269.1"/>
				<g class="st6">
					<defs>
						<polygon id="SVGID_7_" points="81,354.5 1383,354.5 1383,91.9 81,91.9 81,354.5 						"/>
					</defs>
					<clipPath id="SVGID_8_">
						<use xlink:href="#SVGID_7_"  style="overflow:visible;"/>
					</clipPath>
					<line class="st7" x1="950.5" y1="218.2" x2="950.5" y2="269.9"/>
					<g class="st8">
						<defs>
							<polygon id="SVGID_9_" points="81,354.5 1383,354.5 1383,91.9 81,91.9 81,354.5 							"/>
						</defs>
						<clipPath id="SVGID_10_">
							<use xlink:href="#SVGID_9_"  style="overflow:visible;"/>
						</clipPath>
						<line class="st9" x1="520.1" y1="327.7" x2="520.1" y2="351.8"/>
						<g class="st10">
							<defs>
								<polygon id="SVGID_11_" points="81,354.5 1383,354.5 1383,91.9 81,91.9 81,354.5 								"/>
							</defs>
							<clipPath id="SVGID_12_">
								<use xlink:href="#SVGID_11_"  style="overflow:visible;"/>
							</clipPath>
							<polygon class="st11" points="1022.5,242.2 1022.5,184.7 1170.8,137.9 1319.2,184.7 1319.2,242.2 1022.5,242.2 							"/>
							<g class="st12">
								<defs>
									<polygon id="SVGID_13_" points="81,354.5 1383,354.5 1383,91.9 81,91.9 81,354.5 									"/>
								</defs>
								<clipPath id="SVGID_14_">
									<use xlink:href="#SVGID_13_"  style="overflow:visible;"/>
								</clipPath>
								<polygon class="st13" points="574.9,241.6 574.9,184.1 723.2,137.3 871.6,184.1 871.6,241.6 574.9,241.6 								"/>
								<g class="st14">
									<defs>
										<polygon id="SVGID_15_" points="81,354.5 1383,354.5 1383,91.9 81,91.9 81,354.5 										"/>
									</defs>
									<clipPath id="SVGID_16_">
										<use xlink:href="#SVGID_15_"  style="overflow:visible;"/>
									</clipPath>
									<polygon class="st15" points="162.3,241.6 162.3,183.9 310.7,137.1 459.1,183.9 459.1,241.6 162.3,241.6 									"/>
									<g class="st16">
										<defs>
											<polygon id="SVGID_17_" points="81,354.5 1383,354.5 1383,91.9 81,91.9 81,354.5 											"/>
										</defs>
										<clipPath id="SVGID_18_">
											<use xlink:href="#SVGID_17_"  style="overflow:visible;"/>
										</clipPath>
										<path class="st17" d="M145.1,218.9c-21.4-7.2-50.7-35.5-52.7-52.6c-1.6-14,12.9-27.5,29.6-41.2"/>
										<polygon class="st18" points="121.9,125.1 106.9,121.9 133.1,116.1 122,140.5 121.9,125.1 										"/>
									</g>
								</g>
							</g>
						</g>
					</g>
				</g>
			</g>
		</g>
	</g>
</g>
<rect x="1059.1" y="174.1" class="st19" width="220.5" height="50.8"/>
<text transform="matrix(1 0 0 1 1110.499 211.8594)" class="st20 st21">1 הפוקת</text>
<rect x="610.7" y="174.5" class="st19" width="220.5" height="50.8"/>
<text transform="matrix(1 0 0 1 662.1096 212.2187)" class="st20 st21">2 הפוקת</text>
<rect x="195.7" y="174.5" class="st19" width="220.5" height="50.8"/>
<text transform="matrix(1 0 0 1 247.1096 212.2186)" class="st20 st21">3 הפוקת</text>
<rect x="72" y="4" class="st19" width="448" height="128"/>
<text transform="matrix(1 0 0 1 189.459 60.5534)"><tspan x="0" y="0" class="st20 st21">,רצקתמ תורישה</tspan><tspan x="-112.5" y="39.6" class="st20 st21">רוטפ התועמשמ הפוקתהמ הגירח</tspan></text>
<rect x="1225.9" y="268" class="st19" width="214.1" height="55.1"/>
<text transform="matrix(1 0 0 1 1255.0703 307.9117)" class="st20 st21">ירבע 18 ליג</text>
<rect x="844.5" y="268.1" class="st19" width="214.1" height="55.1"/>
<text transform="matrix(1 0 0 1 873.6637 308.0157)" class="st20 st21">ירבע 19 ליג</text>
<rect x="405.5" y="268.1" class="st19" width="214.1" height="55.1"/>
<text transform="matrix(1 0 0 1 434.6637 308.0157)" class="st20 st21">ירבע 20 ליג</text>
<rect x="7.5" y="268.1" class="st19" width="214.1" height="55.1"/>
<text transform="matrix(1 0 0 1 36.6637 308.0157)" class="st20 st21">ירבע 21 ליג</text>
<rect x="405.7" y="368.6" class="st19" width="214.1" height="55.1"/>
<text transform="matrix(1 0 0 1 455.3113 408.5209)" class="st20 st21">20 ףיעס</text>
</svg>
